<svg xmlns="http://www.w3.org/2000/svg" viewBox="0 0 1488 1304" width="1488" height="1304"><defs><filter id="grain" x="0" y="0" width="100%" height="100%"><feTurbulence type="fractalNoise" baseFrequency=".9" numOctaves="2" seed="4"/><feColorMatrix values="0 0 0 0 1  0 0 0 0 1  0 0 0 0 1  0 0 0 .9 -.35"/></filter><pattern id="h1" width="5" height="10" patternUnits="userSpaceOnUse" patternTransform="rotate(30)"><line x1="0" y1="0" x2="0" y2="10" stroke="#ece6d8" stroke-width="1.45"/></pattern><pattern id="h2" width="5" height="10" patternUnits="userSpaceOnUse" patternTransform="rotate(30)"><line x1="0" y1="0" x2="0" y2="10" stroke="#ece6d8" stroke-width="1.45"/></pattern><pattern id="h3" width="7" height="10" patternUnits="userSpaceOnUse" patternTransform="rotate(-45)"><line x1="0" y1="0" x2="0" y2="10" stroke="#ece6d8" stroke-width="1.45"/></pattern><pattern id="h4" width="3" height="10" patternUnits="userSpaceOnUse" patternTransform="rotate(240)"><line x1="0" y1="0" x2="0" y2="10" stroke="#ece6d8" stroke-width="1.45"/></pattern><pattern id="h5" width="3" height="10" patternUnits="userSpaceOnUse" patternTransform="rotate(0)"><line x1="0" y1="0" x2="0" y2="10" stroke="#ece6d8" stroke-width="1.45"/></pattern><pattern id="h6" width="6" height="10" patternUnits="userSpaceOnUse" patternTransform="rotate(0)"><line x1="0" y1="0" x2="0" y2="10" stroke="#ece6d8" stroke-width="1.45"/></pattern></defs><rect width="100%" height="100%" fill="#070706"/><path d="M480 1080L476.5 1119.9L444.8 1114.3L435.9 1147.7L466.1 1158.7L449.2 1195L421.3 1178.9L401.5 1207.1L426.2 1227.8L397.8 1256.2L377.1 1231.5L348.9 1251.3L365 1279.2L328.7 1296.1L317.7 1265.9L284.3 1274.8L289.9 1306.5L250 1310L250 1277.8L215.7 1274.8L210.1 1306.5L171.3 1296.1L182.3 1265.9L151.1 1251.3L135 1279.2L102.2 1256.2L122.9 1231.5L98.5 1207.1L73.8 1227.8L50.8 1195L78.7 1178.9L64.1 1147.7L33.9 1158.7L23.5 1119.9L55.2 1114.3L52.2 1080L20 1080L23.5 1040.1L55.2 1045.7L64.1 1012.3L33.9 1001.3L50.8 965L78.7 981.1L98.5 952.9L73.8 932.2L102.2 903.8L122.9 928.5L151.1 908.7L135 880.8L171.3 863.9L182.3 894.1L215.7 885.2L210.1 853.5L250 850L250 882.2L284.3 885.2L289.9 853.5L328.7 863.9L317.7 894.1L348.9 908.7L365 880.8L397.8 903.8L377.1 928.5L401.5 952.9L426.2 932.2L449.2 965L421.3 981.1L435.9 1012.3L466.1 1001.3L476.5 1040.1L444.8 1045.7L447.8 1080Z" fill="url(#h1)" stroke="#ece6d8" stroke-width="2" opacity="0.75"/><circle cx="250" cy="1080" r="115" fill="#070706" stroke="#ece6d8" stroke-width="2" opacity="0.75"/><circle cx="250" cy="1080" r="27.6" fill="#ece6d8" opacity="0.75"/><path d="M1460 230L1456.3 267.1L1430.3 261.9L1421 292.5L1445.5 302.7L1428 335.6L1405.9 320.8L1385.5 345.5L1404.4 364.4L1375.6 388L1360.8 365.9L1332.5 381L1342.7 405.5L1307.1 416.3L1301.9 390.3L1270 393.4L1270 420L1232.9 416.3L1238.1 390.3L1207.5 381L1197.3 405.5L1164.4 388L1179.2 365.9L1154.5 345.5L1135.6 364.4L1112 335.6L1134.1 320.8L1119 292.5L1094.5 302.7L1083.7 267.1L1109.7 261.9L1106.6 230L1080 230L1083.7 192.9L1109.7 198.1L1119 167.5L1094.5 157.3L1112 124.4L1134.1 139.2L1154.5 114.5L1135.6 95.6L1164.4 72L1179.2 94.1L1207.5 79L1197.3 54.5L1232.9 43.7L1238.1 69.7L1270 66.6L1270 40L1307.1 43.7L1301.9 69.7L1332.5 79L1342.7 54.5L1375.6 72L1360.8 94.1L1385.5 114.5L1404.4 95.6L1428 124.4L1405.9 139.2L1421 167.5L1445.5 157.3L1456.3 192.9L1430.3 198.1L1433.4 230Z" fill="url(#h2)" stroke="#ece6d8" stroke-width="2" opacity="0.75"/><circle cx="1270" cy="230" r="95" fill="#070706" stroke="#ece6d8" stroke-width="2" opacity="0.75"/><circle cx="1270" cy="230" r="22.8" fill="#ece6d8" opacity="0.75"/><path d="M1214 649.5L1436.3 648.3M1213.4 675.6L1416.6 685.8M1211.8 697.1L1324.7 708M1207.6 729.4L1175.9 724.1M1203.2 752.2L1378.1 790.3M1197.9 774L1351.5 815.2M1191.9 794.3L1402.8 861.3M1183.7 817.9L1110.3 790.2M1172.1 846L1140.7 831.8M1161.5 867.9L1329.7 954.9M1151.9 885.5L1179 900.9M1137 909.8L1093.5 881.3M1122.1 931.1L1305.8 1066.8M1108.6 948.6L1120.1 957.9M1093.2 966.5L1238.2 1097.1M1076.5 984.2L1237.4 1144.9M1055.4 1004L1018.4 962.1M1039.4 1017.5L1134 1134.5M1017.1 1034.5L1046.8 1076.1M997 1048.1L970.3 1006.4M978.9 1059.1L1033.4 1153.4M956.5 1071.2L1003 1162.8M938.1 1080.1L999.4 1215.4M909.7 1091.8L995.8 1320.4M893.3 1097.7L903.3 1127.4M867.6 1105.4L884.7 1168M842 1111.7L870.1 1243.6M812.9 1116.9L840.6 1303.5M793.9 1119.3L813.7 1304.3M767.4 1121.4L775.3 1280.4M745.4 1122L745.3 1109.4M721.1 1121.4L718.3 1177.5M691.1 1119L666 1340.7M674.5 1116.8L648.5 1291.4M643.8 1111.2L636.3 1145.8M624.7 1106.6L589.4 1241.2M601.6 1099.9L573.6 1188M579.6 1092.3L577.7 1097.4M549.4 1079.8L586.1 999.3M528.7 1069.8L570.1 989.5M512.9 1061.3L437 1195.8M484.4 1043.8L497 1024.6M468.4 1032.7L517.9 964.4M447.3 1016.5L471.7 986.6M431 1002.6L304.3 1144.4M412 984.7L263.6 1133.5M395.5 967.3L463 906.2M379.7 949L180.9 1111.1M366.3 931.7L207.1 1049.6M348.4 905.7L241 974.6M338 888.7L144 1001.8M323.2 861.3L228.9 908.2M315.8 845.7L98.6 943.9M306.7 824.3L122.1 897.1M296.5 795.7L100.9 858.4M291.2 777.8L213.2 799.5M284.8 752L386.5 729.9M280.4 729L214.4 740M276.3 698.6L166.3 709.5M274.4 672L188.9 675.7M274 654.4L163.9 655M274.4 631.8L168.3 627.2M276.3 605.2L340.6 611.7M280.3 575.4L203.3 562.7M283.4 558.6L119.6 525.4M289.4 532.7L111.4 486M296.2 509.2L351 526.6M304 486.7L78.1 401.9M316.3 457.2L267.5 434.9M327.3 434.5L227.2 382.3M338.9 413.7L320.5 402.9M351.3 393.7L361.2 400.2M363.7 375.8L180.8 242.9M377 358.3L423.1 395.2M397.2 334.7L454.4 387M410.6 320.7L396.2 306.5M431.6 300.8L414.7 281.8M450.5 284.9L408.5 232.3M468.9 270.9L463.3 263.1M486.2 259L528.3 323.2M512.7 242.8L398.1 40.1M534.6 231.2L575.1 312.7M554.3 222L455.9 -1M579.1 211.9L504.2 12M603 203.7L598 187.9M618.4 199.1L565.2 7.4M647.5 192L636.8 140.9M672.8 187.4L684.7 265.1M692.2 184.9L663.7 -72.4M723.4 182.5L712.2 -72.5M747.5 182L749.2 -35.7M771.5 182.8L770 208.5M796.7 185L803.3 126.3M821 188.4L851.6 4.5M843.3 192.6L872.7 56.4M869.2 199L863.2 220.5M889 204.9L909.9 140.4M908.3 211.6L994.8 -20.3M936 223L969.3 148.5M960.4 234.8L977.9 201M976.1 243.3L1039.1 132.3M1002.1 259.2L1040 201.4M1016.5 269.1L990 306.4M1042.2 288.7L1187.4 111.7M1058.8 303L1139.8 213.2M1078.2 321.6L1182.4 218.6M1091.6 335.7L1152.5 280.2M1112 359.6L1288.4 219.5M1122.1 372.8L1148.9 353M1140.1 399.1L1201.6 359.8M1150.7 416.5L1104.8 443.1M1163.9 440.9L1374.4 335.2M1174.8 464.1L1347.6 388.8M1182.1 481.8L1139.9 498.2M1190.8 506.1L1160.9 515.8M1197.2 527.3L1140.2 543M1203.1 551.3L1403.8 507.3M1208.2 578.4L1342.9 557.1M1211.5 603.3L1141.9 610.5M1213.5 629.4L1471.1 617" stroke="#ece6d8" stroke-width="1.35" opacity="0.625" fill="none"/><circle cx="744" cy="652" r="470" fill="#070706" stroke="#ece6d8" stroke-width="4"/><circle cx="744" cy="652" r="470" fill="url(#h3)" opacity=".45"/><circle cx="744" cy="652" r="410" fill="#070706" stroke="#ece6d8" stroke-width="1.5"/><path d="M1116 652L1152 652M1135.8 693.2L1149.8 694.6M1129.4 733.9L1143.1 736.8M1118.7 773.8L1132 778.1M1103.9 812.3L1116.7 817.9M1066.2 838L1097.3 856M1062.8 883.6L1074.1 891.8M1036.8 915.6L1047.2 925M1007.6 944.8L1017 955.2M975.6 970.8L983.8 982.1M930 974.2L948 1005.3M904.3 1011.9L909.9 1024.7M865.8 1026.7L870.1 1040M825.9 1037.4L828.8 1051.1M785.2 1043.8L786.6 1057.8M744 1024L744 1060M702.8 1043.8L701.4 1057.8M662.1 1037.4L659.2 1051.1M622.2 1026.7L617.9 1040M583.7 1011.9L578.1 1024.7M558 974.2L540 1005.3M512.4 970.8L504.2 982.1M480.4 944.8L471 955.2M451.2 915.6L440.8 925M425.2 883.6L413.9 891.8M421.8 838L390.7 856M384.1 812.3L371.3 817.9M369.3 773.8L356 778.1M358.6 733.9L344.9 736.8M352.2 693.2L338.2 694.6M372 652L336 652M352.2 610.8L338.2 609.4M358.6 570.1L344.9 567.2M369.3 530.2L356 525.9M384.1 491.7L371.3 486.1M421.8 466L390.7 448M425.2 420.4L413.9 412.2M451.2 388.4L440.8 379M480.4 359.2L471 348.8M512.4 333.2L504.2 321.9M558 329.8L540 298.7M583.7 292.1L578.1 279.3M622.2 277.3L617.9 264M662.1 266.6L659.2 252.9M702.8 260.2L701.4 246.2M744 280L744 244M785.2 260.2L786.6 246.2M825.9 266.6L828.8 252.9M865.8 277.3L870.1 264M904.3 292.1L909.9 279.3M930 329.8L948 298.7M975.6 333.2L983.8 321.9M1007.6 359.2L1017 348.8M1036.8 388.4L1047.2 379M1062.8 420.4L1074.1 412.2M1066.2 466L1097.3 448M1103.9 491.7L1116.7 486.1M1118.7 530.2L1132 525.9M1129.4 570.1L1143.1 567.2M1135.8 610.8L1149.8 609.4" stroke="#ece6d8" stroke-width="2.4"/><text x="744" y="340" font-family="Georgia,serif" font-size="52" fill="#ece6d8" text-anchor="middle">12</text><text x="909" y="384.2" font-family="Georgia,serif" font-size="52" fill="#ece6d8" text-anchor="middle">1</text><text x="1029.8" y="505" font-family="Georgia,serif" font-size="52" fill="#ece6d8" text-anchor="middle">2</text><text x="1074" y="670" font-family="Georgia,serif" font-size="52" fill="#ece6d8" text-anchor="middle">3</text><text x="1029.8" y="835" font-family="Georgia,serif" font-size="52" fill="#ece6d8" text-anchor="middle">4</text><text x="909" y="955.8" font-family="Georgia,serif" font-size="52" fill="#ece6d8" text-anchor="middle">5</text><text x="744" y="1000" font-family="Georgia,serif" font-size="52" fill="#ece6d8" text-anchor="middle">6</text><text x="579" y="955.8" font-family="Georgia,serif" font-size="52" fill="#ece6d8" text-anchor="middle">7</text><text x="458.2" y="835" font-family="Georgia,serif" font-size="52" fill="#ece6d8" text-anchor="middle">8</text><text x="414" y="670" font-family="Georgia,serif" font-size="52" fill="#ece6d8" text-anchor="middle">9</text><text x="458.2" y="505" font-family="Georgia,serif" font-size="52" fill="#ece6d8" text-anchor="middle">10</text><text x="579" y="384.2" font-family="Georgia,serif" font-size="52" fill="#ece6d8" text-anchor="middle">11</text><path d="M362.9 872A440 440 0 0 1 319 765.9" fill="none" stroke="#ece6d8" stroke-width="16"/><path d="M735 636.4L532.3 774.2L753 667.6Z" fill="url(#h4)" stroke="#ece6d8" stroke-width="2.4"/><path d="M756 652L744 285.4L732 652Z" fill="url(#h5)" stroke="#ece6d8" stroke-width="2.4"/><circle cx="744" cy="652" r="22" fill="#ece6d8"/><g fill="#ece6d8" opacity="0.4"><circle cx="720.6" cy="98.7" r="0.6"/><circle cx="1261.2" cy="465.3" r="1.1"/><circle cx="1466.9" cy="817.2" r="1"/><circle cx="1358.2" cy="609" r="1.2"/><circle cx="454.8" cy="1131.3" r="1.1"/><circle cx="209.3" cy="1005.4" r="0.7"/><circle cx="985.2" cy="173.8" r="0.5"/><circle cx="214.2" cy="1055" r="0.6"/><circle cx="1342" cy="485.1" r="0.9"/><circle cx="139.1" cy="524.9" r="1.2"/><circle cx="267.4" cy="853.1" r="0.7"/><circle cx="447.3" cy="30.2" r="0.4"/><circle cx="1412.7" cy="1082" r="1.1"/><circle cx="1201.2" cy="1243.1" r="0.5"/><circle cx="853.9" cy="1223" r="1.1"/><circle cx="1441.1" cy="152.3" r="1"/><circle cx="450.7" cy="1209.9" r="0.8"/><circle cx="891.4" cy="1169.5" r="1"/><circle cx="1482.7" cy="1172.3" r="0.8"/><circle cx="19.6" cy="239.8" r="0.9"/><circle cx="542.1" cy="1240.2" r="1"/><circle cx="232.2" cy="88.3" r="1.3"/><circle cx="1469.9" cy="1199.6" r="0.9"/><circle cx="464.6" cy="119.1" r="0.6"/><circle cx="330.6" cy="1210.4" r="1.2"/><circle cx="1157.5" cy="193.9" r="0.6"/><circle cx="445.2" cy="1236.1" r="0.5"/><circle cx="1176.2" cy="887.6" r="0.9"/><circle cx="1427.4" cy="342.1" r="0.9"/><circle cx="234.4" cy="126.2" r="0.4"/><circle cx="471" cy="158.8" r="0.5"/><circle cx="1476.9" cy="376.9" r="1.2"/><circle cx="974.9" cy="1242.2" r="1.2"/><circle cx="229.5" cy="1101" r="0.8"/><circle cx="100.9" cy="219.1" r="1.2"/><circle cx="1015" cy="1123.5" r="0.7"/><circle cx="41.7" cy="1143.2" r="0.4"/><circle cx="1428.6" cy="198.9" r="0.5"/><circle cx="1262.7" cy="1073.7" r="0.6"/><circle cx="1069.2" cy="241.4" r="1.1"/><circle cx="1482.7" cy="921.2" r="1.2"/><circle cx="1394.4" cy="494.8" r="1.2"/><circle cx="1240.6" cy="765.7" r="0.5"/><circle cx="921.4" cy="1188.9" r="0.7"/><circle cx="962.5" cy="1169.9" r="0.9"/><circle cx="55.4" cy="824.1" r="0.6"/><circle cx="1276.7" cy="863.2" r="0.7"/><circle cx="1332.7" cy="815.1" r="0.7"/><circle cx="1241.2" cy="1162.7" r="1.2"/><circle cx="1314.3" cy="858.5" r="1"/><circle cx="1469.3" cy="460.4" r="0.5"/><circle cx="371.8" cy="261.9" r="0.5"/><circle cx="1163" cy="1184.6" r="1"/><circle cx="173.8" cy="1276" r="1.1"/><circle cx="757.8" cy="1.2" r="1.2"/><circle cx="27.2" cy="955.9" r="0.4"/><circle cx="535.4" cy="1160.8" r="1.1"/><circle cx="1214.1" cy="388.8" r="0.7"/><circle cx="900" cy="44.4" r="0.8"/><circle cx="1450.6" cy="983.3" r="1.2"/><circle cx="1173.8" cy="918.8" r="0.8"/><circle cx="260.2" cy="23.4" r="1.2"/><circle cx="1386.6" cy="359.8" r="1.1"/><circle cx="1252.8" cy="418.9" r="1"/><circle cx="44.8" cy="343.7" r="0.7"/><circle cx="1360.8" cy="172.7" r="1.1"/><circle cx="129.1" cy="1286.2" r="0.5"/><circle cx="137.1" cy="275.9" r="1.2"/><circle cx="995.1" cy="1161.3" r="0.8"/><circle cx="169.7" cy="444" r="0.8"/><circle cx="1473.6" cy="217.1" r="0.6"/><circle cx="1254.8" cy="148.7" r="1.3"/><circle cx="983" cy="1182.8" r="0.5"/><circle cx="1260" cy="233.8" r="1"/><circle cx="40.5" cy="999.7" r="0.6"/><circle cx="306.8" cy="45.5" r="0.7"/><circle cx="488.3" cy="1281.7" r="0.9"/><circle cx="542.1" cy="1291.1" r="0.6"/><circle cx="319.9" cy="1246.7" r="1.3"/><circle cx="1018" cy="1276.1" r="0.5"/><circle cx="1344.5" cy="918.4" r="1"/><circle cx="1254.6" cy="135.9" r="0.6"/><circle cx="205" cy="624.3" r="0.9"/><circle cx="1106.6" cy="1093.3" r="1.1"/><circle cx="56.4" cy="199.4" r="0.6"/><circle cx="289.5" cy="814.6" r="0.7"/><circle cx="1405.2" cy="248.6" r="0.7"/><circle cx="1460.6" cy="277.2" r="0.4"/><circle cx="284.4" cy="1076.3" r="1.1"/><circle cx="1396.4" cy="648.5" r="0.4"/><circle cx="584.5" cy="182" r="0.7"/><circle cx="664.3" cy="177.7" r="0.4"/><circle cx="1166.2" cy="954.8" r="0.8"/><circle cx="171" cy="385.4" r="0.9"/><circle cx="1331.2" cy="628.1" r="1.3"/><circle cx="34" cy="569.8" r="1.1"/><circle cx="205.7" cy="55.7" r="0.6"/><circle cx="253.1" cy="450.6" r="1"/><circle cx="810" cy="1250.2" r="1.2"/><circle cx="544.3" cy="1124.9" r="0.6"/><circle cx="701.1" cy="155.7" r="1.2"/><circle cx="886.4" cy="1288" r="0.5"/><circle cx="76.5" cy="1069.3" r="1.2"/><circle cx="119.8" cy="1228" r="1.1"/><circle cx="391.6" cy="74.7" r="0.8"/><circle cx="1288.5" cy="272.7" r="0.8"/><circle cx="1427.9" cy="1158" r="0.7"/><circle cx="620.5" cy="3.5" r="0.9"/><circle cx="1270.1" cy="1101.6" r="0.5"/><circle cx="644.9" cy="104.4" r="0.8"/><circle cx="1358.3" cy="369.7" r="1.2"/><circle cx="1421.5" cy="1067.2" r="0.6"/><circle cx="1366.3" cy="1203.4" r="1.3"/><circle cx="15.8" cy="4.7" r="0.7"/><circle cx="137.6" cy="835.2" r="1"/><circle cx="95.9" cy="568.9" r="0.5"/><circle cx="154.8" cy="993.7" r="0.7"/><circle cx="873.8" cy="154.1" r="1"/><circle cx="104.8" cy="1245.6" r="0.5"/><circle cx="253.8" cy="629.1" r="1"/><circle cx="1425" cy="891.7" r="1.1"/><circle cx="1421.1" cy="589" r="0.7"/><circle cx="1284.7" cy="1039.9" r="0.7"/><circle cx="1241.6" cy="230.1" r="0.5"/><circle cx="1480.3" cy="42.9" r="0.4"/><circle cx="1290.2" cy="3.4" r="1"/><circle cx="365.3" cy="1261.2" r="0.8"/><circle cx="132.5" cy="1031.1" r="0.5"/><circle cx="82.4" cy="6.1" r="1.3"/><circle cx="829.9" cy="1271.2" r="0.7"/><circle cx="0.8" cy="474.1" r="1.1"/><circle cx="1394" cy="564.3" r="1.1"/><circle cx="583.9" cy="112.7" r="0.7"/><circle cx="313.6" cy="35.6" r="0.7"/><circle cx="187.8" cy="595.4" r="1.1"/><circle cx="1127.9" cy="1152" r="0.7"/><circle cx="996.2" cy="1159.5" r="0.8"/><circle cx="1359.6" cy="134.2" r="1.2"/><circle cx="1311.1" cy="1277.9" r="1.1"/><circle cx="1067.6" cy="1145.6" r="0.9"/><circle cx="925.1" cy="1205.3" r="0.7"/><circle cx="498.8" cy="46.3" r="1.2"/><circle cx="354.2" cy="240.6" r="0.8"/><circle cx="1305" cy="462.5" r="0.8"/><circle cx="184.4" cy="1128.8" r="0.4"/><circle cx="417.3" cy="184" r="0.7"/><circle cx="1452" cy="1008.3" r="1.1"/><circle cx="1443.3" cy="1211.1" r="1.1"/><circle cx="1124.4" cy="1025.9" r="1.2"/><circle cx="278.2" cy="843.7" r="0.6"/><circle cx="26.3" cy="1245.8" r="1.2"/><circle cx="453.6" cy="58.6" r="1.1"/><circle cx="1147.7" cy="201.9" r="1.1"/><circle cx="1247.6" cy="749" r="0.6"/><circle cx="84" cy="82.7" r="0.8"/><circle cx="334.5" cy="1040.7" r="0.5"/><circle cx="8.1" cy="252.4" r="1.1"/><circle cx="327" cy="18.3" r="0.8"/><circle cx="1362.2" cy="441.2" r="1"/><circle cx="176.4" cy="327.6" r="0.5"/><circle cx="1282.8" cy="440.3" r="1"/><circle cx="1305.4" cy="501.6" r="0.6"/><circle cx="576.4" cy="91.4" r="1.2"/><circle cx="951.4" cy="1137.2" r="1.2"/><circle cx="1079.5" cy="1074.5" r="1"/><circle cx="1365.8" cy="140.2" r="0.5"/><circle cx="252.7" cy="594.3" r="1.2"/><circle cx="401.9" cy="9.7" r="0.8"/><circle cx="838.7" cy="1149" r="0.7"/><circle cx="1378.9" cy="1058.4" r="0.5"/><circle cx="1158.6" cy="1219.8" r="1.3"/><circle cx="1316.3" cy="705.1" r="0.5"/><circle cx="455.7" cy="105.1" r="0.8"/><circle cx="139.9" cy="690.7" r="0.7"/><circle cx="1230.8" cy="1002.5" r="0.6"/><circle cx="401.5" cy="1188.2" r="0.4"/><circle cx="242" cy="640.8" r="1.2"/><circle cx="283.2" cy="1272.1" r="1.3"/><circle cx="245.4" cy="997" r="0.7"/><circle cx="47.5" cy="275" r="1.1"/><circle cx="190.3" cy="223.9" r="0.7"/><circle cx="1359.5" cy="900.2" r="1.1"/><circle cx="387.1" cy="146" r="1"/><circle cx="1113.8" cy="1176.5" r="1.2"/><circle cx="1435.8" cy="111.8" r="0.7"/><circle cx="54.1" cy="877.5" r="0.4"/><circle cx="1324.1" cy="249.3" r="1.1"/><circle cx="50.5" cy="643.3" r="0.6"/><circle cx="1154.7" cy="1005.4" r="0.5"/><circle cx="76.7" cy="952.3" r="0.8"/><circle cx="577.7" cy="168" r="0.8"/><circle cx="1470.9" cy="999.8" r="1"/><circle cx="1380.3" cy="579.8" r="0.7"/><circle cx="1179.7" cy="134" r="1.1"/><circle cx="220.4" cy="812.8" r="0.9"/><circle cx="1148.5" cy="82" r="1"/><circle cx="1230.6" cy="50.6" r="1"/><circle cx="1456.3" cy="3.6" r="0.8"/><circle cx="743" cy="1279.5" r="1.2"/><circle cx="42.8" cy="177.9" r="0.8"/><circle cx="1196.4" cy="1029.7" r="0.9"/><circle cx="1371" cy="1069.6" r="1.2"/><circle cx="1380.6" cy="223" r="0.4"/><circle cx="576" cy="77.9" r="0.9"/><circle cx="151.1" cy="748.6" r="0.5"/><circle cx="1280.3" cy="361.1" r="1.2"/><circle cx="184.4" cy="508" r="1.1"/><circle cx="1310.9" cy="213.9" r="1.2"/><circle cx="1279" cy="910.6" r="0.7"/><circle cx="1351.3" cy="503.6" r="0.9"/><circle cx="555.9" cy="1104.9" r="0.7"/><circle cx="890.4" cy="1291.4" r="1.2"/><circle cx="1279.7" cy="1163.4" r="1.1"/><circle cx="1114.8" cy="1157.7" r="0.6"/><circle cx="1401.4" cy="263.1" r="0.5"/><circle cx="221.1" cy="518.7" r="0.7"/><circle cx="1403.6" cy="102.4" r="0.9"/><circle cx="721.3" cy="163.6" r="1"/><circle cx="196.7" cy="711.8" r="0.7"/><circle cx="1386.1" cy="294.9" r="1.3"/><circle cx="193.1" cy="39.3" r="0.5"/><circle cx="1182.4" cy="201.9" r="1"/><circle cx="1339.4" cy="903.6" r="1.2"/><circle cx="1225.8" cy="1118.5" r="0.4"/><circle cx="1087.8" cy="266.2" r="0.6"/><circle cx="104.1" cy="964.5" r="1.1"/><circle cx="137" cy="178.1" r="0.5"/><circle cx="1473.5" cy="93.1" r="0.9"/><circle cx="1303.9" cy="222.4" r="1"/><circle cx="1335.1" cy="652.3" r="1.3"/><circle cx="885.8" cy="1251.2" r="1"/><circle cx="85.8" cy="6" r="1.3"/><circle cx="1247.2" cy="470.7" r="1"/><circle cx="963.3" cy="78.5" r="0.9"/><circle cx="1383.6" cy="725.5" r="1.1"/><circle cx="99.8" cy="541.6" r="0.9"/><circle cx="425" cy="1126.4" r="0.7"/><circle cx="1469.4" cy="281.9" r="0.8"/><circle cx="548.7" cy="1144.3" r="1.1"/><circle cx="390.4" cy="317.6" r="1.1"/><circle cx="173.2" cy="940.3" r="1"/><circle cx="1199.7" cy="100.3" r="0.8"/><circle cx="215.3" cy="743.5" r="0.6"/><circle cx="244.3" cy="1035.8" r="0.6"/><circle cx="396.9" cy="984.5" r="0.6"/><circle cx="1292.7" cy="1256" r="0.5"/><circle cx="426.4" cy="1131" r="0.8"/><circle cx="1380.5" cy="91.8" r="0.8"/><circle cx="718.4" cy="1172.8" r="0.7"/><circle cx="1088.2" cy="251" r="0.8"/><circle cx="644.4" cy="1281.3" r="0.8"/><circle cx="1203.9" cy="305.8" r="1.2"/><circle cx="35.2" cy="197.7" r="1"/><circle cx="1227.4" cy="1289.4" r="0.5"/><circle cx="250" cy="616.3" r="1.1"/><circle cx="186.5" cy="1036.8" r="1.2"/><circle cx="1439.6" cy="986.7" r="0.6"/><circle cx="406.5" cy="1031.8" r="0.7"/><circle cx="1250.2" cy="1148.1" r="0.8"/><circle cx="201" cy="1063.8" r="0.5"/><circle cx="178.9" cy="1143.1" r="0.6"/><circle cx="1075.8" cy="254" r="0.7"/><circle cx="99.5" cy="334.7" r="1.1"/><circle cx="1336.6" cy="40" r="0.7"/><circle cx="1453.4" cy="291.3" r="1.3"/><circle cx="1401.1" cy="565.5" r="0.7"/><circle cx="1222" cy="822.7" r="1.1"/><circle cx="190.7" cy="1082.3" r="0.9"/><circle cx="487.3" cy="168.7" r="0.9"/><circle cx="345.1" cy="99.4" r="0.7"/><circle cx="1231.3" cy="318.6" r="0.6"/><circle cx="200.5" cy="791.2" r="1.1"/><circle cx="278.8" cy="1070.3" r="0.4"/><circle cx="174.1" cy="122.6" r="1.1"/><circle cx="123.1" cy="952.9" r="0.6"/><circle cx="444" cy="130" r="1.1"/><circle cx="551.7" cy="1212.7" r="1"/><circle cx="1442.6" cy="287" r="0.6"/><circle cx="1485.7" cy="897.1" r="1"/><circle cx="698" cy="17.1" r="0.6"/><circle cx="1193.7" cy="353.8" r="0.9"/><circle cx="83.5" cy="85.6" r="1"/><circle cx="237.8" cy="556.7" r="1.1"/><circle cx="1304.6" cy="690.9" r="0.5"/><circle cx="192.9" cy="868.1" r="1"/><circle cx="1437.1" cy="358.6" r="0.5"/><circle cx="549.5" cy="1129.4" r="1.3"/><circle cx="85.5" cy="438.4" r="0.8"/><circle cx="1330.8" cy="741.7" r="0.8"/><circle cx="1448.7" cy="956.7" r="1.2"/><circle cx="1205.2" cy="1281.7" r="1"/><circle cx="1009.5" cy="1222.7" r="1.3"/><circle cx="1339.9" cy="881.1" r="0.8"/><circle cx="1417" cy="868.8" r="1.1"/><circle cx="992.1" cy="131.3" r="0.8"/><circle cx="520.7" cy="1262.8" r="1"/><circle cx="1328.3" cy="688.6" r="1"/><circle cx="1140.5" cy="259.6" r="1"/><circle cx="1251.6" cy="1297.7" r="0.9"/><circle cx="913.5" cy="1296.1" r="1.1"/><circle cx="1293.3" cy="685.5" r="0.5"/><circle cx="1230.6" cy="123.2" r="1"/><circle cx="433.9" cy="1053.9" r="1"/><circle cx="444.4" cy="1302.9" r="0.9"/><circle cx="1427.9" cy="155.9" r="0.4"/><circle cx="260.7" cy="416.7" r="1.3"/><circle cx="190.7" cy="680" r="1.2"/><circle cx="316.2" cy="70.8" r="0.9"/><circle cx="338.1" cy="1142.7" r="1"/><circle cx="1012.1" cy="1246.7" r="0.8"/><circle cx="33.2" cy="1067.9" r="0.9"/><circle cx="1261.4" cy="448.2" r="1.2"/><circle cx="1201.1" cy="304.4" r="1.1"/><circle cx="62.9" cy="840.6" r="1.1"/><circle cx="1334.8" cy="771.2" r="1.1"/><circle cx="1401.9" cy="1220.3" r="1.1"/><circle cx="967.8" cy="1160.6" r="0.7"/><circle cx="174.1" cy="1008.3" r="1.2"/><circle cx="1258.5" cy="246.1" r="0.6"/><circle cx="1130.5" cy="19.6" r="1.2"/><circle cx="39.3" cy="489.1" r="0.9"/><circle cx="1407.9" cy="249.6" r="0.5"/><circle cx="1287.7" cy="1201.3" r="0.8"/><circle cx="768.3" cy="1148.4" r="0.8"/><circle cx="361" cy="358.1" r="0.7"/><circle cx="98" cy="604.2" r="1.1"/><circle cx="1296.1" cy="164.2" r="0.7"/><circle cx="1294.5" cy="1246.7" r="0.7"/><circle cx="265" cy="1095.3" r="0.7"/><circle cx="977.9" cy="1206.3" r="0.6"/><circle cx="125.7" cy="660.1" r="0.9"/><circle cx="1214.2" cy="186.5" r="0.6"/><circle cx="421.9" cy="228.4" r="1.2"/><circle cx="1265.7" cy="1167.4" r="0.8"/><circle cx="1266.3" cy="1218.4" r="1.1"/><circle cx="1257.5" cy="893.7" r="0.4"/><circle cx="1365.3" cy="338.8" r="1.3"/><circle cx="226.6" cy="1023.8" r="0.7"/><circle cx="72.6" cy="754.3" r="1"/><circle cx="386.9" cy="121.9" r="0.9"/><circle cx="387.1" cy="230.3" r="0.6"/><circle cx="570.6" cy="153.5" r="0.6"/><circle cx="272.3" cy="1066.1" r="0.9"/><circle cx="513.5" cy="1266.9" r="0.9"/><circle cx="226.9" cy="624.5" r="0.6"/><circle cx="1258.2" cy="1016.2" r="0.5"/><circle cx="204.1" cy="878" r="0.9"/><circle cx="206.5" cy="611.2" r="0.9"/><circle cx="1390.8" cy="798.6" r="0.9"/><circle cx="57.1" cy="658.1" r="0.9"/><circle cx="1403" cy="925.3" r="1"/><circle cx="1454.7" cy="1247.2" r="0.5"/><circle cx="1336.6" cy="691.8" r="0.9"/><circle cx="31.2" cy="87.2" r="1.1"/><circle cx="545.8" cy="1282.9" r="1.3"/><circle cx="1207.2" cy="1285.7" r="0.7"/><circle cx="116.7" cy="206.7" r="0.6"/><circle cx="1107.2" cy="235.7" r="0.9"/><circle cx="1453" cy="532.6" r="1.3"/><circle cx="212.6" cy="200.3" r="0.8"/><circle cx="331.9" cy="84.9" r="0.5"/><circle cx="1.2" cy="137" r="1"/><circle cx="347.1" cy="57.7" r="1.1"/><circle cx="111.8" cy="969.6" r="0.4"/><circle cx="1281.8" cy="616.3" r="0.7"/><circle cx="315.9" cy="1069.8" r="0.8"/><circle cx="266.8" cy="402.6" r="0.6"/><circle cx="1102.9" cy="1073.9" r="1.1"/><circle cx="1404.5" cy="602.1" r="0.9"/><circle cx="77.2" cy="1012.4" r="0.8"/><circle cx="299" cy="459.4" r="0.7"/><circle cx="250.8" cy="1085.7" r="0.9"/><circle cx="148.4" cy="385" r="0.7"/><circle cx="539.7" cy="23.9" r="0.5"/><circle cx="75.1" cy="511.6" r="0.6"/><circle cx="451.2" cy="246.5" r="1.1"/><circle cx="533.4" cy="1152.9" r="0.5"/><circle cx="1270.2" cy="149" r="1.2"/><circle cx="795.3" cy="162.1" r="0.6"/><circle cx="1174.8" cy="1100.2" r="0.6"/><circle cx="283.8" cy="1054.7" r="0.6"/><circle cx="206.1" cy="339.6" r="1.3"/><circle cx="935.7" cy="1175.1" r="0.6"/><circle cx="111.5" cy="579.7" r="1.1"/><circle cx="1311.7" cy="116.6" r="0.8"/><circle cx="1355.6" cy="957.3" r="1"/><circle cx="247.8" cy="644.7" r="0.8"/><circle cx="134.9" cy="1058.8" r="0.8"/><circle cx="281.9" cy="804.3" r="0.7"/><circle cx="189.3" cy="759.3" r="0.4"/><circle cx="1364.9" cy="743.2" r="0.6"/><circle cx="1394.2" cy="758" r="0.4"/><circle cx="1076.1" cy="69.4" r="0.6"/><circle cx="1419.4" cy="1066.4" r="0.6"/><circle cx="816.7" cy="133.4" r="1"/><circle cx="100.8" cy="644.1" r="0.8"/><circle cx="64" cy="860.3" r="1.3"/><circle cx="1111.6" cy="1256.8" r="0.5"/><circle cx="613.5" cy="113.8" r="1"/><circle cx="1267.4" cy="482.8" r="1"/><circle cx="220.8" cy="1274.1" r="1.3"/><circle cx="22.8" cy="838.3" r="1.2"/><circle cx="764.1" cy="104.8" r="1.1"/><circle cx="86.7" cy="289.6" r="1.1"/><circle cx="1131.1" cy="943.7" r="0.4"/><circle cx="951.9" cy="35.2" r="0.9"/><circle cx="1376.3" cy="1080.4" r="0.7"/><circle cx="1387.8" cy="226.1" r="1"/><circle cx="1138.1" cy="51.3" r="0.6"/><circle cx="799.2" cy="1299" r="0.5"/><circle cx="686.9" cy="1167.8" r="0.6"/><circle cx="1241.8" cy="969.2" r="1.1"/><circle cx="219.3" cy="366.9" r="1.1"/><circle cx="168.4" cy="707.6" r="0.5"/><circle cx="1200.6" cy="836.8" r="0.5"/><circle cx="1313.1" cy="849.5" r="1"/><circle cx="114.8" cy="1077.8" r="1"/><circle cx="571.8" cy="99.6" r="1.1"/><circle cx="328" cy="1028.4" r="0.9"/><circle cx="1315.9" cy="734.9" r="0.7"/><circle cx="1029.4" cy="1269.7" r="0.6"/><circle cx="833.6" cy="1158.5" r="0.9"/><circle cx="351.5" cy="243" r="1"/><circle cx="852.3" cy="102" r="0.5"/><circle cx="2.8" cy="343.9" r="0.9"/><circle cx="169.8" cy="53" r="1"/><circle cx="1262.9" cy="420" r="1.2"/><circle cx="1278.3" cy="1242.1" r="0.7"/><circle cx="95.3" cy="1015.7" r="0.6"/><circle cx="86" cy="943.1" r="1"/><circle cx="998.2" cy="142.1" r="1"/><circle cx="532.4" cy="1086.4" r="1"/><circle cx="1238.1" cy="66.1" r="1.1"/><circle cx="279" cy="421.4" r="1"/><circle cx="159.1" cy="562" r="1"/><circle cx="12.1" cy="442.8" r="1.2"/><circle cx="1347.3" cy="163.6" r="1.2"/><circle cx="1365.6" cy="823.2" r="0.6"/><circle cx="816.8" cy="129.5" r="0.8"/><circle cx="210" cy="884.8" r="0.7"/><circle cx="1263" cy="1078.9" r="0.5"/><circle cx="402.3" cy="1077.3" r="0.5"/><circle cx="1198.9" cy="1232.9" r="0.9"/><circle cx="1086.9" cy="1238" r="1.2"/><circle cx="120.1" cy="1185.7" r="0.7"/><circle cx="233.9" cy="435.2" r="0.4"/><circle cx="1359.5" cy="182.2" r="0.4"/><circle cx="1425.3" cy="401.4" r="1"/><circle cx="1376.2" cy="954.3" r="0.7"/><circle cx="1230.3" cy="1004.9" r="1.2"/><circle cx="1340.3" cy="602.9" r="0.7"/><circle cx="773.7" cy="98.6" r="1.3"/><circle cx="270.2" cy="762" r="0.7"/><circle cx="75.1" cy="304.3" r="0.8"/><circle cx="68" cy="123.9" r="0.9"/><circle cx="600.5" cy="70.9" r="0.7"/><circle cx="335" cy="1118.2" r="1.2"/><circle cx="1304.7" cy="1168.1" r="0.8"/><circle cx="332.4" cy="1202.8" r="0.6"/><circle cx="148" cy="953.8" r="0.8"/><circle cx="1161.1" cy="144.1" r="0.6"/><circle cx="1012.2" cy="120.8" r="0.8"/><circle cx="1057.8" cy="181.8" r="0.8"/><circle cx="1041.7" cy="268.6" r="0.7"/><circle cx="711.6" cy="143" r="1.2"/><circle cx="650.5" cy="173.3" r="0.9"/><circle cx="651.3" cy="3.3" r="0.7"/><circle cx="191.7" cy="518.3" r="0.7"/><circle cx="1407.7" cy="60.3" r="0.7"/><circle cx="40.2" cy="495.8" r="0.7"/><circle cx="478.5" cy="244.7" r="0.7"/><circle cx="1241.8" cy="1178.3" r="0.9"/><circle cx="1415.9" cy="29" r="0.9"/><circle cx="1382.7" cy="775.5" r="0.5"/><circle cx="160.7" cy="773.9" r="0.4"/><circle cx="692.2" cy="1296.7" r="0.8"/><circle cx="506.7" cy="115.7" r="0.8"/><circle cx="869.1" cy="1135.5" r="0.8"/><circle cx="626.4" cy="137.9" r="1.1"/><circle cx="273.8" cy="871.2" r="0.5"/><circle cx="1353.1" cy="1299.1" r="1.3"/><circle cx="101" cy="945.4" r="0.7"/><circle cx="1290.2" cy="952.9" r="1.1"/><circle cx="1388.6" cy="1098.9" r="0.5"/><circle cx="1291.8" cy="1144.7" r="0.6"/><circle cx="1318.2" cy="83.8" r="1.1"/><circle cx="1296.9" cy="584.8" r="0.6"/><circle cx="370.7" cy="310.4" r="1.2"/><circle cx="1126.7" cy="337" r="1.1"/><circle cx="1216.9" cy="343.2" r="1.2"/><circle cx="914.3" cy="84.1" r="0.8"/><circle cx="1412" cy="586.7" r="0.9"/><circle cx="1340.6" cy="8.1" r="0.7"/><circle cx="1346.5" cy="853.4" r="1.2"/><circle cx="99.3" cy="1032" r="0.6"/><circle cx="340.4" cy="913" r="0.7"/><circle cx="1238.5" cy="795.1" r="0.6"/><circle cx="307.5" cy="965.2" r="0.5"/><circle cx="303.1" cy="32.2" r="1.3"/><circle cx="1220.6" cy="931" r="1.1"/><circle cx="1357.8" cy="1248.3" r="1"/><circle cx="1090.2" cy="68.1" r="0.6"/><circle cx="51.5" cy="1164.2" r="1.2"/><circle cx="60.9" cy="941.9" r="1"/><circle cx="267" cy="556.9" r="1.2"/><circle cx="1384.9" cy="393.5" r="0.6"/><circle cx="358.5" cy="329.2" r="0.9"/><circle cx="179.1" cy="238.1" r="0.8"/><circle cx="11.6" cy="504.2" r="1.2"/><circle cx="1432.7" cy="667.4" r="0.6"/><circle cx="1090.3" cy="184.5" r="0.8"/><circle cx="81.3" cy="276.4" r="0.7"/><circle cx="898.9" cy="1159.1" r="0.5"/><circle cx="1418.7" cy="413.8" r="0.7"/><circle cx="46.6" cy="390.4" r="0.4"/><circle cx="1434" cy="1155.8" r="1"/><circle cx="110.2" cy="971.5" r="1"/><circle cx="113.8" cy="775.3" r="0.9"/><circle cx="1362.6" cy="562.8" r="1.3"/><circle cx="109.4" cy="630.2" r="0.8"/><circle cx="875.6" cy="1139.5" r="0.9"/><circle cx="996.8" cy="1108.1" r="1.3"/><circle cx="177.8" cy="1075.7" r="0.8"/><circle cx="1063.8" cy="1050.4" r="0.5"/><circle cx="78.1" cy="1163.7" r="0.9"/><circle cx="1224.6" cy="167.4" r="0.9"/><circle cx="835.8" cy="128.3" r="1"/><circle cx="231.6" cy="900.2" r="0.9"/><circle cx="1171.9" cy="4.8" r="0.5"/><circle cx="745.4" cy="1190.8" r="0.6"/><circle cx="1185.6" cy="900.8" r="0.8"/><circle cx="1260.7" cy="75.8" r="0.9"/><circle cx="1302.1" cy="358.3" r="1"/><circle cx="1137.8" cy="1088.6" r="0.5"/><circle cx="1178.7" cy="17" r="0.8"/><circle cx="1308.9" cy="45.9" r="0.6"/><circle cx="1437" cy="387.6" r="0.8"/><circle cx="147.7" cy="734.6" r="0.9"/><circle cx="186.3" cy="286.9" r="0.4"/><circle cx="830.6" cy="17.3" r="0.4"/><circle cx="1318.1" cy="938.5" r="0.5"/><circle cx="1344.9" cy="82.6" r="0.9"/><circle cx="600.5" cy="1142.5" r="0.5"/><circle cx="266.4" cy="939.2" r="1.1"/><circle cx="422.9" cy="1287.8" r="1"/><circle cx="1095.6" cy="53.1" r="1.1"/><circle cx="820.8" cy="107.7" r="0.5"/><circle cx="391.9" cy="1294.4" r="0.7"/><circle cx="25.8" cy="67.5" r="0.9"/><circle cx="261" cy="536.6" r="0.4"/><circle cx="1427" cy="1150.6" r="1"/><circle cx="952.9" cy="1274.9" r="0.8"/><circle cx="486.7" cy="96.1" r="1.1"/><circle cx="890.7" cy="1287.1" r="0.6"/><circle cx="471.2" cy="205.8" r="1"/><circle cx="560.5" cy="82.7" r="0.7"/><circle cx="822.5" cy="71.4" r="1"/><circle cx="1335.6" cy="766" r="1.1"/><circle cx="82" cy="65.7" r="1.1"/><circle cx="1174.6" cy="222.6" r="0.6"/><circle cx="363.9" cy="1139.4" r="1.1"/><circle cx="1233" cy="327.7" r="0.6"/><circle cx="885" cy="1299.9" r="0.6"/><circle cx="705.8" cy="23.6" r="0.6"/><circle cx="1210.9" cy="1223.8" r="0.6"/><circle cx="431.4" cy="128.5" r="1"/><circle cx="1173.5" cy="115.7" r="0.6"/><circle cx="1239.2" cy="1188.1" r="1.2"/><circle cx="1316.8" cy="253.3" r="0.6"/><circle cx="460.7" cy="139.7" r="0.9"/><circle cx="529.6" cy="120.5" r="1.1"/><circle cx="1290.2" cy="1229.2" r="0.7"/><circle cx="1250.3" cy="1017.1" r="0.9"/><circle cx="616.6" cy="32.8" r="0.8"/><circle cx="1463.3" cy="365.5" r="1.3"/><circle cx="1225.9" cy="1027.6" r="1.2"/><circle cx="105.5" cy="99.6" r="1.1"/><circle cx="184.6" cy="477.1" r="0.4"/><circle cx="1368.4" cy="1100.7" r="1.3"/><circle cx="1418.4" cy="657" r="0.7"/><circle cx="369.8" cy="1208.5" r="0.9"/><circle cx="178.5" cy="407.2" r="0.6"/><circle cx="201" cy="770.6" r="0.4"/><circle cx="867" cy="151.5" r="1"/><circle cx="1216.4" cy="780.6" r="0.8"/><circle cx="38.9" cy="103.4" r="1.1"/><circle cx="1221.8" cy="72.9" r="0.7"/><circle cx="307.7" cy="1249.7" r="0.8"/><circle cx="1040" cy="113" r="0.8"/><circle cx="118.8" cy="747.3" r="1.1"/><circle cx="78.9" cy="854.8" r="1.1"/><circle cx="1457" cy="424.3" r="1.1"/><circle cx="594.8" cy="106" r="1"/><circle cx="1403.6" cy="1293.3" r="0.8"/><circle cx="441.8" cy="115.4" r="1.1"/><circle cx="1432.2" cy="322" r="0.5"/><circle cx="166.3" cy="192.2" r="1.2"/><circle cx="286" cy="410.1" r="0.9"/><circle cx="30.2" cy="822.4" r="1"/><circle cx="11.7" cy="146.7" r="0.9"/><circle cx="1366.7" cy="612.5" r="0.5"/><circle cx="167.8" cy="189.6" r="0.6"/><circle cx="67.9" cy="948" r="1.1"/><circle cx="875.6" cy="119.7" r="1"/><circle cx="41.8" cy="69.2" r="1.3"/><circle cx="1350" cy="914.5" r="1.2"/><circle cx="213.1" cy="184.3" r="1.2"/><circle cx="373.9" cy="337.2" r="0.5"/><circle cx="692.1" cy="1206.8" r="1.2"/><circle cx="228.9" cy="706.1" r="0.7"/><circle cx="1213.3" cy="1051.2" r="1.1"/><circle cx="23" cy="216.2" r="0.6"/><circle cx="630.9" cy="0.9" r="0.5"/><circle cx="75.6" cy="628.2" r="1"/><circle cx="1147.6" cy="1132.5" r="0.4"/><circle cx="736.1" cy="125.7" r="0.6"/><circle cx="1226.8" cy="684.9" r="0.6"/><circle cx="573.7" cy="1191.2" r="1.2"/><circle cx="184.5" cy="1035.7" r="0.6"/><circle cx="1204.9" cy="479.4" r="0.8"/><circle cx="292.8" cy="1209.5" r="0.6"/><circle cx="436.9" cy="115.9" r="0.9"/><circle cx="98.2" cy="1003.9" r="0.5"/><circle cx="1296.2" cy="774.2" r="0.8"/><circle cx="1266.5" cy="1130.5" r="0.6"/><circle cx="612.9" cy="166.8" r="0.5"/><circle cx="1327.2" cy="1043.8" r="0.7"/><circle cx="1339.1" cy="731.8" r="1"/><circle cx="1326.7" cy="1137.3" r="0.4"/><circle cx="1058.6" cy="32.9" r="0.7"/><circle cx="221.8" cy="1098.6" r="0.5"/><circle cx="1390.2" cy="86.1" r="0.5"/><circle cx="1311.7" cy="424.6" r="1.1"/><circle cx="1259" cy="1122" r="0.9"/><circle cx="226.9" cy="1207.7" r="0.6"/><circle cx="1423.7" cy="728.1" r="1.2"/><circle cx="53.4" cy="1278.5" r="0.7"/><circle cx="870.1" cy="7.9" r="0.4"/><circle cx="273.9" cy="33.7" r="1"/><circle cx="29.9" cy="899.6" r="0.9"/><circle cx="94.5" cy="616.2" r="0.5"/><circle cx="1006.9" cy="118.1" r="1.2"/><circle cx="727.3" cy="148.7" r="1.3"/><circle cx="1215.5" cy="1096.5" r="0.8"/><circle cx="1353.1" cy="71.2" r="1.1"/><circle cx="992.7" cy="1073.2" r="0.9"/><circle cx="286" cy="1273.7" r="0.6"/><circle cx="1223.1" cy="589.4" r="1.2"/><circle cx="1262.6" cy="997.2" r="1.1"/><circle cx="655.3" cy="1227.3" r="0.6"/><circle cx="268.9" cy="61" r="0.8"/><circle cx="154.7" cy="608" r="0.4"/><circle cx="1330.4" cy="38.6" r="0.6"/><circle cx="95.8" cy="799.7" r="0.8"/><circle cx="1234.4" cy="66.9" r="0.7"/><circle cx="623.2" cy="1230.7" r="1.1"/><circle cx="1252" cy="93.2" r="0.6"/><circle cx="999.6" cy="136.4" r="1"/><circle cx="697" cy="52" r="0.8"/><circle cx="996.1" cy="159.2" r="1.3"/><circle cx="210.7" cy="919.5" r="1"/><circle cx="178.9" cy="237.9" r="0.9"/><circle cx="1103.1" cy="32.1" r="0.7"/><circle cx="80.7" cy="199.5" r="0.4"/><circle cx="1257.6" cy="663" r="0.7"/><circle cx="1178.8" cy="120.7" r="1.3"/><circle cx="416.3" cy="54.9" r="1.2"/><circle cx="488.4" cy="41.8" r="1.1"/><circle cx="80.6" cy="336.9" r="1.2"/><circle cx="1339.9" cy="513" r="0.8"/><circle cx="241.3" cy="152.9" r="1.1"/><circle cx="1156.2" cy="1121" r="1.1"/><circle cx="423.4" cy="223.4" r="0.8"/><circle cx="142.4" cy="1230.6" r="1.2"/><circle cx="944.2" cy="1120.4" r="0.6"/><circle cx="1074.3" cy="290.4" r="0.8"/><circle cx="829.4" cy="1141.8" r="0.5"/><circle cx="167.1" cy="1008" r="0.6"/><circle cx="383.5" cy="267" r="0.5"/><circle cx="1417.2" cy="990.8" r="0.6"/><circle cx="1354.8" cy="399.6" r="0.7"/><circle cx="888.5" cy="43.7" r="1"/><circle cx="558.8" cy="1168" r="0.4"/><circle cx="1222.3" cy="414.9" r="0.9"/><circle cx="130" cy="54.2" r="1.3"/><circle cx="1265.6" cy="699.1" r="0.4"/><circle cx="1439" cy="1196.9" r="0.6"/><circle cx="1337.9" cy="897.5" r="0.6"/><circle cx="698.2" cy="1136.3" r="0.5"/><circle cx="490.6" cy="1302.5" r="0.5"/><circle cx="571.9" cy="105.6" r="0.4"/><circle cx="638.2" cy="1166.5" r="0.5"/><circle cx="1171.6" cy="1276.3" r="0.9"/><circle cx="1215.2" cy="781.3" r="0.5"/><circle cx="716" cy="1136.7" r="0.8"/><circle cx="497.7" cy="231.2" r="1"/><circle cx="1360.3" cy="1182" r="0.8"/><circle cx="96.2" cy="481.1" r="1.1"/><circle cx="933.6" cy="85.2" r="0.8"/><circle cx="1267.5" cy="261.4" r="1.2"/><circle cx="1184.6" cy="963.8" r="1.2"/><circle cx="1215.9" cy="518.3" r="0.5"/><circle cx="1199.1" cy="137" r="1.3"/><circle cx="1460.6" cy="352" r="0.7"/><circle cx="1409.3" cy="696.9" r="1.1"/><circle cx="285.9" cy="806.7" r="0.6"/><circle cx="48.1" cy="890.3" r="0.7"/><circle cx="272.1" cy="142.7" r="0.6"/><circle cx="1202.7" cy="1117.3" r="1"/><circle cx="1364.7" cy="896.2" r="0.9"/><circle cx="1255.5" cy="1026.4" r="0.4"/><circle cx="1312.7" cy="513.7" r="0.9"/><circle cx="83.2" cy="671.1" r="0.8"/><circle cx="936" cy="1137.2" r="0.4"/><circle cx="1315.5" cy="1292.1" r="0.5"/><circle cx="1483.3" cy="593.9" r="0.6"/><circle cx="1108.5" cy="288.6" r="0.5"/><circle cx="56.6" cy="1125" r="1.2"/><circle cx="826.8" cy="33.5" r="0.7"/><circle cx="148" cy="1022" r="0.5"/><circle cx="1252.4" cy="1232.3" r="0.8"/><circle cx="902.4" cy="123.1" r="0.7"/><circle cx="108.5" cy="863.3" r="1.2"/><circle cx="27.5" cy="879.3" r="0.7"/><circle cx="325.6" cy="1140.6" r="0.6"/><circle cx="115.4" cy="638.5" r="0.7"/><circle cx="267.6" cy="24.7" r="0.8"/><circle cx="1286.4" cy="725.8" r="1.1"/><circle cx="996.7" cy="157.4" r="0.5"/><circle cx="389.7" cy="1133.7" r="1.2"/><circle cx="195.3" cy="588.2" r="1.1"/><circle cx="1199.3" cy="136.4" r="0.7"/><circle cx="740.6" cy="46.1" r="1.2"/><circle cx="1451.8" cy="304.7" r="0.9"/><circle cx="1295.7" cy="709.7" r="0.8"/><circle cx="1139.9" cy="1068.1" r="0.5"/><circle cx="1438.1" cy="302.5" r="0.7"/><circle cx="1189.2" cy="841.8" r="0.4"/><circle cx="118.7" cy="1095.6" r="0.5"/><circle cx="142.9" cy="234" r="0.5"/><circle cx="1110.6" cy="127" r="1.2"/><circle cx="446.5" cy="1161" r="0.4"/><circle cx="820.5" cy="51.7" r="1.3"/><circle cx="1204.4" cy="818.2" r="1"/><circle cx="474.7" cy="218.1" r="0.9"/><circle cx="448.6" cy="168.5" r="0.6"/><circle cx="276.8" cy="969.6" r="1.2"/><circle cx="561.5" cy="126.4" r="0.8"/><circle cx="20.5" cy="879.3" r="0.6"/><circle cx="1405.1" cy="406.6" r="1.3"/><circle cx="551.8" cy="48.9" r="0.5"/><circle cx="1369" cy="862.2" r="1"/><circle cx="671.7" cy="159" r="0.9"/><circle cx="164" cy="1001.8" r="1"/><circle cx="1099.4" cy="1052.2" r="1.2"/><circle cx="1304.7" cy="702.5" r="0.6"/><circle cx="73.4" cy="811.7" r="1.1"/><circle cx="281.1" cy="997.2" r="0.7"/><circle cx="251.3" cy="693.7" r="1.1"/><circle cx="297.3" cy="397.5" r="1.2"/><circle cx="1307.5" cy="697.8" r="0.5"/><circle cx="1398.9" cy="967.6" r="0.6"/><circle cx="1397.7" cy="1018.2" r="0.6"/><circle cx="1270.4" cy="1107.3" r="0.6"/><circle cx="481.3" cy="239.5" r="1"/><circle cx="232.4" cy="1148.2" r="0.7"/><circle cx="1128.2" cy="1260.7" r="0.7"/><circle cx="1210.6" cy="1251.6" r="1.3"/><circle cx="249.1" cy="1221.6" r="1"/><circle cx="130.6" cy="318.3" r="0.8"/><circle cx="1.3" cy="883.2" r="0.6"/><circle cx="505.5" cy="195.6" r="1"/><circle cx="212.4" cy="597.7" r="0.8"/><circle cx="1423.3" cy="393.3" r="0.5"/><circle cx="1348.2" cy="974.8" r="1.2"/><circle cx="248.8" cy="1075.8" r="0.4"/><circle cx="723.5" cy="36.8" r="0.6"/><circle cx="44.6" cy="919.5" r="1.2"/><circle cx="55.7" cy="476" r="1.1"/><circle cx="380.6" cy="81.5" r="0.5"/><circle cx="1391.2" cy="404.3" r="0.6"/><circle cx="975" cy="31.3" r="0.5"/><circle cx="1141" cy="97.5" r="1.1"/><circle cx="1244.4" cy="898.8" r="0.7"/><circle cx="283.4" cy="447.9" r="0.6"/><circle cx="45.5" cy="81.3" r="0.7"/><circle cx="209.7" cy="737.8" r="1.2"/><circle cx="1398.4" cy="283.9" r="0.8"/><circle cx="15.3" cy="613.4" r="1.2"/><circle cx="1314.9" cy="453.3" r="1.1"/><circle cx="1477.1" cy="967.3" r="0.6"/><circle cx="100.9" cy="1192" r="1.2"/><circle cx="732.7" cy="1294.4" r="0.5"/><circle cx="1305.8" cy="223.1" r="0.9"/><circle cx="1447.6" cy="1060.5" r="0.8"/><circle cx="1396.2" cy="989.8" r="0.5"/><circle cx="1293.5" cy="199.8" r="1.1"/><circle cx="247" cy="1253.1" r="1.3"/><circle cx="1321.8" cy="544.8" r="0.9"/><circle cx="538.9" cy="194.1" r="0.8"/><circle cx="171.5" cy="1122.4" r="1.2"/><circle cx="97.4" cy="795.4" r="0.9"/><circle cx="141.5" cy="438.9" r="1.2"/><circle cx="1288.5" cy="1200.3" r="0.5"/><circle cx="317" cy="281.9" r="1.3"/><circle cx="32.2" cy="519.5" r="0.4"/><circle cx="607.7" cy="55" r="0.8"/><circle cx="155" cy="1250.4" r="1.3"/><circle cx="44.6" cy="117.8" r="0.7"/><circle cx="217" cy="414.7" r="0.5"/><circle cx="135.3" cy="56.6" r="0.9"/><circle cx="1118.4" cy="1293.5" r="1"/><circle cx="1366.7" cy="1061.6" r="1.1"/><circle cx="743.6" cy="1301.9" r="0.9"/><circle cx="1238.2" cy="1011" r="1"/><circle cx="167.2" cy="155.4" r="0.6"/><circle cx="83.1" cy="1099.5" r="0.9"/><circle cx="391.5" cy="245.9" r="1.1"/><circle cx="193" cy="1183.6" r="1.2"/><circle cx="354.3" cy="1052.1" r="1.1"/><circle cx="577.8" cy="1200.6" r="1.3"/><circle cx="75.2" cy="451.7" r="0.9"/><circle cx="898.2" cy="1190.3" r="0.8"/><circle cx="713.8" cy="1301.3" r="0.7"/><circle cx="235.9" cy="943.2" r="0.5"/><circle cx="1425.6" cy="461.3" r="0.7"/><circle cx="1340.1" cy="1124.8" r="0.6"/><circle cx="253.1" cy="773.6" r="1"/><circle cx="946.1" cy="107.6" r="0.9"/><circle cx="164.5" cy="573.2" r="1.1"/><circle cx="152.5" cy="1022.8" r="0.7"/><circle cx="669.9" cy="1295.2" r="1.1"/><circle cx="449.1" cy="185.3" r="1.1"/><circle cx="1317" cy="1284.1" r="0.8"/><circle cx="30.7" cy="14.1" r="0.9"/><circle cx="1153.8" cy="1230.6" r="1.2"/><circle cx="1460.9" cy="1250.5" r="1.1"/><circle cx="488.1" cy="1163.1" r="1"/><circle cx="1412.3" cy="1187.6" r="0.5"/><circle cx="1276.1" cy="907.2" r="0.9"/><circle cx="620.9" cy="48.3" r="0.6"/><circle cx="879.3" cy="1247.3" r="0.7"/><circle cx="1318.4" cy="1300.2" r="1.2"/><circle cx="13.1" cy="1237.7" r="1.2"/><circle cx="1369.3" cy="263.8" r="1.2"/><circle cx="935.3" cy="1106.8" r="1.1"/><circle cx="763.4" cy="69.9" r="0.8"/><circle cx="259" cy="58.7" r="0.8"/><circle cx="211.7" cy="1138.7" r="0.8"/><circle cx="222.4" cy="1104.4" r="1.2"/><circle cx="1198.2" cy="1230" r="0.7"/><circle cx="149.6" cy="339.2" r="0.5"/><circle cx="1303.1" cy="1261.8" r="0.7"/><circle cx="68.9" cy="641.7" r="0.8"/><circle cx="1184.8" cy="988.7" r="0.8"/><circle cx="25.7" cy="133.3" r="0.4"/><circle cx="435.3" cy="1175.3" r="0.4"/><circle cx="1416.8" cy="83.1" r="0.8"/><circle cx="459.6" cy="1291.5" r="1.1"/><circle cx="246.9" cy="380.5" r="0.8"/><circle cx="234.7" cy="1212" r="0.7"/><circle cx="141.9" cy="624.7" r="1"/><circle cx="815.9" cy="1208.2" r="1"/><circle cx="1371.3" cy="464.2" r="0.7"/><circle cx="1338.4" cy="422.1" r="0.9"/><circle cx="106.5" cy="51.4" r="0.7"/><circle cx="1370.3" cy="824.5" r="1.2"/><circle cx="89.2" cy="808" r="1.2"/><circle cx="236.3" cy="124.4" r="1.3"/><circle cx="1363.9" cy="367.4" r="1.3"/><circle cx="256.1" cy="6.5" r="0.7"/><circle cx="1360.8" cy="1166.3" r="1"/><circle cx="1276.1" cy="171.2" r="1.1"/><circle cx="1387.4" cy="29.8" r="0.8"/><circle cx="781.5" cy="69.1" r="1"/><circle cx="963.3" cy="220.6" r="1"/><circle cx="189.6" cy="1157.1" r="0.5"/><circle cx="32.2" cy="843.6" r="0.6"/><circle cx="1360.5" cy="967.9" r="0.7"/><circle cx="292.8" cy="417.9" r="0.6"/><circle cx="229" cy="124.1" r="1.1"/><circle cx="255.2" cy="564.2" r="1.2"/><circle cx="136.4" cy="464.9" r="1.3"/><circle cx="1342.2" cy="161.1" r="0.5"/><circle cx="1297.7" cy="260.2" r="0.7"/><circle cx="535.8" cy="1217.6" r="0.5"/><circle cx="1262.6" cy="958.5" r="0.8"/><circle cx="236.6" cy="827.7" r="1.2"/><circle cx="298.8" cy="336" r="0.5"/><circle cx="504.1" cy="1286.3" r="0.9"/><circle cx="9.9" cy="1051.6" r="1.1"/><circle cx="153.4" cy="189.1" r="0.4"/><circle cx="233.4" cy="981.9" r="1.3"/><circle cx="1235.1" cy="341.2" r="0.8"/><circle cx="681.4" cy="73.6" r="0.5"/><circle cx="244.7" cy="820.6" r="0.8"/><circle cx="344.7" cy="1169.6" r="1.2"/><circle cx="423.2" cy="1094.7" r="0.7"/><circle cx="512.3" cy="159.3" r="0.9"/><circle cx="1128" cy="93.8" r="0.7"/><circle cx="606" cy="1255" r="1"/><circle cx="204.9" cy="199.3" r="1.1"/><circle cx="533.7" cy="158.8" r="1"/><circle cx="1344.2" cy="537.4" r="1.2"/><circle cx="1002.1" cy="1203.1" r="0.9"/><circle cx="1409.1" cy="78.5" r="1.1"/><circle cx="682.9" cy="1279.1" r="1.1"/><circle cx="246.2" cy="1133.8" r="0.9"/><circle cx="1122.2" cy="263.5" r="0.8"/><circle cx="77.7" cy="32.3" r="1"/><circle cx="1176.6" cy="1232.4" r="0.7"/><circle cx="1235.1" cy="1043.6" r="0.5"/><circle cx="165.5" cy="1294.6" r="0.5"/><circle cx="1220.2" cy="177.6" r="1"/><circle cx="1348.2" cy="445" r="0.6"/><circle cx="1296.8" cy="1227.2" r="0.6"/><circle cx="1342.9" cy="373" r="0.7"/><circle cx="690.1" cy="1179" r="0.4"/><circle cx="1085.2" cy="1097.5" r="0.5"/><circle cx="109.3" cy="835.3" r="0.7"/><circle cx="442.4" cy="1214.4" r="0.5"/><circle cx="1306.3" cy="247.2" r="0.9"/><circle cx="251" cy="49.9" r="0.5"/><circle cx="1332.9" cy="756.6" r="0.6"/><circle cx="967.2" cy="69.9" r="0.6"/><circle cx="589.6" cy="1211.7" r="1.3"/><circle cx="293.3" cy="893.1" r="0.7"/><circle cx="1357.9" cy="715.8" r="1.2"/><circle cx="329.1" cy="21.4" r="1.2"/><circle cx="827.1" cy="174.4" r="1"/><circle cx="1410.2" cy="201.7" r="0.5"/><circle cx="829.6" cy="98.7" r="1.3"/><circle cx="1288.3" cy="586.8" r="1"/><circle cx="149.2" cy="574" r="0.8"/><circle cx="323.6" cy="171.2" r="1.2"/><circle cx="1371.8" cy="1090.6" r="0.8"/><circle cx="878.6" cy="20.6" r="1.2"/><circle cx="354.4" cy="287" r="0.6"/><circle cx="1249.9" cy="714.7" r="0.7"/><circle cx="1302.8" cy="523.6" r="0.9"/><circle cx="1273.9" cy="1119.4" r="1.2"/><circle cx="1283.9" cy="926.6" r="0.7"/><circle cx="1266.5" cy="1303.8" r="0.7"/><circle cx="125.2" cy="490.9" r="1.2"/><circle cx="69.6" cy="367.3" r="0.5"/><circle cx="1337.8" cy="1122.1" r="1.1"/><circle cx="739.5" cy="1263.9" r="1"/><circle cx="982.7" cy="201.3" r="0.8"/><circle cx="1194.4" cy="443.9" r="0.6"/><circle cx="755.3" cy="1198.1" r="1.1"/><circle cx="1117.7" cy="1004.9" r="0.4"/><circle cx="922.2" cy="1232.1" r="0.9"/><circle cx="285.2" cy="343.2" r="1.1"/><circle cx="910.1" cy="101.9" r="1"/><circle cx="142.7" cy="501.1" r="0.6"/><circle cx="1189.2" cy="83.8" r="0.9"/><circle cx="413.7" cy="0.2" r="1.2"/><circle cx="670.1" cy="1284.8" r="1.1"/><circle cx="1441.7" cy="991.9" r="0.4"/><circle cx="77.2" cy="294.4" r="1.1"/><circle cx="425.9" cy="1282.6" r="1.2"/><circle cx="1472.1" cy="1242" r="1.2"/><circle cx="1201.6" cy="305.6" r="0.6"/><circle cx="1388.3" cy="277.7" r="1"/><circle cx="775.2" cy="1162.5" r="0.8"/><circle cx="558" cy="123.1" r="1.1"/><circle cx="1357.7" cy="473.4" r="1.3"/><circle cx="196.1" cy="506" r="0.7"/><circle cx="948.8" cy="1102.4" r="0.5"/><circle cx="450.5" cy="140.2" r="1.1"/><circle cx="101.1" cy="437" r="0.5"/><circle cx="152.3" cy="1196.5" r="0.4"/><circle cx="439.2" cy="26.7" r="1.3"/><circle cx="49.3" cy="599.6" r="1"/><circle cx="212.4" cy="445.7" r="1.2"/><circle cx="1128.6" cy="1052.1" r="0.8"/><circle cx="1363.8" cy="295.8" r="0.9"/><circle cx="72.3" cy="634.5" r="0.7"/><circle cx="70.5" cy="870.2" r="0.6"/><circle cx="1182.1" cy="1303.2" r="1.1"/><circle cx="209.3" cy="9.2" r="0.6"/><circle cx="489" cy="188.6" r="1.2"/><circle cx="219.9" cy="487.3" r="1.3"/><circle cx="70.2" cy="108" r="1.2"/><circle cx="1437.4" cy="615.1" r="0.9"/><circle cx="104.7" cy="416.5" r="1"/><circle cx="1189.4" cy="1299.9" r="1"/><circle cx="410.8" cy="184.7" r="1.1"/><circle cx="242.6" cy="411.4" r="1.1"/><circle cx="384" cy="160.8" r="0.6"/><circle cx="1307.6" cy="949.7" r="1"/><circle cx="861.7" cy="133.5" r="0.8"/><circle cx="1201.6" cy="880.1" r="1.1"/><circle cx="360.7" cy="354.1" r="1"/><circle cx="1226.9" cy="314.3" r="0.5"/><circle cx="1400" cy="109.6" r="1"/><circle cx="247.8" cy="1118.2" r="0.8"/><circle cx="805" cy="129.3" r="0.9"/><circle cx="1401.9" cy="3.3" r="0.8"/><circle cx="61.3" cy="1059.7" r="0.7"/><circle cx="67.8" cy="296.5" r="0.7"/><circle cx="1424.9" cy="1233.5" r="0.5"/><circle cx="1343.4" cy="900.8" r="0.8"/><circle cx="1403.9" cy="1187.4" r="1"/><circle cx="1334" cy="854.6" r="0.9"/><circle cx="1276.8" cy="664.1" r="1.2"/><circle cx="12.5" cy="472.8" r="0.8"/><circle cx="496.2" cy="154.2" r="0.7"/><circle cx="272.9" cy="285.6" r="1.1"/><circle cx="1275.3" cy="946.3" r="0.7"/><circle cx="740.7" cy="154.5" r="1.3"/><circle cx="638.8" cy="27.3" r="0.8"/><circle cx="910.3" cy="1222.9" r="0.9"/><circle cx="1071.6" cy="1266.6" r="0.8"/><circle cx="93.6" cy="428.3" r="0.4"/><circle cx="817.1" cy="154.3" r="0.4"/><circle cx="329.6" cy="114.2" r="0.7"/><circle cx="1450.2" cy="287" r="0.9"/><circle cx="1327.8" cy="1176.3" r="0.7"/><circle cx="1467" cy="353.6" r="0.9"/><circle cx="193.6" cy="938.9" r="0.7"/><circle cx="951.6" cy="1145.9" r="0.9"/><circle cx="26.3" cy="940.9" r="0.5"/><circle cx="487.4" cy="158.3" r="1.2"/><circle cx="1147.1" cy="152.8" r="1"/><circle cx="1285" cy="329.2" r="0.6"/><circle cx="1146.1" cy="949.7" r="1.2"/><circle cx="1437.4" cy="443.7" r="0.6"/><circle cx="1370.6" cy="247.7" r="0.9"/><circle cx="1081.6" cy="1207.3" r="1.2"/><circle cx="1335.3" cy="419.3" r="1.1"/><circle cx="1405.6" cy="439" r="1"/><circle cx="313.6" cy="345.4" r="0.9"/><circle cx="181.7" cy="402.8" r="1.2"/><circle cx="267.4" cy="1082.6" r="1"/><circle cx="1329.9" cy="922.8" r="1.2"/><circle cx="110.8" cy="202.1" r="1.1"/><circle cx="1211.3" cy="1095.3" r="0.9"/><circle cx="1207.5" cy="94.9" r="0.6"/><circle cx="136.6" cy="835" r="1.2"/><circle cx="345.7" cy="1034.7" r="0.7"/><circle cx="68" cy="531.6" r="1.2"/><circle cx="916.5" cy="1293.1" r="0.7"/><circle cx="813.8" cy="1157.1" r="1.2"/><circle cx="412.7" cy="203.1" r="0.5"/><circle cx="13.5" cy="109" r="0.7"/><circle cx="306.9" cy="1096.9" r="1.2"/><circle cx="1238.7" cy="76.8" r="1.2"/><circle cx="267.1" cy="104.5" r="1.1"/><circle cx="213.1" cy="1034.4" r="0.8"/><circle cx="1342.3" cy="1261.5" r="1.3"/><circle cx="1319.4" cy="391" r="0.5"/><circle cx="1459.5" cy="244.5" r="1.2"/><circle cx="1357.1" cy="1068.5" r="1.2"/><circle cx="180.3" cy="796" r="1.1"/><circle cx="35" cy="652.2" r="0.7"/><circle cx="1016.5" cy="147.1" r="1.1"/><circle cx="730.5" cy="1289" r="0.8"/><circle cx="246.6" cy="850.7" r="1.3"/><circle cx="1243" cy="356.4" r="0.8"/><circle cx="604.6" cy="49.4" r="0.7"/><circle cx="1271.3" cy="829.4" r="1.2"/><circle cx="12.4" cy="627" r="1.1"/><circle cx="163.4" cy="1083.2" r="1.2"/><circle cx="1319" cy="140.2" r="0.8"/><circle cx="364.7" cy="1139.1" r="1"/><circle cx="1319" cy="1015" r="0.8"/><circle cx="1218.6" cy="1288.7" r="1.3"/><circle cx="33.1" cy="967.5" r="0.8"/><circle cx="1368.7" cy="1250.4" r="0.8"/><circle cx="1261.7" cy="1158.8" r="1.3"/><circle cx="1365.6" cy="87.4" r="0.5"/><circle cx="90.4" cy="27.9" r="1.2"/><circle cx="518.7" cy="167.1" r="0.5"/><circle cx="1467.7" cy="212.9" r="0.9"/><circle cx="4.8" cy="1274.1" r="0.7"/><circle cx="446.9" cy="1111" r="1.1"/><circle cx="1274.3" cy="1011.4" r="1"/><circle cx="1264.5" cy="739.1" r="0.6"/><circle cx="1338.4" cy="640.9" r="0.5"/><circle cx="41.9" cy="619.9" r="0.8"/><circle cx="602.7" cy="86.4" r="1.1"/><circle cx="1421.5" cy="1166" r="1.1"/><circle cx="80.7" cy="459.5" r="0.9"/><circle cx="338.1" cy="1108.2" r="1.2"/><circle cx="191.3" cy="569.1" r="0.5"/><circle cx="1098.6" cy="1277.7" r="0.9"/><circle cx="575.5" cy="1286.5" r="1.2"/><circle cx="19" cy="730.4" r="0.4"/><circle cx="127.2" cy="1262" r="0.6"/><circle cx="531.3" cy="1177.8" r="1.2"/><circle cx="686.6" cy="1150.1" r="0.6"/><circle cx="69.6" cy="895.2" r="0.8"/><circle cx="1455.7" cy="62.8" r="1.1"/><circle cx="676" cy="1234.1" r="1.1"/><circle cx="552.6" cy="56" r="0.6"/><circle cx="1297.2" cy="862.4" r="1"/><circle cx="1354.1" cy="1143.4" r="0.5"/><circle cx="1046.7" cy="196.9" r="0.4"/><circle cx="93" cy="126.2" r="1"/><circle cx="18.7" cy="659.3" r="1.1"/><circle cx="429.5" cy="1120.3" r="1"/><circle cx="36.8" cy="1034.5" r="1.2"/><circle cx="636" cy="112.9" r="1.3"/><circle cx="1296.2" cy="182.3" r="0.6"/><circle cx="1120" cy="1293" r="0.7"/><circle cx="894.9" cy="151.7" r="1"/><circle cx="10.7" cy="1065.1" r="0.8"/><circle cx="257.9" cy="351.6" r="1"/><circle cx="438.3" cy="1245.8" r="0.8"/><circle cx="1341.7" cy="178.8" r="0.5"/><circle cx="1267.4" cy="6.5" r="1"/><circle cx="294" cy="827.2" r="0.7"/><circle cx="1155.2" cy="1044.3" r="1"/><circle cx="768.3" cy="139.8" r="0.8"/><circle cx="1040.9" cy="1196.8" r="0.8"/><circle cx="1282.7" cy="649.9" r="0.7"/><circle cx="1183.4" cy="1253.6" r="1.2"/><circle cx="251.7" cy="1180.5" r="0.8"/><circle cx="138.4" cy="1084.2" r="1.1"/><circle cx="1328.4" cy="605.5" r="1"/><circle cx="1225.4" cy="1198.5" r="1.2"/><circle cx="386.7" cy="133.6" r="0.7"/><circle cx="1238.9" cy="536.1" r="0.9"/><circle cx="217.1" cy="902.6" r="0.6"/><circle cx="1301.5" cy="938.3" r="0.6"/><circle cx="58" cy="1159.7" r="1.2"/><circle cx="148.8" cy="662.7" r="0.5"/><circle cx="1274.9" cy="908.6" r="0.7"/><circle cx="169.2" cy="206.2" r="0.6"/><circle cx="1134.9" cy="1283.7" r="1.1"/><circle cx="1272.3" cy="1255.9" r="1.1"/><circle cx="1462.3" cy="154.2" r="0.5"/><circle cx="92.4" cy="1242.7" r="0.7"/><circle cx="288.7" cy="20.4" r="0.9"/><circle cx="932.7" cy="178.4" r="0.5"/><circle cx="1274.4" cy="987.8" r="0.8"/><circle cx="40.6" cy="775.9" r="1.3"/><circle cx="67.4" cy="1288.1" r="0.7"/><circle cx="243.5" cy="763" r="1.1"/><circle cx="1162.1" cy="945.8" r="1.2"/><circle cx="1215.4" cy="1012.9" r="1.1"/><circle cx="933.4" cy="1137" r="0.4"/><circle cx="100.4" cy="157.3" r="0.4"/><circle cx="124.7" cy="859.5" r="0.9"/><circle cx="850.2" cy="1287.4" r="1.2"/><circle cx="867.3" cy="1120" r="0.8"/><circle cx="181.4" cy="131.7" r="0.6"/><circle cx="1373.3" cy="1270.4" r="0.6"/><circle cx="1351" cy="1196.8" r="0.5"/><circle cx="224.2" cy="701.1" r="0.5"/><circle cx="553.2" cy="1287.2" r="0.7"/><circle cx="812.5" cy="1185.1" r="1.1"/><circle cx="276.1" cy="150" r="0.8"/><circle cx="36.1" cy="804.1" r="0.8"/><circle cx="699.1" cy="15.8" r="0.6"/><circle cx="137.7" cy="1081.9" r="0.9"/><circle cx="1035.3" cy="1089" r="1.2"/><circle cx="59.5" cy="869.1" r="1.2"/><circle cx="239.3" cy="246.7" r="1.1"/><circle cx="83.2" cy="513.3" r="1.3"/><circle cx="924.1" cy="145.7" r="0.8"/><circle cx="855.5" cy="1188.1" r="0.5"/><circle cx="1400" cy="622.3" r="0.6"/><circle cx="224.6" cy="564.2" r="0.6"/><circle cx="1018.3" cy="137.9" r="0.7"/><circle cx="865.4" cy="1131.3" r="0.6"/><circle cx="1439" cy="131.1" r="1.1"/><circle cx="331.7" cy="1218.1" r="1.1"/><circle cx="1160.4" cy="383.8" r="0.5"/><circle cx="968" cy="1191" r="1.2"/><circle cx="1487.2" cy="1162.9" r="0.5"/><circle cx="1390.3" cy="406.2" r="1.3"/><circle cx="165.6" cy="577.9" r="1.2"/><circle cx="44" cy="1067.8" r="1.3"/><circle cx="1247.1" cy="534.4" r="0.8"/><circle cx="1310" cy="408.3" r="0.6"/><circle cx="133.5" cy="492.9" r="1.2"/><circle cx="28" cy="340.9" r="0.5"/><circle cx="566.8" cy="162.6" r="0.9"/><circle cx="1219.4" cy="533.8" r="1.2"/><circle cx="1128.7" cy="304.1" r="0.4"/><circle cx="1211.5" cy="325.1" r="1"/><circle cx="0.6" cy="1292.3" r="1.1"/><circle cx="1162.1" cy="396.7" r="0.4"/><circle cx="230.1" cy="706.8" r="0.8"/><circle cx="582.6" cy="1258.7" r="1"/><circle cx="274" cy="1154.9" r="1.3"/><circle cx="449.9" cy="98.8" r="1"/><circle cx="1250.1" cy="482.3" r="0.7"/><circle cx="1025.6" cy="1146.7" r="0.8"/><circle cx="1119.3" cy="186.3" r="0.5"/><circle cx="347" cy="95.5" r="0.8"/><circle cx="42.3" cy="697" r="0.7"/><circle cx="543" cy="124.6" r="0.6"/><circle cx="1200.2" cy="42.5" r="0.7"/><circle cx="264.9" cy="1077.4" r="1.3"/><circle cx="362.8" cy="964.1" r="0.9"/><circle cx="573.6" cy="95.9" r="1.3"/><circle cx="965.6" cy="1223.1" r="0.7"/><circle cx="249.6" cy="1149.1" r="1.2"/><circle cx="246.5" cy="833.7" r="1.2"/><circle cx="166.1" cy="183.6" r="1"/><circle cx="208.5" cy="407.8" r="0.9"/><circle cx="45.8" cy="144.6" r="0.6"/><circle cx="1457.5" cy="352.5" r="0.4"/><circle cx="1462.4" cy="831.7" r="0.9"/><circle cx="1186.2" cy="270.9" r="0.5"/><circle cx="784.6" cy="61.7" r="1.2"/><circle cx="1045.6" cy="1240.8" r="1"/><circle cx="1149.3" cy="197.9" r="0.7"/><circle cx="1252.9" cy="79" r="1.3"/><circle cx="1441.2" cy="1213.4" r="1.3"/><circle cx="1259.6" cy="847.1" r="0.6"/><circle cx="1196.8" cy="117.4" r="1.1"/><circle cx="1271.4" cy="1029.7" r="0.5"/><circle cx="715" cy="1242.2" r="1"/><circle cx="211.8" cy="332.1" r="1.2"/><circle cx="1448.1" cy="1261.6" r="1.1"/><circle cx="297.9" cy="369.8" r="1.2"/><circle cx="589.4" cy="32.9" r="0.5"/><circle cx="250.5" cy="1094.4" r="0.4"/><circle cx="892.5" cy="33.7" r="1"/><circle cx="767.4" cy="47.4" r="0.7"/><circle cx="1312.6" cy="929.8" r="0.6"/><circle cx="66.5" cy="517.7" r="1.2"/><circle cx="570.6" cy="159.6" r="1"/><circle cx="24" cy="652.1" r="0.8"/><circle cx="694.7" cy="1255" r="0.5"/><circle cx="1195.8" cy="360.8" r="0.9"/><circle cx="1213.2" cy="1069.7" r="1.2"/><circle cx="1454.8" cy="224.5" r="1.2"/><circle cx="1317.8" cy="163.1" r="1"/><circle cx="1015" cy="1086.5" r="0.8"/><circle cx="256.5" cy="235.9" r="0.9"/><circle cx="368" cy="71" r="1.1"/><circle cx="1436.6" cy="1170" r="0.7"/><circle cx="1421.5" cy="862.3" r="1.3"/><circle cx="57.8" cy="1149" r="1.2"/><circle cx="24.3" cy="141.2" r="1.1"/><circle cx="1092.4" cy="1155.9" r="1"/><circle cx="737.8" cy="1227.6" r="0.9"/><circle cx="1484.9" cy="1186.5" r="0.8"/><circle cx="145.4" cy="64.3" r="1.1"/><circle cx="61.4" cy="83" r="0.8"/><circle cx="1021.1" cy="155.6" r="0.7"/><circle cx="1412.7" cy="906.5" r="0.6"/><circle cx="873.1" cy="1206.6" r="1"/><circle cx="1271.6" cy="742.6" r="0.5"/><circle cx="1370.1" cy="15.3" r="0.6"/><circle cx="231.3" cy="318.5" r="1.1"/><circle cx="19.9" cy="195.5" r="1"/><circle cx="1410.7" cy="766" r="0.7"/><circle cx="105.8" cy="874.8" r="0.9"/><circle cx="264.2" cy="805.3" r="0.4"/><circle cx="423.3" cy="33.6" r="0.6"/><circle cx="418.9" cy="75.8" r="0.7"/><circle cx="1220.3" cy="827.2" r="0.8"/><circle cx="774.3" cy="1161.8" r="0.8"/><circle cx="163.4" cy="849.8" r="0.7"/><circle cx="492.4" cy="1302.6" r="1.1"/><circle cx="245.8" cy="1205.1" r="0.9"/><circle cx="1311.5" cy="1136.2" r="1"/><circle cx="1487.1" cy="11.6" r="0.6"/><circle cx="1071.6" cy="55.4" r="1.2"/><circle cx="139.6" cy="725.2" r="1"/><circle cx="294.5" cy="918" r="1.2"/><circle cx="1253.7" cy="1059.4" r="1.2"/><circle cx="1292.1" cy="60.8" r="1.1"/><circle cx="942.2" cy="1148.4" r="0.5"/><circle cx="132.7" cy="635.9" r="0.5"/><circle cx="271.8" cy="1222" r="0.5"/><circle cx="1469.1" cy="1082.9" r="1"/><circle cx="1264" cy="1096.4" r="0.8"/><circle cx="96.4" cy="1119.9" r="0.6"/><circle cx="247.1" cy="529.9" r="0.7"/><circle cx="230.7" cy="1215" r="1.1"/><circle cx="293.8" cy="965.6" r="1.2"/><circle cx="1134.3" cy="181.2" r="1.1"/><circle cx="1397.7" cy="678.5" r="0.5"/><circle cx="1300.5" cy="501" r="0.9"/><circle cx="780.6" cy="1155.5" r="0.7"/><circle cx="512.4" cy="1256.8" r="1.1"/><circle cx="253.5" cy="170.2" r="0.9"/><circle cx="87.5" cy="520.4" r="1.2"/><circle cx="115.8" cy="703.8" r="0.8"/><circle cx="1357.2" cy="592.4" r="1"/><circle cx="1485.3" cy="432.3" r="0.5"/><circle cx="345.6" cy="179.1" r="0.9"/><circle cx="442" cy="138.8" r="1.2"/><circle cx="1077.4" cy="1303.4" r="1.2"/><circle cx="1478.5" cy="744.7" r="0.5"/><circle cx="1277.4" cy="1278.7" r="0.6"/><circle cx="1350.9" cy="1111.8" r="1.3"/><circle cx="1070.4" cy="25.4" r="0.5"/><circle cx="77.3" cy="897.2" r="1"/><circle cx="207.5" cy="924.5" r="0.5"/><circle cx="91.1" cy="456.3" r="0.8"/><circle cx="252.3" cy="1074.8" r="1.1"/><circle cx="263.8" cy="783.9" r="1.2"/></g><rect width="1488" height="1304" fill="url(#h6)" opacity="0.14400000000000002" transform="rotate(90 744.0 652.0)"/><rect width="100%" height="100%" filter="url(#grain)" opacity=".13"/></svg>