<svg xmlns="http://www.w3.org/2000/svg" viewBox="0 0 1600 1600" width="1600" height="1600"><defs><filter id="grain" x="0" y="0" width="100%" height="100%"><feTurbulence type="fractalNoise" baseFrequency=".9" numOctaves="2" seed="4"/><feColorMatrix values="0 0 0 0 1  0 0 0 0 1  0 0 0 0 1  0 0 0 .9 -.35"/></filter><clipPath id="c1"><circle cx="800" cy="800" r="120"/></clipPath><clipPath id="c2"><circle cx="832.7" cy="835.6" r="126"/></clipPath><pattern id="h3" width="9" height="10" patternUnits="userSpaceOnUse" patternTransform="rotate(35)"><line x1="0" y1="0" x2="0" y2="10" stroke="#ece6d8" stroke-width="1.595"/></pattern><clipPath id="c4"><circle cx="855.2" cy="860.3" r="104.4"/></clipPath><pattern id="h5" width="6" height="10" patternUnits="userSpaceOnUse" patternTransform="rotate(-25)"><line x1="0" y1="0" x2="0" y2="10" stroke="#ece6d8" stroke-width="1.595"/></pattern><clipPath id="c6"><circle cx="877.8" cy="884.9" r="82.8"/></clipPath><pattern id="h7" width="4.2" height="10" patternUnits="userSpaceOnUse" patternTransform="rotate(80)"><line x1="0" y1="0" x2="0" y2="10" stroke="#ece6d8" stroke-width="1.595"/></pattern><pattern id="h8" width="3.2" height="10" patternUnits="userSpaceOnUse" patternTransform="rotate(45)"><line x1="0" y1="0" x2="0" y2="10" stroke="#ece6d8" stroke-width="1.45"/></pattern><pattern id="h9" width="3.2" height="10" patternUnits="userSpaceOnUse" patternTransform="rotate(45)"><line x1="0" y1="0" x2="0" y2="10" stroke="#ece6d8" stroke-width="1.45"/></pattern><pattern id="h10" width="3.2" height="10" patternUnits="userSpaceOnUse" patternTransform="rotate(45)"><line x1="0" y1="0" x2="0" y2="10" stroke="#ece6d8" stroke-width="1.45"/></pattern><pattern id="h11" width="3.2" height="10" patternUnits="userSpaceOnUse" patternTransform="rotate(45)"><line x1="0" y1="0" x2="0" y2="10" stroke="#ece6d8" stroke-width="1.45"/></pattern><pattern id="h12" width="3.2" height="10" patternUnits="userSpaceOnUse" patternTransform="rotate(45)"><line x1="0" y1="0" x2="0" y2="10" stroke="#ece6d8" stroke-width="1.45"/></pattern><pattern id="h13" width="3.2" height="10" patternUnits="userSpaceOnUse" patternTransform="rotate(45)"><line x1="0" y1="0" x2="0" y2="10" stroke="#ece6d8" stroke-width="1.45"/></pattern><pattern id="h14" width="3.2" height="10" patternUnits="userSpaceOnUse" patternTransform="rotate(45)"><line x1="0" y1="0" x2="0" y2="10" stroke="#ece6d8" stroke-width="1.45"/></pattern><pattern id="h15" width="3.2" height="10" patternUnits="userSpaceOnUse" patternTransform="rotate(45)"><line x1="0" y1="0" x2="0" y2="10" stroke="#ece6d8" stroke-width="1.45"/></pattern><pattern id="h16" width="3.2" height="10" patternUnits="userSpaceOnUse" patternTransform="rotate(45)"><line x1="0" y1="0" x2="0" y2="10" stroke="#ece6d8" stroke-width="1.45"/></pattern><pattern id="h17" width="3.2" height="10" patternUnits="userSpaceOnUse" patternTransform="rotate(45)"><line x1="0" y1="0" x2="0" y2="10" stroke="#ece6d8" stroke-width="1.45"/></pattern><pattern id="h18" width="3.2" height="10" patternUnits="userSpaceOnUse" patternTransform="rotate(45)"><line x1="0" y1="0" x2="0" y2="10" stroke="#ece6d8" stroke-width="1.45"/></pattern><pattern id="h19" width="3.2" height="10" patternUnits="userSpaceOnUse" patternTransform="rotate(45)"><line x1="0" y1="0" x2="0" y2="10" stroke="#ece6d8" stroke-width="1.45"/></pattern><pattern id="h20" width="6" height="10" patternUnits="userSpaceOnUse" patternTransform="rotate(0)"><line x1="0" y1="0" x2="0" y2="10" stroke="#ece6d8" stroke-width="1.45"/></pattern></defs><rect width="100%" height="100%" fill="#070706"/><path d="M920 800.3L1243.9 801.1M919.9 803.6L1147.5 810.5M919.8 806.4L1156.8 819M919.8 807.6L1375.4 836.3M919.3 812.6L1285.8 851.5M919 815.4L1539.5 895.8M918.8 817.3L1474.6 898.1M918.3 820.3L1316.9 888.8M918 821.9L1484.3 927.1M917.3 825.4L1152 876.2M916.4 829.3L1501.4 976.8M915.6 832.2L1506.5 996.9M914.9 834.6L1507.8 1013M914.5 835.9L1164.2 914.3M913.4 839.2L1458.4 1027.4M911.8 843.6L1155.1 938.6M911.3 844.8L1114 926.3M910 848L1235 989.9M909.1 849.9L1116.8 944.9M907.4 853.6L1100.7 950.1M905.8 856.6L1379 1109.7M905 858L1430.5 1148.3M903.9 860.1L1465.4 1185M902.2 862.9L1234.7 1067.6M901 864.8L1199.5 1056.1M899 867.8L1337.1 1168.2M896.6 871.2L1258.4 1137.5M895.6 872.5L1253.4 1143.8M893.3 875.5L1400.4 1286.3M891 878.2L1398.2 1314.5M889.4 880L1093.9 1063M888.7 880.9L1111.7 1084.3M886.1 883.6L1174.7 1163.8M884.7 885L1348.6 1351.1M882.3 887.3L1034.2 1048.6M880.1 889.3L1091.9 1125.5M876.6 892.4L1022 1067.8M875.4 893.3L1195.8 1289.7M872.8 895.4L1059.5 1140M871.3 896.5L1061.9 1154.5M867.6 899.2L1018.1 1120.1M866.7 899.8L992.3 1087.7M864.1 901.4L1140.2 1337.9M860.6 903.6L981.5 1110.1M858.7 904.7L974.2 1110.9M855.7 906.3L1101.6 1375.8M853.6 907.4L1119.1 1439.6M851.5 908.4L1112.6 1458.1M847.5 910.2L927.3 1095.3M846 910.8L1097.8 1517.4M841.5 912.6L987.9 1310.4M840 913.1L1028.9 1446.8M836.9 914.2L923.9 1183.9M834.4 915L971.4 1372.5M832.6 915.5L897.7 1146.8M829.8 916.2L939.9 1345.4M825.1 917.3L954.2 1521M822.5 917.9L864.5 1138M819.9 918.3L869.9 1215.9M818.3 918.6L890.1 1384.5M815.3 919L850.3 1191.3M812.1 919.4L858.6 1379.5M807.5 919.8L824.4 1190.2M804.7 919.9L822.6 1381.9M802.9 920L811 1249.7M800.1 920L800.3 1460.3M797.3 920L783.8 1529.5M794.5 919.9L785.1 1125.2M790.2 919.6L759.3 1297.4M788.4 919.4L738.5 1434.6M786.5 919.2L724.8 1465.1M782 918.6L742.4 1179.3M780.1 918.3L730 1216.9M776.3 917.6L707.8 1257.4M773.7 917.1L704.7 1224.8M771.6 916.6L690.7 1248.7M769 915.9L653.5 1347.6M765.1 914.8L663.7 1248.1M763.4 914.3L694.4 1129.6M759.8 913.1L625.5 1291.2M758.5 912.6L614.3 1304.4M755.3 911.4L622.1 1243.2M752.2 910.1L637.3 1174.2M749.1 908.7L623.1 1177.8M747.1 907.7L583.8 1240.7M743.7 906L611.3 1155.5M742 905.1L608.9 1146.2M738.4 903L558.9 1203M735.7 901.3L617.4 1087.8M734.2 900.4L500.7 1256.5M732.5 899.2L575.9 1129.4M728.6 896.5L460.4 1258.9M726.8 895.1L522.6 1160.1M724.4 893.2L348.1 1357.4M722.1 891.3L461.7 1196.5M720.1 889.6L402 1246.3M718.1 887.7L507.7 1112.8M715.9 885.6L481.8 1124.2M714.9 884.6L287.3 1310M712.2 881.8L443.1 1132.7M710.6 880.1L449.4 1114.1M708.1 877.1L202.6 1301.4M706.5 875.2L261.2 1233.3M705.3 873.7L219.3 1252M703.2 870.9L224.8 1221.1M701.7 868.8L158.4 1248.7M699.7 865.8L283.8 1138.7M697.9 863.1L360.5 1071.7M696.9 861.4L485.1 987.4M695.7 859.4L273.8 1099.5M694 856.2L267.2 1082.7M692.8 854L442 980.5M691.3 850.8L91 1131.6M689.9 847.7L107.6 1099.7M688.8 845.2L209.7 1039.7M687.7 842.4L481.9 920.1M686.6 839.1L233.9 995.2M685.6 836.4L331.4 949M685.1 834.6L99.3 1011.1M684.2 831.3L289 938.1M683.2 827.7L473.7 877.3M682.8 825.6L183.1 934.9M682.1 822.1L14.2 947.4M681.9 821.1L279.8 893M681.2 817.1L75 904.2M680.8 814.2L430.4 843.9M680.6 811.9L210.1 858.7M680.4 809.3L141.9 851.4M680.1 804.7L182.8 824M680 801.8L438.6 805.4M680 799.8L124.7 798.7M680.1 795.9L238.5 781M680.1 794.4L153.9 769.8M680.4 790.1L237.9 753.7M680.5 788.9L231.4 747.3M680.8 786.4L301.6 743.3M681.2 782.8L147.5 705.5M681.8 779.1L403 729.9M682 778.1L264.8 700.6M682.7 774.6L456.9 725.8M683.7 770.6L138.7 633M684.1 769L98.9 612.6M685.4 764.6L170.1 605.3M686 762.7L256.2 622M686.9 759.8L319.3 629.3M688 756.9L106.3 533.1M689.1 754.2L194 549.6M690 752L214.7 544.5M691 749.9L304.2 572.1M692.4 746.9L238 522.7M694 743.7L343.9 557.8M694.6 742.7L203.7 475.6M696.5 739.3L489.5 617.7M698.6 735.9L345.1 512.5M699 735.2L441.1 569.8M701.1 732L368.6 503.1M703.2 729.1L399.5 506.5M704.6 727.2L512 580.1M706.3 725.1L322 417.9M708.8 722L263.8 341.2M709.9 720.8L498.3 534.9M711.4 719L505.8 531.1M714.5 715.8L377.8 384.7M715.8 714.5L501.7 497M719 711.5L306.2 260.3M720.4 710.2L444.1 398.6M722.6 708.3L386.5 309.9M724.2 707L472.3 397.8M727.7 704.2L338 187.5M728.9 703.3L559.2 472.4M732.4 700.8L528.8 402.2M733.3 700.3L548.1 423.3M737.7 697.5L633.3 525.9M739.6 696.3L409 129.1M742.4 694.7L466.5 190.5M744.5 693.6L641.5 495.9M747.3 692.2L476.9 139.4M749 691.4L647.2 474.7M751.3 690.3L594.3 336.7M754.6 688.9L526.3 131.2M757.7 687.7L525.5 70.9M759.3 687.1L590.3 218.7M761.9 686.2L555 67.5M765.9 685L673.8 374.7M769.4 684L612.2 88.9M771.1 683.5L643.8 170.1M774.3 682.8L679.2 248.1M778 682L686.2 190.2M778.7 681.9L717.6 342.1M781.8 681.4L724.8 308.8M785.5 680.9L756.3 439.6M788.5 680.5L752.1 300.3M790.7 680.4L758.7 266.4M793.6 680.2L776.6 360.9M797.1 680L782.5 64.4M799.4 680L796.7 178.2M803.5 680.1L820.6 86.4M806.3 680.2L825.5 315.1M807.7 680.2L830.8 321.6M810.6 680.5L865.4 62.8M814.7 680.9L883.9 119.7M818.2 681.4L886.5 237.2M819.8 681.6L868.9 388M821.9 682L882.7 355.6M824.8 682.6L950.7 88.2M829.8 683.8L917.4 341.7M830.9 684L991.5 80.8M835.4 685.3L941.8 340.6M837.8 686.1L1030.9 104.4M840.1 686.9L1010.6 206.3M842 687.6L1023.8 200.4M845.5 689L1039.9 214.6M847.7 689.9L1091.8 125.9M851.3 691.5L1009 357.9M853.8 692.8L1065.6 270.9M856.5 694.1L1059.8 313.4M858.5 695.2L1055.9 341.8M861.3 696.9L1111.8 275.6M862.5 697.6L1208.3 130.6M865.2 699.2L1224.1 144.1M868.9 701.8L1126.9 334.2M871 703.3L1273.5 155.4M872.8 704.6L1026.2 503.6M875.4 706.6L1173.2 337.6M877.3 708.2L1284.6 224.8M879 709.6L1276.1 255M881.5 711.9L1217.6 348.7M884.5 714.8L1311.8 283.6M885.5 715.8L1274.9 331.9M887.3 717.7L1281.9 345.7M889.4 720L1223.6 420.7M891 721.8L1070.1 567.7M893.4 724.6L1072.1 580.3M895.6 727.5L1179.8 512.1M897 729.4L1080 596.3M898.2 731.1L1192.2 524.8M900.1 733.8L1197.3 537.3M902.2 737.2L1414.8 422M903.1 738.5L1476.9 396.4M904.6 741.1L1464.4 425.9M906.1 744L1094.3 644.8M907.4 746.5L1382.2 510.2M908.8 749.4L1402.1 519.8M910.2 752.6L1218.3 620.1M910.8 754L1432.3 537.6M912.3 757.8L1126.3 677.5M913.3 760.5L1360.2 604.7M914.5 764L1560.3 560.9M914.7 764.7L1207.1 674.6M915.7 768.3L1550.7 594.2M916.5 771.4L1115.6 722.5M917.2 774.2L1417.2 663.9M917.6 776L1550.3 646.8M918.4 780.7L1356.9 709.4M918.9 783.7L1567 694.8M919 784.9L1569.6 702.5M919.4 788.2L1567.4 724M919.6 790.7L1402.6 753.3M919.8 793.7L1574.3 759.5M919.9 796L1133.4 788.9" stroke="#ece6d8" stroke-width="1.35" opacity="0.5" fill="none"/><path d="M797.8 796.2Q899.3 712 1023 666.2M798.9 798.1Q909.5 729.6 1024.1 668.1M800 800Q910.6 731.5 1025.2 670M801.1 801.9Q916.5 741.8 1026.3 671.9M802.2 803.8Q910.5 731.5 1027.4 673.8" fill="none" stroke="#ece6d8" stroke-width="1" opacity="0.8"/><path d="M804.4 800Q820.9 930 804.4 1060M802.2 800Q822.9 930 802.2 1060M800 800Q798.3 930 800 1060M797.8 800Q775.9 930 797.8 1060M795.6 800Q782.7 930 795.6 1060" fill="none" stroke="#ece6d8" stroke-width="1" opacity="0.8"/><path d="M797.8 803.8Q688.2 733.6 572.6 673.8M798.9 801.9Q678.2 751 573.7 671.9M800 800Q677.4 752.4 574.8 670M801.1 798.1Q691.5 727.9 575.9 668.1M802.2 796.2Q693.7 724.1 577 666.2" fill="none" stroke="#ece6d8" stroke-width="1" opacity="0.8"/><path d="M1022 670.6Q988.9 510.6 961 349.5M1023.6 670.3Q983.6 511.6 962.6 349.2M1025.2 670Q1001.1 508.3 964.2 348.9M1026.7 669.7Q1011 506.4 965.7 348.6M1028.3 669.4Q1025.3 503.7 967.3 348.4" fill="none" stroke="#ece6d8" stroke-width="1" opacity="0.8"/><path d="M1023.6 667.2Q1112.2 600.8 1214.1 557.2M1024.4 668.6Q1117.1 609.3 1214.9 558.6M1025.2 670Q1126.2 625 1215.7 560M1026 671.4Q1118 610.7 1216.5 561.4M1026.8 672.8Q1118.5 611.6 1217.3 562.8" fill="none" stroke="#ece6d8" stroke-width="1" opacity="0.8"/><path d="M1027.3 667.6Q1161.6 761.9 1274.8 880.9M1026.2 668.8Q1166.1 756.7 1273.8 882.1M1025.2 670Q1139.6 787.5 1272.7 883.4M1024.1 671.2Q1134.9 793 1271.7 884.6M1023.1 672.4Q1149.1 776.5 1270.6 885.8" fill="none" stroke="#ece6d8" stroke-width="1" opacity="0.8"/><path d="M801.1 1057Q963.8 1086.5 1109.6 1164.7M800.5 1058.5Q963.1 1088.7 1109.1 1166.2M800 1060Q958.7 1101.3 1108.5 1167.7M799.5 1061.5Q959.9 1097.9 1108 1169.2M798.9 1063Q952.3 1119.4 1107.5 1170.7" fill="none" stroke="#ece6d8" stroke-width="1" opacity="0.8"/><path d="M803.2 1060Q806.9 1170 803.2 1280M801.6 1060Q813.8 1170 801.6 1280M800 1060Q815.4 1170 800 1280M798.4 1060Q788.1 1170 798.4 1280M796.8 1060Q806.3 1170 796.8 1280" fill="none" stroke="#ece6d8" stroke-width="1" opacity="0.8"/><path d="M801.1 1063Q654.1 1137.7 492.5 1170.7M800.5 1061.5Q651 1128.9 492 1169.2M800 1060Q647.9 1120.1 491.5 1167.7M799.5 1058.5Q651.1 1129.1 490.9 1166.2M798.9 1057Q643.9 1108.7 490.4 1164.7" fill="none" stroke="#ece6d8" stroke-width="1" opacity="0.8"/><path d="M576.9 672.4Q463.7 791.3 329.4 885.8M575.9 671.2Q445.6 770.3 328.3 884.6M574.8 670Q449.1 774.5 327.3 883.4M573.8 668.8Q434.4 757.4 326.2 882.1M572.7 667.6Q439.5 763.3 325.2 880.9" fill="none" stroke="#ece6d8" stroke-width="1" opacity="0.8"/><path d="M573.2 672.8Q479.3 615.4 382.7 562.8M574 671.4Q478.5 616.9 383.5 561.4M574.8 670Q478.6 616.8 384.3 560M575.6 668.6Q487.5 601.2 385.1 558.6M576.4 667.2Q487.1 601.9 385.9 557.2" fill="none" stroke="#ece6d8" stroke-width="1" opacity="0.8"/><path d="M571.7 669.4Q619.3 512.1 632.7 348.4M573.3 669.7Q612.3 510.8 634.3 348.6M574.8 670Q615.7 511.4 635.8 348.9M576.4 670.3Q598.1 508.1 637.4 349.2M578 670.6Q630.8 514.3 639 349.5" fill="none" stroke="#ece6d8" stroke-width="1" opacity="0.8"/><path d="M962.6 349.5Q912.7 240.2 877.4 125.2M964.2 348.9Q908.3 241.8 878.9 124.6M965.7 348.4Q910.6 240.9 880.5 124" fill="none" stroke="#ece6d8" stroke-width="1" opacity="0.8"/><path d="M962.6 348.4Q983.7 249.6 1031 160.4M964.2 348.9Q991.2 252.4 1032.6 161M965.7 349.5Q1008.4 258.6 1034.1 161.6" fill="none" stroke="#ece6d8" stroke-width="1" opacity="0.8"/><path d="M963.4 347.5Q1062.5 278.9 1172.9 230.4M964.2 348.9Q1060.7 275.8 1173.7 231.9M965 350.4Q1076.3 303.6 1174.5 233.3" fill="none" stroke="#ece6d8" stroke-width="1" opacity="0.8"/><path d="M1214.1 559.5Q1252.5 445.8 1293 332.8M1215.7 560Q1238 440.7 1294.6 333.4M1217.3 560.5Q1243.6 442.6 1296.2 333.9" fill="none" stroke="#ece6d8" stroke-width="1" opacity="0.8"/><path d="M1214.9 558.6Q1293.9 495.4 1388.1 458.6M1215.7 560Q1300 506 1388.9 460M1216.5 561.4Q1310.6 524.3 1389.7 461.4" fill="none" stroke="#ece6d8" stroke-width="1" opacity="0.8"/><path d="M1216 558.4Q1331.3 594.5 1451.7 603.3M1215.7 560Q1332.8 586.7 1451.4 605M1215.4 561.6Q1334.6 577.3 1451.1 606.6" fill="none" stroke="#ece6d8" stroke-width="1" opacity="0.8"/><path d="M1271.9 881.9Q1371.8 815.3 1478 759M1272.7 883.4Q1373.1 817.4 1478.8 760.5M1273.6 884.8Q1375 820.6 1479.7 761.9" fill="none" stroke="#ece6d8" stroke-width="1" opacity="0.8"/><path d="M1273 881.7Q1374.8 880.4 1470 916.4M1272.7 883.4Q1370.7 903.4 1469.7 918.1M1272.4 885Q1368.5 915.9 1469.4 919.7" fill="none" stroke="#ece6d8" stroke-width="1" opacity="0.8"/><path d="M1274 882.3Q1345.7 978.7 1425.7 1068.3M1272.7 883.4Q1360.6 966.5 1424.4 1069.3M1271.4 884.4Q1343.8 980.2 1423.1 1070.4" fill="none" stroke="#ece6d8" stroke-width="1" opacity="0.8"/><path d="M1108.8 1166.1Q1229.8 1169.5 1345.7 1204.4M1108.5 1167.7Q1225.7 1194.8 1345.4 1206.1M1108.3 1169.3Q1226.5 1189.8 1345.2 1207.7" fill="none" stroke="#ece6d8" stroke-width="1" opacity="0.8"/><path d="M1109.8 1166.6Q1165.9 1250.1 1238.4 1319.8M1108.5 1167.7Q1165.6 1250.4 1237.1 1320.9M1107.3 1168.8Q1178.3 1239.7 1235.8 1322" fill="none" stroke="#ece6d8" stroke-width="1" opacity="0.8"/><path d="M1110.2 1167.7Q1118.9 1287.9 1106.8 1407.7M1108.5 1167.7Q1090.9 1287.5 1105.2 1407.7M1106.9 1167.7Q1103.4 1287.6 1103.5 1407.6" fill="none" stroke="#ece6d8" stroke-width="1" opacity="0.8"/><path d="M801.3 1278.9Q884.1 1365.9 958.1 1460.6M800 1280Q880.1 1369.4 956.8 1461.7M798.7 1281.1Q866.8 1380.8 955.6 1462.8" fill="none" stroke="#ece6d8" stroke-width="1" opacity="0.8"/><path d="M801.7 1280Q791 1380 801.7 1480M800 1280Q799 1380 800 1480M798.3 1280Q780 1380 798.3 1480" fill="none" stroke="#ece6d8" stroke-width="1" opacity="0.8"/><path d="M801.3 1281.1Q722.6 1371.7 644.4 1462.8M800 1280Q733.1 1380.8 643.2 1461.7M798.7 1278.9Q708.7 1359.7 641.9 1460.6" fill="none" stroke="#ece6d8" stroke-width="1" opacity="0.8"/><path d="M493.1 1167.7Q501.2 1287.6 496.5 1407.6M491.5 1167.7Q510.3 1287.4 494.8 1407.7M489.8 1167.7Q469.8 1288 493.2 1407.7" fill="none" stroke="#ece6d8" stroke-width="1" opacity="0.8"/><path d="M492.7 1168.8Q442.5 1257.1 364.2 1322M491.5 1167.7Q425.3 1242.7 362.9 1320.9M490.2 1166.6Q423.8 1241.5 361.6 1319.8" fill="none" stroke="#ece6d8" stroke-width="1" opacity="0.8"/><path d="M491.7 1169.3Q371.5 1177.3 254.8 1207.7M491.5 1167.7Q373.7 1191 254.6 1206.1M491.2 1166.1Q374 1192.7 254.3 1204.4" fill="none" stroke="#ece6d8" stroke-width="1" opacity="0.8"/><path d="M328.6 884.4Q262 984.9 176.9 1070.4M327.3 883.4Q260.3 983.6 175.6 1069.3M326 882.3Q245.7 971.7 174.3 1068.3" fill="none" stroke="#ece6d8" stroke-width="1" opacity="0.8"/><path d="M327.6 885Q230.5 910.1 130.6 919.7M327.3 883.4Q227.4 892.8 130.3 918.1M327 881.7Q229.4 903.9 130 916.4" fill="none" stroke="#ece6d8" stroke-width="1" opacity="0.8"/><path d="M326.4 884.8Q218.7 831.1 120.3 761.9M327.3 883.4Q219.3 830.2 121.2 760.5M328.1 881.9Q236.3 801.7 122 759" fill="none" stroke="#ece6d8" stroke-width="1" opacity="0.8"/><path d="M384.6 561.6Q264.9 574.6 148.9 606.6M384.3 560Q263.9 569.3 148.6 605M384 558.4Q264.7 573.1 148.3 603.3" fill="none" stroke="#ece6d8" stroke-width="1" opacity="0.8"/><path d="M383.5 561.4Q293.6 517.1 210.3 461.4M384.3 560Q292 519.9 211.1 460M385.1 558.6Q305.5 496.5 211.9 458.6" fill="none" stroke="#ece6d8" stroke-width="1" opacity="0.8"/><path d="M382.7 560.5Q339.8 448.4 303.8 333.9M384.3 560Q328.1 452.5 305.4 333.4M385.9 559.5Q337.6 449.2 307 332.8" fill="none" stroke="#ece6d8" stroke-width="1" opacity="0.8"/><path d="M635 350.4Q521.1 308.2 425.5 233.3M635.8 348.9Q535.2 283.1 426.3 231.9M636.6 347.5Q541 272.6 427.1 230.4" fill="none" stroke="#ece6d8" stroke-width="1" opacity="0.8"/><path d="M634.3 349.5Q587.9 260 565.9 161.6M635.8 348.9Q610.6 251.7 567.4 161M637.4 348.4Q601 255.2 569 160.4" fill="none" stroke="#ece6d8" stroke-width="1" opacity="0.8"/><path d="M634.3 348.4Q680.3 237.5 719.5 124M635.8 348.9Q691.5 241.7 721.1 124.6M637.4 349.5Q687.5 240.2 722.6 125.2" fill="none" stroke="#ece6d8" stroke-width="1" opacity="0.8"/><circle cx="800" cy="800" r="120" fill="#070706"/><g clip-path="url(#c1)"><rect x="680" y="680" width="240" height="240" fill="url(#h3)" clip-path="url(#c2)" opacity=".85"/></g><g clip-path="url(#c1)"><rect x="680" y="680" width="240" height="240" fill="url(#h5)" clip-path="url(#c4)" opacity=".85"/></g><g clip-path="url(#c1)"><rect x="680" y="680" width="240" height="240" fill="url(#h7)" clip-path="url(#c6)" opacity=".85"/></g><g fill="none" stroke="#ece6d8" stroke-width="1.6" opacity=".9" clip-path="url(#c1)"><ellipse cx="800" cy="704" rx="72" ry="11.5"/><ellipse cx="800" cy="728" rx="96" ry="15.4"/><ellipse cx="800" cy="752" rx="110" ry="17.6"/><ellipse cx="800" cy="776" rx="117.6" ry="18.8"/><ellipse cx="800" cy="800" rx="120" ry="19.2"/><ellipse cx="800" cy="824" rx="117.6" ry="18.8"/><ellipse cx="800" cy="848" rx="110" ry="17.6"/><ellipse cx="800" cy="872" rx="96" ry="15.4"/><ellipse cx="800" cy="896" rx="72" ry="11.5"/><ellipse cx="800" cy="800" rx="120" ry="120"/><ellipse cx="800" cy="800" rx="103.9" ry="120"/><ellipse cx="800" cy="800" rx="60" ry="120"/><ellipse cx="800" cy="800" rx="0" ry="120"/><ellipse cx="800" cy="800" rx="60" ry="120"/><ellipse cx="800" cy="800" rx="103.9" ry="120"/></g><circle cx="800" cy="800" r="120" fill="none" stroke="#ece6d8" stroke-width="3"/><circle cx="1025.2" cy="670" r="54" fill="#070706" stroke="#ece6d8" stroke-width="2.2"/><circle cx="1025.2" cy="670" r="54" fill="url(#h8)"/><circle cx="1009" cy="653.8" r="15.1" fill="#ece6d8"/><circle cx="800" cy="1060" r="54" fill="#070706" stroke="#ece6d8" stroke-width="2.2"/><circle cx="800" cy="1060" r="54" fill="url(#h9)"/><circle cx="783.8" cy="1043.8" r="15.1" fill="#ece6d8"/><circle cx="574.8" cy="670" r="54" fill="#070706" stroke="#ece6d8" stroke-width="2.2"/><circle cx="574.8" cy="670" r="54" fill="url(#h10)"/><circle cx="558.6" cy="653.8" r="15.1" fill="#ece6d8"/><circle cx="964.2" cy="348.9" r="32" fill="#070706" stroke="#ece6d8" stroke-width="2.2"/><circle cx="964.2" cy="348.9" r="32" fill="url(#h11)"/><circle cx="954.6" cy="339.3" r="9" fill="#ece6d8"/><circle cx="1215.7" cy="560" r="32" fill="#070706" stroke="#ece6d8" stroke-width="2.2"/><circle cx="1215.7" cy="560" r="32" fill="url(#h12)"/><circle cx="1206.1" cy="550.4" r="9" fill="#ece6d8"/><circle cx="1272.7" cy="883.4" r="32" fill="#070706" stroke="#ece6d8" stroke-width="2.2"/><circle cx="1272.7" cy="883.4" r="32" fill="url(#h13)"/><circle cx="1263.1" cy="873.8" r="9" fill="#ece6d8"/><circle cx="1108.5" cy="1167.7" r="32" fill="#070706" stroke="#ece6d8" stroke-width="2.2"/><circle cx="1108.5" cy="1167.7" r="32" fill="url(#h14)"/><circle cx="1098.9" cy="1158.1" r="9" fill="#ece6d8"/><circle cx="800" cy="1280" r="32" fill="#070706" stroke="#ece6d8" stroke-width="2.2"/><circle cx="800" cy="1280" r="32" fill="url(#h15)"/><circle cx="790.4" cy="1270.4" r="9" fill="#ece6d8"/><circle cx="491.5" cy="1167.7" r="32" fill="#070706" stroke="#ece6d8" stroke-width="2.2"/><circle cx="491.5" cy="1167.7" r="32" fill="url(#h16)"/><circle cx="481.9" cy="1158.1" r="9" fill="#ece6d8"/><circle cx="327.3" cy="883.4" r="32" fill="#070706" stroke="#ece6d8" stroke-width="2.2"/><circle cx="327.3" cy="883.4" r="32" fill="url(#h17)"/><circle cx="317.7" cy="873.8" r="9" fill="#ece6d8"/><circle cx="384.3" cy="560" r="32" fill="#070706" stroke="#ece6d8" stroke-width="2.2"/><circle cx="384.3" cy="560" r="32" fill="url(#h18)"/><circle cx="374.7" cy="550.4" r="9" fill="#ece6d8"/><circle cx="635.8" cy="348.9" r="32" fill="#070706" stroke="#ece6d8" stroke-width="2.2"/><circle cx="635.8" cy="348.9" r="32" fill="url(#h19)"/><circle cx="626.2" cy="339.3" r="9" fill="#ece6d8"/><circle cx="878.9" cy="124.6" r="16" fill="#070706" stroke="#ece6d8" stroke-width="2.2"/><circle cx="1032.6" cy="161" r="16" fill="#070706" stroke="#ece6d8" stroke-width="2.2"/><circle cx="1173.7" cy="231.9" r="16" fill="#070706" stroke="#ece6d8" stroke-width="2.2"/><circle cx="1294.6" cy="333.4" r="16" fill="#070706" stroke="#ece6d8" stroke-width="2.2"/><circle cx="1388.9" cy="460" r="16" fill="#070706" stroke="#ece6d8" stroke-width="2.2"/><circle cx="1451.4" cy="605" r="16" fill="#070706" stroke="#ece6d8" stroke-width="2.2"/><circle cx="1478.8" cy="760.5" r="16" fill="#070706" stroke="#ece6d8" stroke-width="2.2"/><circle cx="1469.7" cy="918.1" r="16" fill="#070706" stroke="#ece6d8" stroke-width="2.2"/><circle cx="1424.4" cy="1069.3" r="16" fill="#070706" stroke="#ece6d8" stroke-width="2.2"/><circle cx="1345.4" cy="1206.1" r="16" fill="#070706" stroke="#ece6d8" stroke-width="2.2"/><circle cx="1237.1" cy="1320.9" r="16" fill="#070706" stroke="#ece6d8" stroke-width="2.2"/><circle cx="1105.2" cy="1407.7" r="16" fill="#070706" stroke="#ece6d8" stroke-width="2.2"/><circle cx="956.8" cy="1461.7" r="16" fill="#070706" stroke="#ece6d8" stroke-width="2.2"/><circle cx="800" cy="1480" r="16" fill="#070706" stroke="#ece6d8" stroke-width="2.2"/><circle cx="643.2" cy="1461.7" r="16" fill="#070706" stroke="#ece6d8" stroke-width="2.2"/><circle cx="494.8" cy="1407.7" r="16" fill="#070706" stroke="#ece6d8" stroke-width="2.2"/><circle cx="362.9" cy="1320.9" r="16" fill="#070706" stroke="#ece6d8" stroke-width="2.2"/><circle cx="254.6" cy="1206.1" r="16" fill="#070706" stroke="#ece6d8" stroke-width="2.2"/><circle cx="175.6" cy="1069.3" r="16" fill="#070706" stroke="#ece6d8" stroke-width="2.2"/><circle cx="130.3" cy="918.1" r="16" fill="#070706" stroke="#ece6d8" stroke-width="2.2"/><circle cx="121.2" cy="760.5" r="16" fill="#070706" stroke="#ece6d8" stroke-width="2.2"/><circle cx="148.6" cy="605" r="16" fill="#070706" stroke="#ece6d8" stroke-width="2.2"/><circle cx="211.1" cy="460" r="16" fill="#070706" stroke="#ece6d8" stroke-width="2.2"/><circle cx="305.4" cy="333.4" r="16" fill="#070706" stroke="#ece6d8" stroke-width="2.2"/><circle cx="426.3" cy="231.9" r="16" fill="#070706" stroke="#ece6d8" stroke-width="2.2"/><circle cx="567.4" cy="161" r="16" fill="#070706" stroke="#ece6d8" stroke-width="2.2"/><circle cx="721.1" cy="124.6" r="16" fill="#070706" stroke="#ece6d8" stroke-width="2.2"/><circle cx="800" cy="800" r="260" fill="none" stroke="#ece6d8" stroke-width="1" stroke-dasharray="2 9" opacity=".6"/><circle cx="800" cy="800" r="480" fill="none" stroke="#ece6d8" stroke-width="1" stroke-dasharray="2 9" opacity=".6"/><circle cx="800" cy="800" r="680" fill="none" stroke="#ece6d8" stroke-width="1" stroke-dasharray="2 9" opacity=".6"/><g fill="#ece6d8" opacity="0.35"><circle cx="1280.6" cy="602.3" r="0.4"/><circle cx="818.8" cy="938.7" r="0.6"/><circle cx="622.6" cy="507.6" r="0.4"/><circle cx="499.3" cy="612.5" r="0.8"/><circle cx="1125.4" cy="638.6" r="1.3"/><circle cx="1304.8" cy="1478.2" r="1"/><circle cx="1072.3" cy="858.7" r="1.1"/><circle cx="580.5" cy="949.7" r="1"/><circle cx="835.5" cy="454.7" r="0.5"/><circle cx="139.6" cy="569.4" r="0.9"/><circle cx="1215.4" cy="1143.1" r="0.7"/><circle cx="1486.7" cy="439.4" r="1"/><circle cx="115.3" cy="1205.4" r="1"/><circle cx="1531.1" cy="1435.4" r="1"/><circle cx="1341.2" cy="1181.8" r="0.9"/><circle cx="334" cy="826.7" r="1.2"/><circle cx="382.5" cy="1559.5" r="0.9"/><circle cx="629.5" cy="4.7" r="0.8"/><circle cx="285" cy="1044.9" r="1.2"/><circle cx="1456.3" cy="981.6" r="0.7"/><circle cx="174.2" cy="1102.1" r="0.9"/><circle cx="1144.4" cy="598.4" r="1.2"/><circle cx="340.3" cy="488.9" r="0.6"/><circle cx="995.5" cy="1435.6" r="0.6"/><circle cx="1012.5" cy="1226.4" r="0.6"/><circle cx="100.3" cy="905.4" r="1.1"/><circle cx="1405.7" cy="1164.9" r="0.8"/><circle cx="680.6" cy="846" r="1.2"/><circle cx="483.7" cy="449.2" r="0.9"/><circle cx="1546.5" cy="299.6" r="0.4"/><circle cx="185" cy="900.1" r="0.9"/><circle cx="294.2" cy="304.5" r="0.9"/><circle cx="1034.2" cy="1104.4" r="1.1"/><circle cx="98.2" cy="775.5" r="1.2"/><circle cx="1531.5" cy="509.5" r="1.2"/><circle cx="1032.3" cy="1482.7" r="0.6"/><circle cx="1114.9" cy="1345.2" r="0.8"/><circle cx="161.3" cy="309.6" r="0.5"/><circle cx="148.5" cy="243.1" r="1"/><circle cx="167.8" cy="1212.9" r="1.1"/><circle cx="1306.2" cy="1285.9" r="1"/><circle cx="1478.5" cy="1531" r="1"/><circle cx="1544.2" cy="165.3" r="0.5"/><circle cx="103.1" cy="330.3" r="0.7"/><circle cx="733.9" cy="1088.8" r="1.1"/><circle cx="134.1" cy="645.2" r="0.9"/><circle cx="600.3" cy="188.1" r="0.9"/><circle cx="599.1" cy="1094" r="0.8"/><circle cx="1540.3" cy="1512" r="0.5"/><circle cx="1215.7" cy="1154" r="0.7"/><circle cx="187" cy="766.4" r="0.7"/><circle cx="1179.7" cy="1469.4" r="0.7"/><circle cx="464.9" cy="798" r="1"/><circle cx="1262.4" cy="921.1" r="0.7"/><circle cx="539.1" cy="1356.8" r="0.9"/><circle cx="80.6" cy="673.2" r="0.6"/><circle cx="1065.9" cy="117.4" r="0.6"/><circle cx="153.6" cy="764.1" r="1.3"/><circle cx="866.2" cy="618.1" r="1.2"/><circle cx="146.9" cy="569.2" r="1.1"/><circle cx="8.2" cy="1225.5" r="0.7"/><circle cx="26.3" cy="401.4" r="0.8"/><circle cx="612.5" cy="826.8" r="0.4"/><circle cx="349.7" cy="1558.9" r="0.8"/><circle cx="755" cy="136.6" r="0.7"/><circle cx="1527.6" cy="1099.3" r="0.9"/><circle cx="84.8" cy="628.3" r="1.1"/><circle cx="695.5" cy="949.7" r="1.2"/><circle cx="1032.2" cy="1017.4" r="0.4"/><circle cx="38.1" cy="1231.3" r="0.8"/><circle cx="1398.7" cy="1321.1" r="1.2"/><circle cx="605.7" cy="1598.5" r="1.1"/><circle cx="1426.8" cy="237.1" r="1.1"/><circle cx="675.4" cy="1555.3" r="1.3"/><circle cx="346.7" cy="674.3" r="0.6"/><circle cx="751.7" cy="458.4" r="1"/><circle cx="197.3" cy="270.8" r="0.8"/><circle cx="118.3" cy="609.9" r="1.2"/><circle cx="1416.5" cy="314.4" r="0.4"/><circle cx="1325.3" cy="1537.2" r="0.9"/><circle cx="218.1" cy="378.5" r="1.2"/><circle cx="1500.1" cy="49.8" r="0.6"/><circle cx="686.4" cy="426.7" r="1.1"/><circle cx="596.7" cy="1240.3" r="0.5"/><circle cx="829.3" cy="1560" r="1"/><circle cx="144.1" cy="177.6" r="1"/><circle cx="600" cy="589.9" r="0.8"/><circle cx="930.7" cy="1545.4" r="0.6"/><circle cx="909.9" cy="420.9" r="0.9"/><circle cx="1170.3" cy="213.8" r="0.8"/><circle cx="1129.2" cy="13" r="1.1"/><circle cx="670.2" cy="806.7" r="0.9"/><circle cx="1268.6" cy="89.7" r="0.9"/><circle cx="61.3" cy="616.8" r="0.7"/><circle cx="34.2" cy="476.4" r="0.8"/><circle cx="1047.8" cy="1479.7" r="0.7"/><circle cx="848.1" cy="1141.1" r="1.2"/><circle cx="1519.4" cy="1580.8" r="0.7"/><circle cx="266.6" cy="1491" r="0.5"/><circle cx="718" cy="1177.9" r="0.9"/><circle cx="622" cy="1479.2" r="0.7"/><circle cx="882.8" cy="1327.5" r="0.5"/><circle cx="561.5" cy="790.9" r="0.9"/><circle cx="331.8" cy="726.3" r="0.5"/><circle cx="140.7" cy="547.4" r="0.5"/><circle cx="1548" cy="421.3" r="0.6"/><circle cx="1253.9" cy="1185.9" r="0.6"/><circle cx="1326.7" cy="1001.2" r="0.7"/><circle cx="1006.1" cy="393.1" r="0.6"/><circle cx="1402.4" cy="701.8" r="1.2"/><circle cx="283.1" cy="219.7" r="0.4"/><circle cx="1183.6" cy="897.9" r="0.4"/><circle cx="69.3" cy="1318.5" r="0.8"/><circle cx="1394.1" cy="63.6" r="0.9"/><circle cx="187.9" cy="1153.8" r="1"/><circle cx="979.3" cy="354.4" r="1.3"/><circle cx="177.6" cy="102.5" r="1"/><circle cx="148.5" cy="106.9" r="0.8"/><circle cx="1038.2" cy="1427.3" r="1"/><circle cx="111" cy="1029" r="1.2"/><circle cx="192.8" cy="1207.2" r="0.6"/><circle cx="477.8" cy="2.4" r="1.1"/><circle cx="825.2" cy="1443.1" r="0.8"/><circle cx="248.7" cy="346.2" r="0.6"/><circle cx="1514.8" cy="328.4" r="0.5"/><circle cx="564.4" cy="126.6" r="0.8"/><circle cx="994.6" cy="1041" r="0.6"/><circle cx="222.1" cy="785.9" r="1"/><circle cx="715.4" cy="917.2" r="1.2"/><circle cx="232.1" cy="428.5" r="0.8"/><circle cx="857.8" cy="1440.3" r="0.9"/><circle cx="1059.8" cy="671.4" r="1.1"/><circle cx="1337.5" cy="469.8" r="0.5"/><circle cx="414.7" cy="572.1" r="1.2"/><circle cx="423.4" cy="1007" r="1"/><circle cx="1529.9" cy="186.4" r="1.1"/><circle cx="538.3" cy="164.7" r="1"/><circle cx="1350.9" cy="932" r="0.4"/><circle cx="1555.4" cy="614.6" r="1"/><circle cx="1158.4" cy="417.1" r="0.8"/><circle cx="526.9" cy="153.5" r="0.5"/><circle cx="1147" cy="656.9" r="1.2"/><circle cx="100.3" cy="482.3" r="0.6"/><circle cx="1509.5" cy="1264.9" r="1.2"/><circle cx="810.2" cy="166.7" r="0.8"/><circle cx="361.9" cy="43" r="0.9"/><circle cx="464" cy="172.6" r="0.9"/><circle cx="1493.1" cy="1513.6" r="0.8"/><circle cx="164.4" cy="1229.9" r="0.5"/><circle cx="859.8" cy="133.9" r="1.3"/><circle cx="868.4" cy="700" r="0.6"/><circle cx="881.5" cy="1556.7" r="0.8"/><circle cx="334.8" cy="823.5" r="1.2"/><circle cx="610.8" cy="1014.2" r="1.2"/><circle cx="521.1" cy="1297.4" r="0.9"/><circle cx="223.2" cy="85.7" r="1.2"/><circle cx="745.6" cy="709.1" r="1.2"/><circle cx="918.4" cy="800.3" r="0.7"/><circle cx="1190.7" cy="410" r="0.8"/><circle cx="1213.7" cy="967.8" r="0.5"/><circle cx="324.4" cy="1112" r="1.1"/><circle cx="164.2" cy="1596" r="0.5"/><circle cx="268.3" cy="143.6" r="0.8"/><circle cx="991.4" cy="1371.7" r="0.5"/><circle cx="1118" cy="168.4" r="0.9"/><circle cx="403" cy="570" r="0.4"/><circle cx="1153" cy="195.7" r="1.1"/><circle cx="538.4" cy="946.7" r="1"/><circle cx="781.9" cy="1397.9" r="1.2"/><circle cx="451.3" cy="534.1" r="1.2"/><circle cx="212.5" cy="672.1" r="0.8"/><circle cx="1562.2" cy="205.2" r="1"/><circle cx="1211.2" cy="1165.3" r="0.4"/><circle cx="1509.8" cy="499.9" r="1.2"/><circle cx="1058.1" cy="673.3" r="1.2"/><circle cx="1081.2" cy="543.8" r="1.1"/><circle cx="808.2" cy="1138.5" r="1"/><circle cx="1273.6" cy="254.9" r="0.8"/><circle cx="1.9" cy="1265.3" r="1.1"/><circle cx="1339.4" cy="69.1" r="0.9"/><circle cx="765.8" cy="191.2" r="0.6"/><circle cx="1559" cy="1364.2" r="0.6"/><circle cx="1326.6" cy="1041.6" r="0.7"/><circle cx="1031.6" cy="366.4" r="0.6"/><circle cx="16.1" cy="1050.6" r="0.9"/><circle cx="1189.5" cy="806.1" r="0.8"/><circle cx="490.3" cy="1176.5" r="0.7"/><circle cx="954.8" cy="1212.2" r="0.8"/><circle cx="1097.8" cy="98.5" r="0.6"/><circle cx="1345" cy="235.9" r="0.5"/><circle cx="23.2" cy="1225.8" r="0.5"/><circle cx="733" cy="701.5" r="1.1"/><circle cx="762.6" cy="834.8" r="0.4"/><circle cx="1272.4" cy="1227.8" r="1"/><circle cx="1335.7" cy="982.5" r="1"/><circle cx="1361.6" cy="987.8" r="0.4"/><circle cx="1415.2" cy="1583.2" r="0.6"/><circle cx="105.7" cy="543.9" r="0.5"/><circle cx="591" cy="142.7" r="0.6"/><circle cx="5.3" cy="685.9" r="0.7"/><circle cx="1166.1" cy="622" r="0.5"/><circle cx="1525.4" cy="1431.2" r="1"/><circle cx="347.2" cy="644.2" r="0.8"/><circle cx="653.9" cy="42.1" r="0.8"/><circle cx="1228.3" cy="1109.5" r="1.2"/><circle cx="1092.7" cy="1220.4" r="1.2"/><circle cx="1467.4" cy="1268.9" r="0.8"/><circle cx="1055.6" cy="1053.2" r="1.2"/><circle cx="1141.8" cy="709.5" r="0.6"/><circle cx="523.9" cy="400.6" r="1"/><circle cx="1231" cy="307.3" r="0.9"/><circle cx="1344.4" cy="585" r="0.5"/><circle cx="969" cy="579.8" r="0.5"/><circle cx="460.8" cy="11" r="0.5"/><circle cx="680.5" cy="167.9" r="0.4"/><circle cx="880" cy="1532.4" r="1.2"/><circle cx="521.8" cy="1479.1" r="0.5"/><circle cx="240.7" cy="10.9" r="0.5"/><circle cx="962.9" cy="1211.2" r="0.8"/><circle cx="1285.3" cy="722" r="1.2"/><circle cx="972.8" cy="859.1" r="0.6"/><circle cx="682.4" cy="704.5" r="1.1"/><circle cx="367.4" cy="471.5" r="1.1"/><circle cx="113.5" cy="859.2" r="0.6"/><circle cx="1064.3" cy="951.1" r="0.5"/><circle cx="1168.4" cy="651.7" r="0.7"/><circle cx="1370.5" cy="1246" r="0.7"/><circle cx="1084.4" cy="197.6" r="0.9"/><circle cx="132" cy="1025.2" r="1.2"/><circle cx="1018.1" cy="65.1" r="0.9"/><circle cx="751.2" cy="708.9" r="0.5"/><circle cx="445.2" cy="719.2" r="0.5"/><circle cx="1079" cy="389.7" r="0.7"/><circle cx="145.3" cy="484.2" r="1.2"/><circle cx="466.9" cy="153.5" r="0.7"/><circle cx="1512.1" cy="140.7" r="0.7"/><circle cx="334.4" cy="1090.9" r="0.8"/><circle cx="157.3" cy="1379.6" r="0.7"/><circle cx="1097.7" cy="724.5" r="1.2"/><circle cx="93.1" cy="364.9" r="0.7"/><circle cx="422.9" cy="1315.2" r="0.9"/><circle cx="554.8" cy="811" r="1.2"/><circle cx="911.6" cy="722.3" r="1"/><circle cx="984.1" cy="648.8" r="0.8"/><circle cx="210.7" cy="702.5" r="1.2"/><circle cx="489.6" cy="584.3" r="0.9"/><circle cx="944.7" cy="280.6" r="0.8"/><circle cx="1174.3" cy="66.3" r="0.5"/><circle cx="1208.6" cy="1448.4" r="0.5"/><circle cx="130.3" cy="1002.5" r="0.7"/><circle cx="1050.4" cy="54.8" r="0.8"/><circle cx="258.7" cy="531.5" r="1"/><circle cx="816.1" cy="1365.5" r="1.2"/><circle cx="991" cy="1356" r="0.6"/><circle cx="759.2" cy="511.3" r="1"/><circle cx="178.1" cy="1416.4" r="0.7"/><circle cx="1254" cy="1508.5" r="1.2"/><circle cx="624.3" cy="1371" r="1.3"/><circle cx="208.3" cy="1195.9" r="1.1"/><circle cx="732.4" cy="444.6" r="0.6"/><circle cx="658.7" cy="1491" r="0.8"/><circle cx="408.6" cy="991.1" r="0.8"/><circle cx="981.7" cy="727.2" r="0.7"/><circle cx="56.8" cy="1309.4" r="1"/><circle cx="389.9" cy="798.9" r="0.9"/><circle cx="805.7" cy="1441.5" r="1.1"/><circle cx="490.3" cy="542" r="1"/><circle cx="259.7" cy="1494.7" r="0.4"/><circle cx="799.2" cy="437.4" r="0.9"/><circle cx="73" cy="358.8" r="1.3"/><circle cx="1260.9" cy="353.6" r="0.8"/><circle cx="52" cy="195.2" r="0.6"/><circle cx="1574.9" cy="498.9" r="0.6"/><circle cx="104.5" cy="175.8" r="1.3"/><circle cx="1184.3" cy="1472.6" r="1.2"/><circle cx="1252.2" cy="408" r="0.6"/><circle cx="431.9" cy="104.7" r="0.6"/><circle cx="1151.8" cy="785.7" r="0.4"/><circle cx="487.6" cy="1359.3" r="1.2"/><circle cx="1167.2" cy="1170.3" r="1.2"/><circle cx="891.5" cy="613.3" r="0.9"/><circle cx="451.9" cy="58.3" r="0.6"/><circle cx="732.2" cy="192.3" r="0.5"/><circle cx="395.7" cy="589" r="1.3"/><circle cx="779.2" cy="1339.1" r="1.1"/><circle cx="947.8" cy="515.5" r="0.8"/><circle cx="507.5" cy="1014.9" r="1.2"/><circle cx="1265" cy="472.4" r="0.5"/><circle cx="14.3" cy="935.2" r="0.6"/><circle cx="8.9" cy="483.3" r="0.6"/><circle cx="328.4" cy="1063" r="0.9"/><circle cx="450.8" cy="1169" r="0.6"/><circle cx="1474" cy="190.2" r="0.9"/><circle cx="1127.8" cy="1171.9" r="0.8"/><circle cx="1394.4" cy="1006.6" r="1"/><circle cx="126.5" cy="298.7" r="0.8"/><circle cx="872.4" cy="152.3" r="1.1"/><circle cx="554.5" cy="760.2" r="0.9"/><circle cx="1342.1" cy="483.4" r="0.9"/><circle cx="968.7" cy="1048.6" r="0.7"/><circle cx="446.6" cy="752.6" r="0.9"/><circle cx="1031.5" cy="214.1" r="0.8"/><circle cx="896.4" cy="311.6" r="0.5"/><circle cx="1486.3" cy="33.3" r="0.8"/><circle cx="471.5" cy="49.8" r="0.6"/><circle cx="258.3" cy="640.3" r="1.2"/><circle cx="127" cy="562.7" r="1"/><circle cx="999.9" cy="33.3" r="0.6"/><circle cx="449.8" cy="1431.9" r="0.8"/><circle cx="412.1" cy="768.3" r="0.8"/><circle cx="239.1" cy="1067.3" r="1"/><circle cx="763.6" cy="859.8" r="1.1"/><circle cx="1530.2" cy="980.5" r="0.4"/><circle cx="808.2" cy="1059.6" r="0.7"/><circle cx="1094.8" cy="588.5" r="1"/><circle cx="982.7" cy="1072" r="1.2"/><circle cx="1132.5" cy="1135" r="1"/><circle cx="368.9" cy="982.6" r="1"/><circle cx="97.6" cy="1206.9" r="0.6"/><circle cx="787.4" cy="838" r="1"/><circle cx="1224.4" cy="749" r="1.2"/><circle cx="708.8" cy="906.3" r="1.3"/><circle cx="518" cy="1142.4" r="1.3"/><circle cx="135.1" cy="1243.5" r="1"/><circle cx="863.5" cy="1263.3" r="1.2"/><circle cx="234.6" cy="778.5" r="1"/><circle cx="1118.1" cy="1533.5" r="1.1"/><circle cx="1325.5" cy="103.3" r="0.8"/><circle cx="1461.4" cy="1513.7" r="1.1"/><circle cx="533.8" cy="1231.7" r="0.9"/><circle cx="1068" cy="1020" r="1.2"/><circle cx="1142.7" cy="1552.7" r="0.8"/><circle cx="789.6" cy="1051.9" r="0.9"/><circle cx="78.6" cy="1534.8" r="0.7"/><circle cx="799.4" cy="67.8" r="0.6"/><circle cx="1486" cy="443.8" r="0.7"/><circle cx="1299" cy="386.2" r="1"/><circle cx="909.4" cy="1434.3" r="0.8"/><circle cx="525.8" cy="414.5" r="0.7"/><circle cx="0.2" cy="191.2" r="0.5"/><circle cx="503.3" cy="1229.4" r="1.2"/><circle cx="566.8" cy="399.7" r="0.7"/><circle cx="1006.4" cy="765.9" r="0.5"/><circle cx="838" cy="430.3" r="0.5"/><circle cx="1256.4" cy="168.4" r="0.8"/><circle cx="1225.5" cy="868.5" r="1.2"/><circle cx="507.6" cy="1514.1" r="0.4"/><circle cx="1432.3" cy="678.8" r="0.4"/><circle cx="415.1" cy="1582.1" r="1"/><circle cx="1179.6" cy="1297.7" r="0.4"/><circle cx="491" cy="745.1" r="1.2"/><circle cx="1452.8" cy="239.1" r="1.3"/><circle cx="886.9" cy="487.5" r="0.5"/><circle cx="682.7" cy="833" r="0.8"/><circle cx="496.7" cy="1516.4" r="0.8"/><circle cx="492.3" cy="1244.1" r="0.6"/><circle cx="676.5" cy="166.5" r="0.6"/><circle cx="1595.2" cy="994" r="0.9"/><circle cx="1077.3" cy="1075.5" r="0.9"/><circle cx="586.8" cy="235.9" r="0.4"/><circle cx="193.5" cy="648.4" r="0.4"/><circle cx="1079.4" cy="539.6" r="0.6"/><circle cx="501.8" cy="788.5" r="0.6"/><circle cx="1363.8" cy="772.7" r="0.5"/><circle cx="136.3" cy="1424.5" r="0.9"/><circle cx="466.1" cy="1140.9" r="0.4"/><circle cx="1422.2" cy="1498.4" r="1"/><circle cx="80.8" cy="681.2" r="1.2"/><circle cx="949.5" cy="334.4" r="0.6"/><circle cx="101.9" cy="834.9" r="0.6"/><circle cx="712.8" cy="1432.9" r="1.2"/><circle cx="787" cy="1254.3" r="0.5"/><circle cx="1516.4" cy="1384.8" r="0.8"/><circle cx="1417.6" cy="475.7" r="1.3"/><circle cx="516.6" cy="1478.9" r="1.2"/><circle cx="1495.2" cy="1163.1" r="0.5"/><circle cx="447.3" cy="1049.1" r="1.2"/><circle cx="1089.4" cy="62.5" r="0.7"/><circle cx="552.1" cy="273.9" r="0.6"/><circle cx="825.9" cy="596.5" r="0.6"/><circle cx="659.3" cy="1515.6" r="0.9"/><circle cx="1203" cy="1492.3" r="0.4"/><circle cx="1408.7" cy="152.2" r="0.6"/><circle cx="1183" cy="1204.7" r="1"/><circle cx="761.7" cy="1155.4" r="0.8"/><circle cx="311" cy="351.1" r="0.5"/><circle cx="58.8" cy="1523.2" r="1.3"/><circle cx="557.7" cy="660" r="0.7"/><circle cx="1250.1" cy="787.8" r="0.6"/><circle cx="1414.7" cy="1485.9" r="0.4"/><circle cx="734.6" cy="353.6" r="1"/><circle cx="574" cy="476.6" r="0.7"/><circle cx="971.7" cy="805.1" r="0.8"/><circle cx="1088.9" cy="757.2" r="1.3"/><circle cx="701.8" cy="1266.7" r="1.2"/><circle cx="994.7" cy="943" r="1.1"/><circle cx="1139" cy="309.6" r="0.8"/><circle cx="251" cy="33.7" r="1"/><circle cx="526.1" cy="407.6" r="0.4"/><circle cx="36.1" cy="1074.7" r="0.7"/><circle cx="697.7" cy="1081.4" r="1.2"/><circle cx="1121.5" cy="350.8" r="1.3"/><circle cx="293.9" cy="929.2" r="1"/><circle cx="459.9" cy="1422.4" r="0.9"/><circle cx="1136" cy="221.7" r="1.1"/><circle cx="459.7" cy="989" r="1.1"/><circle cx="515.5" cy="424.4" r="0.7"/><circle cx="1565.2" cy="1052.1" r="0.8"/><circle cx="899.1" cy="1049.2" r="0.6"/><circle cx="121.4" cy="174.7" r="0.9"/><circle cx="958" cy="1564.7" r="1"/><circle cx="1364.8" cy="1578.9" r="0.8"/><circle cx="674.7" cy="753.9" r="0.7"/><circle cx="1216.2" cy="920.3" r="0.5"/><circle cx="1528.7" cy="842.3" r="1.1"/><circle cx="875.9" cy="941.6" r="0.9"/><circle cx="183.5" cy="209.3" r="1.1"/><circle cx="559.3" cy="206.1" r="1.1"/><circle cx="1196.7" cy="1222.2" r="0.7"/><circle cx="210.7" cy="1215.3" r="0.6"/><circle cx="1069.1" cy="1114.3" r="0.6"/><circle cx="3.5" cy="944.5" r="1.1"/><circle cx="941.5" cy="1575" r="0.6"/><circle cx="1169.7" cy="696.5" r="0.9"/><circle cx="483.5" cy="368.7" r="0.9"/><circle cx="971.9" cy="1455.3" r="0.9"/><circle cx="799.5" cy="1041.5" r="1"/><circle cx="652.7" cy="426.6" r="1"/><circle cx="619" cy="59.6" r="0.6"/><circle cx="574.4" cy="1098.5" r="1"/><circle cx="784.3" cy="1306.2" r="0.7"/><circle cx="561.7" cy="1201.9" r="1"/><circle cx="681.4" cy="1423.1" r="0.4"/><circle cx="858.2" cy="1373.3" r="1.2"/><circle cx="309" cy="1291.7" r="0.9"/><circle cx="1496.3" cy="525.2" r="1"/><circle cx="1027" cy="1584.8" r="0.7"/><circle cx="623.4" cy="199.5" r="1"/><circle cx="112.6" cy="1358.8" r="0.5"/><circle cx="305" cy="1520" r="0.8"/><circle cx="1207.7" cy="553" r="0.6"/><circle cx="589.6" cy="1572.4" r="0.6"/><circle cx="1447.8" cy="1412.6" r="1"/><circle cx="425.2" cy="1168.8" r="1.2"/><circle cx="948.6" cy="352.1" r="0.9"/><circle cx="1530.4" cy="945.2" r="0.5"/><circle cx="323.9" cy="1008.4" r="0.4"/><circle cx="2.1" cy="598.5" r="0.6"/><circle cx="789.7" cy="117.5" r="0.9"/><circle cx="1081" cy="507.2" r="0.9"/><circle cx="843.4" cy="1262.7" r="0.9"/><circle cx="1021" cy="902" r="1.1"/><circle cx="154.4" cy="182.3" r="1.2"/><circle cx="1334.6" cy="12.8" r="1.2"/><circle cx="974.3" cy="1369.7" r="1"/><circle cx="601.9" cy="182.1" r="1.1"/><circle cx="1136.1" cy="752.4" r="0.6"/><circle cx="582.7" cy="1497.6" r="0.8"/><circle cx="336" cy="1578.1" r="1.3"/><circle cx="282.8" cy="315" r="1.1"/><circle cx="619" cy="758.4" r="1"/><circle cx="437.1" cy="951" r="0.6"/><circle cx="354.1" cy="872.8" r="0.8"/><circle cx="1431.2" cy="229.1" r="1.2"/><circle cx="419" cy="548.6" r="0.5"/><circle cx="505.7" cy="1569.2" r="0.7"/><circle cx="1337.5" cy="1562.3" r="1"/><circle cx="294.9" cy="690.3" r="0.6"/><circle cx="399.4" cy="535.9" r="0.5"/><circle cx="1087.7" cy="836.4" r="0.7"/><circle cx="407.4" cy="227.6" r="0.5"/><circle cx="701.9" cy="119.9" r="0.9"/><circle cx="408.5" cy="1235.5" r="0.6"/><circle cx="1369.7" cy="1512.6" r="1.2"/><circle cx="364.1" cy="1486.4" r="0.8"/><circle cx="1415.4" cy="742.6" r="0.9"/><circle cx="414" cy="1211.9" r="0.7"/><circle cx="1414.1" cy="1132" r="0.8"/><circle cx="49.8" cy="429.8" r="0.8"/><circle cx="592.5" cy="932.3" r="0.4"/><circle cx="748.1" cy="1428" r="1.3"/><circle cx="1101.9" cy="1098.4" r="0.9"/><circle cx="1598.8" cy="1264.2" r="0.8"/><circle cx="792.9" cy="1503.2" r="0.9"/><circle cx="957.3" cy="492.1" r="1"/><circle cx="781.5" cy="1509.5" r="1.3"/><circle cx="1593.7" cy="1521.2" r="0.4"/><circle cx="116.5" cy="542.6" r="1.1"/><circle cx="893.2" cy="410.8" r="0.5"/><circle cx="400.1" cy="203.7" r="0.5"/><circle cx="1191.8" cy="309.1" r="0.6"/><circle cx="991.8" cy="208.8" r="1.2"/><circle cx="1040.3" cy="1404.4" r="1.1"/><circle cx="1169" cy="427.8" r="0.8"/><circle cx="607.8" cy="627.2" r="1.2"/><circle cx="697.7" cy="1278.7" r="1"/><circle cx="132.3" cy="336.8" r="0.9"/><circle cx="1263" cy="372.9" r="0.6"/><circle cx="603.2" cy="734.4" r="0.8"/><circle cx="1479.9" cy="972.9" r="0.7"/><circle cx="550.6" cy="812.3" r="0.5"/><circle cx="627.2" cy="103.9" r="1"/><circle cx="1387.6" cy="1438.1" r="0.9"/><circle cx="615.5" cy="895.9" r="0.9"/><circle cx="282.4" cy="864.6" r="0.8"/><circle cx="315.7" cy="708.5" r="1.2"/><circle cx="1026.3" cy="526.5" r="0.6"/><circle cx="1008.5" cy="884.4" r="0.7"/><circle cx="753.8" cy="650.8" r="1"/><circle cx="1405.4" cy="596.5" r="0.9"/><circle cx="899.2" cy="1067.6" r="0.6"/><circle cx="395.1" cy="1475.9" r="0.5"/><circle cx="1089.6" cy="416.2" r="0.8"/><circle cx="722.2" cy="382.5" r="0.6"/><circle cx="1531.8" cy="61.8" r="0.5"/><circle cx="1182.2" cy="594" r="0.6"/><circle cx="1242.1" cy="1570.5" r="0.6"/><circle cx="1131.1" cy="634.3" r="1.3"/><circle cx="954.8" cy="1431.8" r="1"/><circle cx="210.6" cy="706.8" r="1"/><circle cx="244.7" cy="140.9" r="1.3"/><circle cx="1477.9" cy="1041.3" r="0.5"/><circle cx="1121.7" cy="1582.2" r="1.1"/><circle cx="1144.5" cy="703.7" r="1"/><circle cx="1482.2" cy="799.2" r="0.5"/><circle cx="232.3" cy="1523.8" r="1"/><circle cx="1496.4" cy="236.7" r="0.5"/><circle cx="1093.1" cy="685.2" r="0.8"/><circle cx="372.3" cy="1221.2" r="1.1"/><circle cx="1161.5" cy="687.7" r="0.8"/><circle cx="632.9" cy="744.6" r="0.7"/><circle cx="750.3" cy="1539.7" r="1.1"/><circle cx="216.4" cy="1072.9" r="1.1"/><circle cx="551.7" cy="1422.4" r="1.2"/><circle cx="113" cy="1000.3" r="0.7"/><circle cx="746.4" cy="877.3" r="1.2"/><circle cx="1009.3" cy="1421.3" r="0.6"/><circle cx="1275" cy="626.8" r="0.6"/><circle cx="1285" cy="923.7" r="0.6"/><circle cx="1429.6" cy="786.6" r="1"/><circle cx="1576.6" cy="522.9" r="0.9"/><circle cx="874.2" cy="456.6" r="0.9"/><circle cx="1545.6" cy="1115.7" r="0.6"/><circle cx="1093.5" cy="984.7" r="0.7"/><circle cx="1073.9" cy="601.4" r="1.1"/><circle cx="620.6" cy="1318.6" r="0.7"/><circle cx="274.8" cy="527" r="0.5"/><circle cx="1399.9" cy="1593" r="0.8"/><circle cx="384.2" cy="1411.1" r="1.2"/><circle cx="390.9" cy="488.9" r="0.8"/><circle cx="211.4" cy="337.3" r="0.8"/><circle cx="191.2" cy="231.1" r="0.9"/><circle cx="481.1" cy="1464.6" r="1.3"/><circle cx="1072.1" cy="439.8" r="1.1"/><circle cx="542" cy="1391.9" r="0.8"/><circle cx="1106.9" cy="1201.3" r="1"/><circle cx="1204.2" cy="547.7" r="0.5"/><circle cx="589.6" cy="1533.7" r="0.4"/><circle cx="451.5" cy="495.1" r="0.8"/><circle cx="1393" cy="275" r="0.5"/><circle cx="28.4" cy="543.6" r="1.1"/><circle cx="724.4" cy="1033.6" r="0.9"/><circle cx="576.7" cy="652" r="0.4"/><circle cx="1523.2" cy="1172.2" r="0.5"/><circle cx="324.6" cy="1253.1" r="0.9"/><circle cx="1198" cy="1202.7" r="0.5"/><circle cx="1316" cy="321.9" r="0.5"/><circle cx="1195.6" cy="1304.3" r="0.7"/><circle cx="616.6" cy="1174.8" r="0.7"/><circle cx="711.7" cy="1587.5" r="0.5"/><circle cx="1509.4" cy="1419.6" r="1.3"/><circle cx="392.4" cy="317.2" r="0.8"/><circle cx="273.7" cy="1479.4" r="0.9"/><circle cx="1347.1" cy="786.2" r="0.8"/><circle cx="1529.4" cy="200.1" r="0.6"/><circle cx="1370.3" cy="942.6" r="1.1"/><circle cx="1592.1" cy="1235.1" r="0.9"/><circle cx="1202.2" cy="851.5" r="0.6"/><circle cx="520.3" cy="1479.6" r="0.9"/><circle cx="51.4" cy="1026.4" r="1.3"/><circle cx="1001.6" cy="787.5" r="0.8"/><circle cx="1009.1" cy="983.8" r="0.8"/><circle cx="1445.5" cy="1418.9" r="1.1"/><circle cx="1160.7" cy="1150" r="0.6"/><circle cx="784.9" cy="426.6" r="0.6"/><circle cx="1520" cy="369.5" r="1.1"/><circle cx="1334.3" cy="647.5" r="0.4"/><circle cx="283.8" cy="1032.7" r="1"/><circle cx="567.8" cy="959.1" r="0.5"/><circle cx="1052.5" cy="1250.8" r="1.1"/><circle cx="900.6" cy="917.6" r="0.4"/><circle cx="426.3" cy="650.4" r="0.5"/><circle cx="117.6" cy="1531.8" r="1"/><circle cx="899.9" cy="1103.1" r="1.2"/><circle cx="1015.9" cy="683.2" r="0.8"/><circle cx="1552.8" cy="1526.6" r="0.5"/><circle cx="1309.4" cy="1028.3" r="0.7"/><circle cx="1111.2" cy="439.4" r="1.1"/><circle cx="894.3" cy="936" r="0.5"/><circle cx="1445.2" cy="1529.6" r="1.1"/><circle cx="469.3" cy="1156" r="0.5"/><circle cx="874.4" cy="552.6" r="0.8"/><circle cx="463.3" cy="113.2" r="0.8"/><circle cx="380" cy="280.3" r="0.7"/><circle cx="199.3" cy="35.4" r="1.3"/><circle cx="88.5" cy="1428.9" r="0.8"/><circle cx="192.9" cy="686.4" r="0.9"/><circle cx="89" cy="868.4" r="0.4"/><circle cx="477.8" cy="1137.6" r="1.2"/><circle cx="284.8" cy="650.7" r="1.3"/><circle cx="504.1" cy="188.7" r="0.6"/><circle cx="1384.9" cy="551.6" r="1"/><circle cx="1500.4" cy="994.5" r="0.6"/><circle cx="769.3" cy="520.8" r="0.8"/><circle cx="984.2" cy="1561.7" r="1"/><circle cx="813.7" cy="1297.6" r="0.9"/><circle cx="309.2" cy="1072.4" r="0.6"/><circle cx="339.6" cy="622.1" r="0.8"/><circle cx="51.6" cy="577.2" r="1.3"/><circle cx="815.7" cy="588.8" r="0.8"/><circle cx="1117.4" cy="804.5" r="0.8"/><circle cx="928.9" cy="440.7" r="1"/><circle cx="678.3" cy="1128.7" r="0.7"/><circle cx="1021.5" cy="313.9" r="0.8"/><circle cx="787.7" cy="24.3" r="0.5"/><circle cx="736.5" cy="1224.3" r="1.1"/><circle cx="1350.3" cy="1289.8" r="1.3"/><circle cx="313.2" cy="241.7" r="0.5"/><circle cx="1268.1" cy="303.4" r="0.7"/><circle cx="221.5" cy="1454.1" r="0.6"/><circle cx="376.7" cy="951" r="1"/><circle cx="61.5" cy="927.8" r="0.9"/><circle cx="886.8" cy="824.8" r="1.1"/><circle cx="1316" cy="1377.4" r="0.7"/><circle cx="66.8" cy="753" r="0.4"/><circle cx="1018.4" cy="767.8" r="1.1"/><circle cx="1333.2" cy="1172.1" r="1"/><circle cx="532.6" cy="1161.8" r="1"/><circle cx="350.4" cy="1390.5" r="0.8"/><circle cx="849.7" cy="316.2" r="1.1"/><circle cx="758" cy="1187.6" r="1.2"/><circle cx="830.5" cy="936.3" r="0.8"/><circle cx="380.2" cy="1278.6" r="1.2"/><circle cx="55.6" cy="52.9" r="0.8"/><circle cx="127.8" cy="701.7" r="0.7"/><circle cx="385.4" cy="1240.8" r="0.9"/><circle cx="1474.7" cy="311.1" r="0.7"/><circle cx="987.1" cy="1236.4" r="0.8"/><circle cx="297.6" cy="616.9" r="0.9"/><circle cx="1547.7" cy="1041.7" r="1.2"/><circle cx="1334" cy="685.8" r="0.9"/><circle cx="1333.8" cy="1157.2" r="0.8"/><circle cx="301.9" cy="1170.7" r="0.7"/><circle cx="423.7" cy="401.4" r="1"/><circle cx="1034.3" cy="1499.2" r="0.9"/><circle cx="773.6" cy="1415.1" r="0.5"/><circle cx="942.5" cy="1579.8" r="0.7"/><circle cx="243.5" cy="182" r="0.4"/><circle cx="1171.8" cy="659.9" r="1.1"/><circle cx="1336.6" cy="41.6" r="0.7"/><circle cx="422.2" cy="422.2" r="0.4"/><circle cx="408" cy="543.7" r="0.8"/><circle cx="849.7" cy="1575.8" r="0.5"/><circle cx="214.6" cy="1445.3" r="0.7"/><circle cx="861.9" cy="488.2" r="1.2"/><circle cx="1494.8" cy="912.3" r="0.5"/><circle cx="594.5" cy="1126.4" r="0.9"/><circle cx="448.5" cy="635.1" r="0.5"/><circle cx="645.7" cy="1319.3" r="0.7"/><circle cx="746" cy="268.5" r="1"/><circle cx="667" cy="616.6" r="1.1"/><circle cx="474.8" cy="124.1" r="1"/><circle cx="1181.1" cy="84.8" r="0.7"/><circle cx="1417.6" cy="814.3" r="0.8"/><circle cx="208.2" cy="461.2" r="0.9"/><circle cx="1464" cy="1059.8" r="1.3"/><circle cx="652" cy="110.4" r="0.7"/><circle cx="586.2" cy="91.2" r="0.5"/><circle cx="1457.6" cy="1432.5" r="0.5"/><circle cx="131.4" cy="1568.9" r="0.6"/><circle cx="482.6" cy="361.3" r="0.6"/><circle cx="49.8" cy="739" r="1.1"/><circle cx="113.8" cy="786.3" r="0.5"/><circle cx="1260.4" cy="1446.9" r="1.2"/><circle cx="853.8" cy="226.7" r="1"/><circle cx="111.6" cy="1240.3" r="0.7"/><circle cx="1427.6" cy="455.8" r="1.1"/><circle cx="792.5" cy="382.8" r="0.8"/><circle cx="688.9" cy="249.2" r="0.9"/><circle cx="851.6" cy="1119.9" r="0.7"/><circle cx="983.4" cy="317.2" r="0.9"/><circle cx="383.7" cy="1257.2" r="0.6"/><circle cx="465.6" cy="111.7" r="0.7"/><circle cx="865.9" cy="365.1" r="0.5"/><circle cx="1429.3" cy="496.6" r="0.6"/><circle cx="638.6" cy="1346" r="1.1"/><circle cx="1444.2" cy="873.1" r="0.7"/><circle cx="802" cy="93.5" r="1"/><circle cx="1342.2" cy="1464.9" r="1.1"/><circle cx="1035.3" cy="1286.6" r="0.7"/><circle cx="899.4" cy="260.9" r="1.2"/><circle cx="819.7" cy="282.1" r="1.3"/><circle cx="992.4" cy="339.8" r="1.2"/><circle cx="1001.9" cy="995.9" r="1.2"/><circle cx="505.5" cy="444.3" r="0.9"/><circle cx="325.3" cy="1118.1" r="0.8"/><circle cx="320.5" cy="199.4" r="0.5"/><circle cx="921.6" cy="1463" r="1.1"/><circle cx="1357.4" cy="906.7" r="1.1"/><circle cx="528.6" cy="588.7" r="1.2"/><circle cx="413.7" cy="997.4" r="0.9"/><circle cx="83.4" cy="906" r="1.1"/><circle cx="1422.3" cy="669.8" r="1.2"/><circle cx="60.8" cy="1450.7" r="1"/><circle cx="1296.8" cy="716.6" r="0.9"/><circle cx="1320.8" cy="357.7" r="0.6"/><circle cx="1205.1" cy="1401.7" r="0.6"/><circle cx="874.9" cy="812.2" r="0.7"/><circle cx="1348.9" cy="452.5" r="1.1"/><circle cx="659.6" cy="234.4" r="1.3"/><circle cx="236" cy="162.8" r="0.4"/><circle cx="561.1" cy="42.7" r="0.5"/><circle cx="1505.6" cy="406.9" r="1"/><circle cx="341.4" cy="21.5" r="0.4"/><circle cx="195.1" cy="1525.6" r="0.8"/><circle cx="399.5" cy="75.2" r="1"/><circle cx="505.9" cy="288.5" r="0.8"/><circle cx="1137.9" cy="546.6" r="0.9"/><circle cx="301.5" cy="894.7" r="0.4"/><circle cx="1476.4" cy="1485.4" r="0.9"/><circle cx="758" cy="635.5" r="1.1"/><circle cx="925.7" cy="1135.4" r="0.8"/><circle cx="640" cy="1156.8" r="0.6"/><circle cx="547.2" cy="384.6" r="0.6"/><circle cx="1381.4" cy="499.4" r="1.1"/><circle cx="77.7" cy="1479.3" r="0.8"/><circle cx="1190.5" cy="169.8" r="0.9"/><circle cx="1298.9" cy="462.5" r="0.5"/><circle cx="612.8" cy="1230.8" r="1.1"/><circle cx="102.7" cy="518.7" r="1.2"/><circle cx="461.8" cy="137.9" r="1.2"/><circle cx="1311.8" cy="713" r="1"/><circle cx="1201.8" cy="1338.7" r="0.6"/><circle cx="1168.1" cy="1477.6" r="1.1"/><circle cx="835.3" cy="630.3" r="1.3"/><circle cx="1589.3" cy="1287.5" r="0.9"/><circle cx="1428.9" cy="1399.1" r="0.9"/><circle cx="211.2" cy="979.6" r="0.5"/><circle cx="535.7" cy="909.7" r="0.9"/><circle cx="1030.5" cy="1312.8" r="1.3"/><circle cx="496.5" cy="1526.7" r="0.7"/><circle cx="557.7" cy="1209.8" r="1.3"/><circle cx="811.3" cy="1273.2" r="1.1"/><circle cx="503.9" cy="987.7" r="1.2"/><circle cx="32.6" cy="198.6" r="1.2"/><circle cx="905.8" cy="671.6" r="1.1"/><circle cx="710.2" cy="222.3" r="0.7"/><circle cx="1217" cy="1026.7" r="0.8"/><circle cx="17.9" cy="1594.5" r="0.5"/><circle cx="445.1" cy="1264" r="1.2"/><circle cx="1100.8" cy="611.3" r="1.1"/><circle cx="1069" cy="925.3" r="1.1"/><circle cx="884.4" cy="861" r="0.6"/><circle cx="1244" cy="171.2" r="0.5"/><circle cx="1007.1" cy="74.1" r="1.2"/><circle cx="308.4" cy="747.3" r="0.6"/><circle cx="771.3" cy="986" r="0.6"/><circle cx="870.2" cy="1556.6" r="0.5"/><circle cx="349.6" cy="312.4" r="0.5"/><circle cx="19.7" cy="1533.9" r="1.3"/><circle cx="62.6" cy="1333.2" r="0.9"/><circle cx="332.1" cy="1412.1" r="0.5"/><circle cx="1024.3" cy="1075.9" r="1"/><circle cx="378.9" cy="239.1" r="1"/><circle cx="470.1" cy="968.7" r="1.1"/><circle cx="52" cy="1160.8" r="1.3"/><circle cx="645.2" cy="919.7" r="0.7"/><circle cx="1408.1" cy="355.8" r="0.5"/><circle cx="804.4" cy="710.9" r="0.9"/><circle cx="326.4" cy="1485.7" r="0.9"/><circle cx="622.2" cy="1195.5" r="0.4"/><circle cx="1473.7" cy="1335.1" r="0.6"/><circle cx="725.2" cy="62.5" r="1.1"/><circle cx="1557.5" cy="954" r="1.3"/><circle cx="755.6" cy="1389" r="1.2"/><circle cx="1481.2" cy="735.3" r="0.9"/><circle cx="55.8" cy="1522" r="0.5"/><circle cx="929.8" cy="964.4" r="0.6"/><circle cx="560.6" cy="479.9" r="0.4"/><circle cx="639.9" cy="610.5" r="1"/><circle cx="1119.3" cy="1516.7" r="1.2"/><circle cx="410" cy="977.6" r="1"/><circle cx="1262.2" cy="224.5" r="0.7"/><circle cx="982.6" cy="504" r="1.2"/><circle cx="663" cy="1132.3" r="0.5"/><circle cx="1436.6" cy="1556.3" r="1.3"/><circle cx="546" cy="1333.4" r="1.3"/><circle cx="171.2" cy="118.6" r="1"/><circle cx="1581.4" cy="49" r="1.2"/><circle cx="1056.3" cy="760.1" r="0.5"/><circle cx="811.2" cy="797.5" r="0.6"/><circle cx="1440.2" cy="1183.8" r="0.5"/><circle cx="994.4" cy="956.9" r="1.2"/><circle cx="1570.1" cy="1423.6" r="0.4"/><circle cx="673.9" cy="245.8" r="1.1"/><circle cx="131.9" cy="1325.5" r="1"/><circle cx="1027.4" cy="1511.8" r="1.2"/><circle cx="1171.3" cy="1004.6" r="0.9"/><circle cx="828.7" cy="46.2" r="0.6"/><circle cx="1102" cy="663.8" r="0.8"/><circle cx="1353.4" cy="617.9" r="1.1"/><circle cx="1286.4" cy="1331.1" r="0.6"/><circle cx="972.1" cy="747.2" r="0.9"/><circle cx="138.1" cy="303.8" r="0.6"/><circle cx="1254.8" cy="1253.1" r="0.7"/><circle cx="968.9" cy="704.8" r="0.9"/><circle cx="426.8" cy="550.1" r="1.3"/><circle cx="1415.8" cy="194" r="0.5"/><circle cx="1383.8" cy="709.6" r="1"/><circle cx="965" cy="966.9" r="1.2"/><circle cx="245.8" cy="1377" r="0.6"/><circle cx="121.4" cy="475" r="0.9"/><circle cx="1283.9" cy="928.4" r="1.3"/><circle cx="302.6" cy="606.7" r="0.9"/><circle cx="945.3" cy="1113.8" r="0.9"/><circle cx="161.2" cy="1251.2" r="1.1"/><circle cx="114.1" cy="1301" r="0.4"/><circle cx="1094.9" cy="996" r="0.7"/><circle cx="143.3" cy="412.2" r="1"/><circle cx="854" cy="1301.6" r="0.6"/><circle cx="992.6" cy="485.6" r="0.4"/><circle cx="299.5" cy="177.3" r="0.5"/><circle cx="60.4" cy="1561.3" r="0.7"/><circle cx="1212" cy="675.4" r="0.9"/><circle cx="402.7" cy="1511.3" r="0.6"/><circle cx="1535.8" cy="1247.6" r="1.2"/><circle cx="155.6" cy="1578.7" r="1"/><circle cx="927" cy="907.7" r="0.8"/><circle cx="1525.5" cy="1569.6" r="1.3"/><circle cx="226.3" cy="847.9" r="1"/><circle cx="293.5" cy="1425.2" r="1.1"/><circle cx="193" cy="474.7" r="1"/><circle cx="1410.5" cy="1597.1" r="0.6"/><circle cx="1337.7" cy="938" r="0.7"/><circle cx="384.4" cy="168.9" r="0.4"/><circle cx="688.4" cy="193.5" r="0.6"/><circle cx="515.1" cy="217.4" r="0.6"/><circle cx="410" cy="1560.7" r="0.8"/><circle cx="987.9" cy="865.3" r="1.3"/><circle cx="1321.6" cy="1482.3" r="1.2"/><circle cx="1181" cy="1401.7" r="0.7"/><circle cx="972.5" cy="529.6" r="1.2"/><circle cx="428.5" cy="1599.6" r="0.6"/><circle cx="543.7" cy="1188" r="0.9"/><circle cx="343.3" cy="203.4" r="1.2"/><circle cx="331.6" cy="816.1" r="1.2"/><circle cx="777.3" cy="763" r="0.5"/><circle cx="1497.6" cy="962.5" r="1"/><circle cx="629.5" cy="1138.7" r="0.7"/><circle cx="285.9" cy="569.9" r="1.1"/><circle cx="1382.1" cy="822.5" r="1"/><circle cx="1495.2" cy="1040.1" r="1.3"/><circle cx="404.4" cy="1395.9" r="1.1"/><circle cx="912.9" cy="948.1" r="0.6"/><circle cx="26.9" cy="50" r="1.2"/><circle cx="637" cy="962.8" r="0.8"/><circle cx="1405.9" cy="1179.4" r="0.7"/><circle cx="1021.8" cy="342.8" r="1.2"/><circle cx="256.1" cy="1458.7" r="0.9"/><circle cx="236" cy="1574.1" r="0.6"/><circle cx="1085.4" cy="415.8" r="0.5"/><circle cx="1266.2" cy="1424.5" r="1.2"/><circle cx="1076.8" cy="1027.9" r="0.5"/><circle cx="1596.9" cy="524.4" r="1"/><circle cx="40.9" cy="506.2" r="0.9"/><circle cx="758" cy="661.4" r="0.7"/><circle cx="30.5" cy="1033.7" r="0.7"/><circle cx="180.4" cy="589.4" r="1"/><circle cx="1190" cy="665" r="0.5"/><circle cx="1001.7" cy="960" r="0.8"/><circle cx="1551.7" cy="586.1" r="0.9"/><circle cx="48.1" cy="212.7" r="0.6"/><circle cx="298.9" cy="279.3" r="0.5"/><circle cx="1471.1" cy="939.7" r="0.8"/><circle cx="898.9" cy="453" r="1.2"/><circle cx="1177.3" cy="683" r="0.4"/><circle cx="0.4" cy="56.5" r="1.1"/><circle cx="49.4" cy="719.3" r="0.9"/><circle cx="593" cy="475.8" r="1.2"/><circle cx="1526.9" cy="1207.8" r="0.9"/><circle cx="1523" cy="1123.1" r="0.6"/><circle cx="224.2" cy="233.2" r="0.5"/><circle cx="623.6" cy="972.4" r="0.6"/><circle cx="130.3" cy="539.1" r="0.8"/><circle cx="1407.2" cy="1425.9" r="1.1"/><circle cx="416.3" cy="1317.3" r="0.7"/><circle cx="936.5" cy="855.3" r="0.6"/><circle cx="865.4" cy="421.2" r="1.1"/><circle cx="376.2" cy="1250.6" r="0.6"/><circle cx="13.9" cy="702.2" r="1.2"/><circle cx="1016.2" cy="403.9" r="0.9"/><circle cx="529.9" cy="1060" r="0.7"/><circle cx="268.4" cy="1598.4" r="0.4"/><circle cx="217.5" cy="510.8" r="0.7"/><circle cx="886.3" cy="792" r="0.5"/><circle cx="1327.5" cy="1134.9" r="0.6"/><circle cx="270.7" cy="179.1" r="0.9"/><circle cx="1018.3" cy="1151.8" r="0.6"/><circle cx="1384.9" cy="1442.8" r="0.8"/><circle cx="191.8" cy="278.1" r="1"/><circle cx="106.1" cy="999" r="1"/><circle cx="32.5" cy="235.4" r="0.6"/><circle cx="701.1" cy="1360.8" r="1.1"/><circle cx="622.7" cy="19.2" r="0.9"/><circle cx="312.2" cy="462.7" r="1.2"/><circle cx="460.5" cy="631.5" r="1"/><circle cx="1491.9" cy="97.9" r="0.9"/><circle cx="1059.3" cy="201.8" r="0.5"/><circle cx="533.4" cy="542.2" r="1"/><circle cx="1549.7" cy="1060" r="0.8"/><circle cx="1595" cy="1494.7" r="0.8"/><circle cx="752.4" cy="828.1" r="0.5"/><circle cx="1030.3" cy="1139.9" r="0.8"/><circle cx="935.1" cy="1453.6" r="1"/><circle cx="1102.3" cy="1413.1" r="1.1"/><circle cx="732.5" cy="1531.1" r="1.3"/><circle cx="128.2" cy="1599.9" r="0.6"/><circle cx="1407.1" cy="1027.5" r="1.1"/><circle cx="554" cy="458.1" r="0.6"/><circle cx="194.4" cy="182.4" r="0.6"/><circle cx="1312" cy="860.6" r="1.2"/><circle cx="1578.3" cy="703.5" r="0.6"/><circle cx="1434.3" cy="180.7" r="0.9"/><circle cx="1351.7" cy="199.5" r="0.6"/><circle cx="1042.4" cy="155.8" r="1.2"/><circle cx="1196.2" cy="887.2" r="1.1"/><circle cx="223.2" cy="1355.3" r="0.9"/><circle cx="613.7" cy="1302.6" r="0.8"/><circle cx="68.8" cy="1117.6" r="0.4"/><circle cx="900.3" cy="348.3" r="0.8"/><circle cx="671.1" cy="1117.6" r="1"/><circle cx="563" cy="366.5" r="1.1"/><circle cx="104.3" cy="933.9" r="1.1"/><circle cx="1005.5" cy="42.1" r="0.5"/><circle cx="1027.9" cy="1258.3" r="1"/><circle cx="1575.7" cy="1120.3" r="0.8"/><circle cx="1531.4" cy="380.2" r="0.5"/><circle cx="624.6" cy="44.7" r="0.9"/><circle cx="854" cy="301.9" r="0.9"/><circle cx="751" cy="1118.8" r="1.1"/><circle cx="1278.3" cy="1093.7" r="0.5"/><circle cx="918.5" cy="1067.3" r="0.6"/><circle cx="594.6" cy="833.7" r="0.6"/><circle cx="131.8" cy="457.2" r="0.8"/><circle cx="1237.4" cy="1577.3" r="1.2"/><circle cx="1428.4" cy="1573.1" r="0.9"/><circle cx="990.1" cy="46.2" r="1"/><circle cx="1337.9" cy="553.1" r="0.9"/><circle cx="154.1" cy="1499.8" r="0.8"/><circle cx="733.6" cy="354.8" r="1.2"/><circle cx="1525.1" cy="659.5" r="0.9"/><circle cx="458.8" cy="1124.7" r="1"/><circle cx="1354" cy="28.3" r="0.9"/><circle cx="1550.6" cy="39" r="1"/><circle cx="601.8" cy="185.2" r="0.7"/><circle cx="1540.5" cy="343.2" r="0.8"/><circle cx="1386.5" cy="175.1" r="0.4"/><circle cx="964.9" cy="997.7" r="0.4"/><circle cx="1341" cy="1228.1" r="0.9"/><circle cx="388.8" cy="1477.3" r="0.6"/><circle cx="1598.8" cy="881.8" r="1.2"/><circle cx="872.5" cy="969.2" r="1.2"/><circle cx="700.1" cy="501.1" r="1.3"/><circle cx="1590.8" cy="204.3" r="1.2"/><circle cx="1217.6" cy="336.2" r="0.6"/><circle cx="92.8" cy="1339.1" r="0.5"/><circle cx="1338.6" cy="1272.8" r="1.3"/><circle cx="179.8" cy="1296.6" r="0.5"/><circle cx="177.7" cy="1353.7" r="0.5"/><circle cx="1178.7" cy="1578.2" r="0.8"/><circle cx="675.9" cy="1432.3" r="1"/><circle cx="1574.9" cy="1105.9" r="0.8"/><circle cx="72.8" cy="1428.1" r="1.1"/><circle cx="222.1" cy="1105" r="0.6"/><circle cx="703.7" cy="253.5" r="0.5"/><circle cx="748.1" cy="1143.2" r="1"/><circle cx="1361.2" cy="1459.8" r="1.1"/><circle cx="399.4" cy="1239.7" r="1.1"/><circle cx="185.3" cy="23.5" r="1.2"/><circle cx="275.3" cy="1393.5" r="1.3"/><circle cx="671.4" cy="845" r="0.5"/><circle cx="123" cy="1361" r="1"/><circle cx="414.5" cy="306.8" r="0.5"/><circle cx="1224.9" cy="435.4" r="0.4"/><circle cx="1317.4" cy="502.6" r="0.6"/><circle cx="904.9" cy="587.2" r="0.9"/><circle cx="733.4" cy="865.7" r="0.6"/><circle cx="802.5" cy="1529.7" r="0.6"/><circle cx="669.8" cy="739.5" r="0.8"/><circle cx="548" cy="1004.6" r="1.2"/><circle cx="240.1" cy="715.2" r="1.3"/><circle cx="1.4" cy="1109" r="0.7"/><circle cx="808.4" cy="1162.7" r="0.6"/><circle cx="105.9" cy="1023.1" r="1.3"/><circle cx="728" cy="1496.8" r="0.9"/><circle cx="1086.8" cy="1058.4" r="1.1"/><circle cx="1040.9" cy="1097.2" r="1"/><circle cx="403.4" cy="1412.5" r="0.9"/><circle cx="802.5" cy="1010.3" r="0.7"/><circle cx="384.3" cy="1463.2" r="0.6"/><circle cx="572.2" cy="946.4" r="0.8"/><circle cx="147.6" cy="435.5" r="1.1"/><circle cx="220.1" cy="770.5" r="0.5"/><circle cx="122.2" cy="1565.4" r="0.8"/><circle cx="748.4" cy="117.3" r="0.5"/><circle cx="825.2" cy="1488.5" r="1.2"/><circle cx="638.6" cy="819.2" r="0.6"/><circle cx="1334.6" cy="221.3" r="0.7"/><circle cx="306.8" cy="1182.7" r="1.2"/><circle cx="705.2" cy="528.9" r="1.2"/><circle cx="158.6" cy="1223.7" r="0.7"/><circle cx="1452.7" cy="410.6" r="1.2"/><circle cx="1362.2" cy="501.3" r="0.6"/><circle cx="1012.2" cy="121.1" r="0.9"/><circle cx="493.5" cy="1067.9" r="0.5"/><circle cx="1102.4" cy="427.5" r="0.9"/><circle cx="1155.8" cy="267.4" r="0.7"/><circle cx="1142.8" cy="1102.2" r="1.2"/><circle cx="46.9" cy="623.3" r="0.7"/><circle cx="1414.8" cy="799.1" r="0.7"/><circle cx="255.1" cy="710.5" r="0.7"/><circle cx="33.6" cy="1007.5" r="1.2"/><circle cx="650.3" cy="721.3" r="1.2"/><circle cx="1527.7" cy="1537" r="1.1"/><circle cx="293.4" cy="579.4" r="0.7"/><circle cx="1282.8" cy="1257.8" r="1.1"/><circle cx="245.7" cy="362.6" r="1.3"/><circle cx="544.2" cy="951" r="0.8"/><circle cx="1147.9" cy="8.1" r="1.1"/><circle cx="1454.8" cy="1111.6" r="0.7"/><circle cx="1109" cy="337.6" r="1.1"/><circle cx="1278.5" cy="949.8" r="1.1"/><circle cx="1108.7" cy="1230.8" r="1.2"/><circle cx="1215.3" cy="1457.2" r="1"/><circle cx="133.7" cy="320.2" r="1.2"/><circle cx="141.7" cy="1389.1" r="1"/><circle cx="224" cy="1418.2" r="1"/><circle cx="346.5" cy="549.6" r="1"/><circle cx="999.4" cy="932.5" r="1.2"/><circle cx="509.2" cy="1369.9" r="1.3"/><circle cx="1361" cy="698.8" r="0.6"/><circle cx="800.8" cy="635.5" r="1"/><circle cx="141.3" cy="468.7" r="0.5"/><circle cx="196.6" cy="497" r="0.9"/><circle cx="1265.9" cy="598.9" r="1.2"/><circle cx="795.2" cy="1531.8" r="0.7"/><circle cx="518.1" cy="258.3" r="1.1"/><circle cx="947.1" cy="1519.2" r="0.8"/><circle cx="1223.6" cy="263.2" r="1.2"/><circle cx="117.3" cy="302.7" r="1.3"/><circle cx="113.1" cy="1533.3" r="1.3"/><circle cx="102.9" cy="671.2" r="1.1"/><circle cx="1551.9" cy="864.9" r="1.2"/><circle cx="679" cy="1194" r="0.5"/><circle cx="1049.8" cy="337" r="1.1"/><circle cx="452.1" cy="44.5" r="0.8"/><circle cx="369.2" cy="810" r="0.4"/><circle cx="692.2" cy="352.4" r="0.7"/><circle cx="976.9" cy="1183.2" r="0.8"/><circle cx="684" cy="459.3" r="0.9"/><circle cx="1185.6" cy="382.8" r="0.5"/><circle cx="1125.3" cy="427.3" r="1.1"/><circle cx="887.7" cy="148.3" r="0.7"/><circle cx="1491.7" cy="1334" r="1"/><circle cx="1594.3" cy="1588.6" r="1.1"/><circle cx="1396.8" cy="799.9" r="1.2"/><circle cx="457.7" cy="1509.2" r="1.3"/><circle cx="1310.9" cy="1536.1" r="1"/><circle cx="1087.6" cy="178.8" r="1.1"/><circle cx="139.4" cy="1440.1" r="1.1"/><circle cx="1401.5" cy="1183.9" r="0.7"/><circle cx="963.1" cy="782.7" r="1.2"/><circle cx="955.8" cy="656.2" r="1"/><circle cx="1246.9" cy="1016.6" r="0.7"/><circle cx="1065.8" cy="912.8" r="0.5"/><circle cx="433.6" cy="234.3" r="0.9"/><circle cx="179.2" cy="1222.7" r="0.9"/><circle cx="219.6" cy="1124.8" r="1.1"/><circle cx="52.7" cy="1173.7" r="0.8"/><circle cx="1438" cy="1467.3" r="1"/><circle cx="1273.5" cy="299.3" r="1.1"/><circle cx="1119.5" cy="1197.2" r="0.8"/><circle cx="375.8" cy="607.5" r="0.6"/><circle cx="1057.9" cy="1085.6" r="1"/><circle cx="1259.8" cy="459.4" r="0.9"/><circle cx="1276" cy="1007.6" r="0.6"/><circle cx="457" cy="497.1" r="0.7"/><circle cx="1094.7" cy="603.4" r="0.6"/><circle cx="1517.5" cy="928.8" r="1.2"/><circle cx="689" cy="189.3" r="0.5"/><circle cx="1459.1" cy="42.7" r="0.5"/><circle cx="955.9" cy="655.1" r="0.4"/><circle cx="545.3" cy="939.7" r="0.5"/><circle cx="599.6" cy="392" r="0.9"/><circle cx="1420.8" cy="942.5" r="1.1"/><circle cx="1306.5" cy="21.7" r="0.5"/><circle cx="1310.4" cy="786.6" r="0.8"/><circle cx="1381.1" cy="404.9" r="0.8"/><circle cx="1279.3" cy="1133.8" r="0.5"/><circle cx="417" cy="1378.5" r="1"/><circle cx="633.5" cy="1436.1" r="0.9"/><circle cx="1409.5" cy="436" r="1"/><circle cx="605.6" cy="5.7" r="1"/><circle cx="823.5" cy="520.6" r="0.7"/><circle cx="666.1" cy="1012.4" r="1.3"/><circle cx="1163.8" cy="1510.8" r="0.7"/><circle cx="41.4" cy="247.7" r="1.2"/><circle cx="160.8" cy="1214.7" r="1.3"/><circle cx="1259.1" cy="783.9" r="0.6"/><circle cx="1344.1" cy="305.6" r="0.4"/><circle cx="765.8" cy="1476.3" r="1.3"/><circle cx="821.8" cy="65.1" r="0.8"/><circle cx="701.1" cy="1046.9" r="0.7"/><circle cx="650.8" cy="1367.9" r="1.1"/><circle cx="400.4" cy="871.9" r="0.4"/><circle cx="804.2" cy="20.7" r="1"/><circle cx="620.9" cy="1491" r="0.9"/><circle cx="266.5" cy="1211" r="0.8"/><circle cx="889.4" cy="1162.7" r="0.8"/><circle cx="845.7" cy="79" r="0.7"/><circle cx="116.3" cy="795.5" r="0.8"/><circle cx="338.4" cy="577.7" r="0.4"/><circle cx="1517.8" cy="1387.6" r="0.7"/><circle cx="1585.1" cy="1168.1" r="0.9"/><circle cx="490.1" cy="1122.3" r="1.1"/><circle cx="1262.8" cy="719.3" r="1.2"/><circle cx="347.6" cy="1267.6" r="1.3"/><circle cx="66" cy="265.1" r="1"/><circle cx="1080.1" cy="224.3" r="0.4"/><circle cx="1485.6" cy="1582.9" r="1.2"/><circle cx="100.8" cy="1193.5" r="0.8"/><circle cx="590" cy="481.7" r="1"/><circle cx="636.6" cy="265.9" r="0.4"/><circle cx="79.2" cy="675.1" r="1.1"/><circle cx="919.6" cy="1543.1" r="1.2"/><circle cx="1430.6" cy="862.6" r="0.9"/><circle cx="1110.5" cy="1014.4" r="0.6"/><circle cx="875.6" cy="729.9" r="0.8"/><circle cx="781.9" cy="812.6" r="0.9"/><circle cx="500.4" cy="245.5" r="1.3"/><circle cx="1203.1" cy="448.7" r="1.1"/><circle cx="1255.3" cy="528.7" r="0.7"/><circle cx="313.3" cy="27.3" r="0.6"/><circle cx="1457.4" cy="1553.5" r="1"/><circle cx="1559.5" cy="83.2" r="0.9"/><circle cx="1552.9" cy="422.1" r="0.4"/><circle cx="1491.1" cy="973.9" r="1.2"/><circle cx="132.7" cy="1330.6" r="0.9"/><circle cx="1386.1" cy="502.9" r="0.4"/><circle cx="1013.3" cy="546.7" r="0.5"/><circle cx="247.9" cy="147" r="0.9"/><circle cx="1242.8" cy="147.4" r="0.6"/><circle cx="1316.9" cy="391.8" r="0.9"/><circle cx="299.8" cy="1307.9" r="0.9"/><circle cx="141.8" cy="539.7" r="1"/><circle cx="380" cy="209.6" r="0.8"/><circle cx="34.5" cy="92.9" r="0.5"/><circle cx="479.3" cy="1304.9" r="1.2"/><circle cx="632.1" cy="1183.9" r="1.1"/><circle cx="1558.9" cy="356.6" r="1"/><circle cx="1434.8" cy="1193.9" r="0.4"/><circle cx="1334.3" cy="1229.9" r="0.9"/><circle cx="65.7" cy="129.2" r="0.4"/><circle cx="885.5" cy="956.9" r="0.5"/><circle cx="1335.9" cy="653.8" r="0.5"/><circle cx="937.3" cy="422.6" r="0.6"/><circle cx="337.5" cy="1260.7" r="0.5"/><circle cx="378.3" cy="222.3" r="1"/><circle cx="1083.8" cy="685.1" r="0.5"/><circle cx="32.2" cy="1485.5" r="0.9"/><circle cx="96.6" cy="1019.7" r="1.2"/><circle cx="326.1" cy="1511.5" r="0.6"/><circle cx="703.8" cy="699.9" r="1.3"/><circle cx="768.4" cy="1180.3" r="1"/><circle cx="452.2" cy="736.6" r="0.8"/><circle cx="530.2" cy="316.2" r="0.5"/><circle cx="1581.9" cy="1482.2" r="0.5"/><circle cx="1589.9" cy="544.8" r="1.1"/><circle cx="748.1" cy="755.4" r="0.8"/><circle cx="53.1" cy="833.1" r="0.6"/><circle cx="1471.8" cy="1010.5" r="0.7"/><circle cx="1339.4" cy="932.9" r="1"/><circle cx="1179.2" cy="1168" r="0.6"/><circle cx="1388.9" cy="1187.7" r="1.1"/><circle cx="1189.6" cy="374.6" r="1.3"/><circle cx="1163.2" cy="1465.3" r="0.7"/><circle cx="491" cy="1409.5" r="1.3"/><circle cx="1117.6" cy="237.9" r="0.7"/><circle cx="868.4" cy="14.4" r="0.7"/><circle cx="906.3" cy="1481.8" r="1"/><circle cx="1427.6" cy="329.9" r="1.2"/><circle cx="349.8" cy="402.9" r="1"/><circle cx="391.7" cy="19.6" r="1"/><circle cx="103.2" cy="1023" r="0.5"/><circle cx="810.1" cy="1437.9" r="0.8"/><circle cx="326.8" cy="1426.5" r="1.2"/><circle cx="759.4" cy="1181.5" r="0.6"/><circle cx="31.5" cy="359.8" r="0.9"/><circle cx="1254.7" cy="231.6" r="0.5"/><circle cx="476.3" cy="416" r="0.7"/><circle cx="1199" cy="583" r="1.1"/><circle cx="1045.5" cy="1463.8" r="0.9"/><circle cx="1555.7" cy="597.1" r="0.9"/><circle cx="319.7" cy="327.3" r="0.7"/><circle cx="1365.7" cy="1444.2" r="0.8"/><circle cx="563.3" cy="524.4" r="0.9"/><circle cx="735" cy="1588.7" r="1"/><circle cx="575.8" cy="903.4" r="0.8"/><circle cx="1535" cy="294.7" r="1.1"/><circle cx="453.2" cy="628.5" r="0.4"/><circle cx="400.4" cy="510.3" r="0.6"/><circle cx="1013.6" cy="194.7" r="0.7"/><circle cx="868.6" cy="852.6" r="0.9"/><circle cx="277.4" cy="416.9" r="1.1"/><circle cx="1584.8" cy="269.5" r="0.5"/><circle cx="1408.2" cy="1596.5" r="0.8"/><circle cx="1541.1" cy="950.9" r="1.2"/><circle cx="68.2" cy="35.2" r="1.2"/><circle cx="747.5" cy="172.2" r="1.1"/><circle cx="2" cy="309.6" r="1.1"/><circle cx="1187.7" cy="822" r="0.9"/><circle cx="952.2" cy="415.6" r="0.7"/><circle cx="994.9" cy="374.5" r="1.1"/><circle cx="1467" cy="1003.8" r="0.5"/><circle cx="454.4" cy="941.6" r="0.8"/><circle cx="630" cy="29.8" r="0.8"/><circle cx="599.5" cy="181.9" r="1.3"/><circle cx="1238.4" cy="1544.5" r="0.6"/><circle cx="1091.5" cy="1149.8" r="0.6"/><circle cx="951.6" cy="1156.2" r="0.9"/><circle cx="872.5" cy="405" r="0.6"/><circle cx="513.8" cy="800.4" r="0.8"/><circle cx="330" cy="91.2" r="1.3"/><circle cx="571" cy="1417.3" r="1.2"/><circle cx="260" cy="300" r="0.6"/><circle cx="4.5" cy="354" r="1"/><circle cx="1121.5" cy="277.1" r="0.9"/><circle cx="1028.8" cy="1157.1" r="1"/><circle cx="1210.6" cy="139.1" r="0.5"/><circle cx="1160" cy="715" r="1"/><circle cx="1163.8" cy="1235.6" r="1"/><circle cx="680.2" cy="1442" r="1"/><circle cx="771.4" cy="1319" r="0.7"/><circle cx="551.7" cy="950.4" r="1.3"/><circle cx="304.6" cy="464.6" r="0.5"/><circle cx="1040.6" cy="763.3" r="0.8"/><circle cx="571.8" cy="586.8" r="0.9"/><circle cx="254.2" cy="766.5" r="0.5"/><circle cx="816.3" cy="793.8" r="0.8"/><circle cx="504.5" cy="1280" r="0.6"/><circle cx="843.5" cy="1544.5" r="0.7"/><circle cx="672.7" cy="1092.3" r="0.8"/><circle cx="1249.9" cy="1419.8" r="0.6"/><circle cx="803.8" cy="757.3" r="0.8"/><circle cx="1019.4" cy="306.7" r="0.7"/><circle cx="393" cy="697" r="0.7"/><circle cx="478.3" cy="1514.1" r="1"/><circle cx="505.3" cy="155.6" r="1"/><circle cx="963.1" cy="913.5" r="0.4"/><circle cx="968.6" cy="1275.5" r="0.9"/><circle cx="1070.2" cy="566.3" r="0.7"/><circle cx="416.3" cy="1222.6" r="1.1"/><circle cx="864.3" cy="816.1" r="0.7"/><circle cx="1557.1" cy="62.3" r="0.9"/><circle cx="493.4" cy="1283.5" r="1.3"/><circle cx="935.9" cy="1154.8" r="0.6"/><circle cx="1583.2" cy="722.5" r="1.2"/><circle cx="43.5" cy="530.4" r="1"/><circle cx="275.2" cy="15.7" r="0.7"/><circle cx="1114.4" cy="1379.5" r="0.6"/><circle cx="949.9" cy="1391" r="1.1"/><circle cx="1019.3" cy="785.4" r="0.6"/><circle cx="440.8" cy="902.4" r="0.7"/><circle cx="1123.4" cy="396.9" r="1"/><circle cx="337.3" cy="1098" r="1.2"/><circle cx="1425.7" cy="670.7" r="1.2"/><circle cx="223.4" cy="628.2" r="0.7"/><circle cx="623.3" cy="88.7" r="0.7"/><circle cx="954.3" cy="1200.1" r="0.8"/><circle cx="1477.1" cy="1079.8" r="1.1"/><circle cx="1341.7" cy="568.9" r="1.1"/><circle cx="771.3" cy="459.9" r="1"/><circle cx="1130" cy="78.1" r="1"/><circle cx="1527.1" cy="53.4" r="1.3"/><circle cx="680.9" cy="1489.4" r="0.8"/><circle cx="728.1" cy="1049.2" r="0.7"/><circle cx="373.7" cy="1050.8" r="0.7"/><circle cx="40.8" cy="465" r="1.2"/><circle cx="1177.1" cy="214" r="0.9"/><circle cx="959.9" cy="278.7" r="1.1"/><circle cx="1558.9" cy="1052.6" r="1.1"/><circle cx="647.5" cy="397.4" r="1"/><circle cx="1399.5" cy="1176.2" r="0.5"/><circle cx="1596.3" cy="1448.5" r="1"/><circle cx="342.7" cy="275.5" r="0.5"/><circle cx="1253.2" cy="879.6" r="1.3"/><circle cx="278.5" cy="577.1" r="0.7"/><circle cx="1361.2" cy="1224.5" r="1.1"/><circle cx="793.3" cy="430.8" r="0.8"/><circle cx="182.7" cy="1140" r="0.9"/><circle cx="863.7" cy="1394.1" r="0.5"/><circle cx="1006.2" cy="172.3" r="0.6"/><circle cx="1043.8" cy="819.8" r="1.2"/><circle cx="359.5" cy="574.8" r="0.7"/><circle cx="474.6" cy="1080.8" r="0.7"/><circle cx="640.2" cy="1256.4" r="0.5"/><circle cx="1046" cy="792.9" r="0.8"/><circle cx="704.8" cy="273.8" r="0.5"/><circle cx="1149.7" cy="518.3" r="0.6"/><circle cx="323" cy="1008.5" r="1"/><circle cx="971.6" cy="39.2" r="0.8"/><circle cx="664.2" cy="281.9" r="1.1"/><circle cx="645" cy="1349.9" r="0.8"/><circle cx="385.8" cy="1388" r="0.5"/><circle cx="557.9" cy="580.6" r="0.5"/><circle cx="1021.3" cy="482.1" r="1.2"/><circle cx="1457.7" cy="65.5" r="0.6"/><circle cx="1066.8" cy="1129.6" r="0.6"/><circle cx="538.8" cy="1577.2" r="1.2"/><circle cx="582.8" cy="1123.9" r="1.3"/><circle cx="1050" cy="670.9" r="1.2"/><circle cx="931.8" cy="1080.3" r="1.2"/><circle cx="86.2" cy="173.9" r="0.5"/><circle cx="443.6" cy="1554.3" r="1"/><circle cx="581.1" cy="961.6" r="0.8"/><circle cx="779.1" cy="554.8" r="1.2"/><circle cx="1195.7" cy="93.5" r="0.9"/><circle cx="1498.7" cy="616.6" r="0.5"/><circle cx="80.5" cy="861.1" r="0.7"/><circle cx="877.5" cy="1094.1" r="0.8"/><circle cx="972" cy="954.2" r="0.9"/><circle cx="826.9" cy="336.9" r="0.6"/><circle cx="1079.7" cy="1501" r="0.5"/><circle cx="83.3" cy="721.7" r="1.2"/><circle cx="1408.7" cy="354.2" r="1"/><circle cx="116.2" cy="1289" r="0.5"/><circle cx="1509.3" cy="569" r="0.7"/><circle cx="547.9" cy="183.5" r="0.7"/><circle cx="337.8" cy="52.3" r="0.8"/><circle cx="1333.9" cy="1212.8" r="0.9"/><circle cx="194.9" cy="731" r="0.6"/><circle cx="738.3" cy="1408.5" r="0.6"/><circle cx="853.1" cy="749.9" r="0.8"/><circle cx="112.4" cy="1464.8" r="1.2"/><circle cx="346.8" cy="1384.1" r="0.8"/><circle cx="1373.7" cy="494.2" r="0.5"/><circle cx="1580" cy="578.2" r="0.4"/><circle cx="353.9" cy="533.1" r="1.1"/><circle cx="1546.9" cy="439.4" r="0.5"/><circle cx="187.8" cy="1578" r="0.8"/><circle cx="209.1" cy="494.8" r="0.9"/><circle cx="1003.1" cy="853.9" r="1.1"/><circle cx="714.9" cy="1344.8" r="1"/><circle cx="969.4" cy="157.7" r="0.7"/><circle cx="444.6" cy="1398" r="1.2"/><circle cx="1123.2" cy="1089.4" r="0.5"/><circle cx="26.3" cy="125.2" r="0.8"/><circle cx="463.1" cy="1586.3" r="0.5"/><circle cx="996.1" cy="494" r="0.6"/><circle cx="1300.5" cy="1314.3" r="0.8"/><circle cx="773.9" cy="185.6" r="0.9"/><circle cx="1196.3" cy="1418.5" r="1.1"/><circle cx="1290" cy="310.5" r="1.2"/><circle cx="141.6" cy="379.1" r="0.9"/><circle cx="1139" cy="1023.4" r="1"/><circle cx="1143" cy="643.2" r="0.4"/><circle cx="455.3" cy="925.9" r="1"/><circle cx="647.6" cy="880.4" r="1.2"/><circle cx="985.9" cy="766" r="0.8"/><circle cx="165.4" cy="597" r="1.3"/><circle cx="812.6" cy="739.3" r="1"/><circle cx="365.4" cy="710.4" r="0.6"/><circle cx="842" cy="812.8" r="1.1"/><circle cx="1214.3" cy="580" r="1.3"/><circle cx="904.8" cy="621.4" r="0.5"/><circle cx="25.5" cy="567.3" r="1"/><circle cx="432.8" cy="207" r="0.8"/><circle cx="205.4" cy="351.5" r="0.8"/><circle cx="1155.7" cy="543" r="1"/><circle cx="509.9" cy="222.1" r="1.1"/><circle cx="1036.2" cy="1050.4" r="1.1"/><circle cx="819.6" cy="106" r="0.5"/><circle cx="865.9" cy="1051.5" r="0.4"/><circle cx="1171.7" cy="1464" r="0.9"/><circle cx="1414.6" cy="784.1" r="1.1"/><circle cx="41.2" cy="853.9" r="1.1"/><circle cx="1263.3" cy="1475" r="0.8"/><circle cx="77.3" cy="1191.2" r="1.3"/><circle cx="1507.3" cy="1382.6" r="0.4"/><circle cx="1091.9" cy="1475.4" r="0.7"/><circle cx="988.9" cy="948.9" r="0.7"/><circle cx="1471" cy="149.4" r="0.6"/><circle cx="1196.4" cy="1224.1" r="0.8"/><circle cx="1391.1" cy="309.6" r="0.6"/><circle cx="64.1" cy="1339.2" r="0.7"/><circle cx="976.5" cy="772.4" r="0.9"/><circle cx="435.3" cy="194.5" r="1.1"/><circle cx="711.4" cy="555.5" r="0.9"/><circle cx="76.8" cy="1192.3" r="0.7"/><circle cx="520.4" cy="424.1" r="0.4"/><circle cx="1168.4" cy="1067.5" r="1.1"/><circle cx="755.9" cy="1378.5" r="0.8"/><circle cx="857.4" cy="1303.4" r="0.7"/><circle cx="752.5" cy="566.4" r="0.4"/><circle cx="1545.4" cy="1354.2" r="1.1"/><circle cx="19.6" cy="1450.7" r="0.5"/><circle cx="1452.8" cy="592.4" r="0.4"/><circle cx="1212.6" cy="39.6" r="1.1"/><circle cx="214.1" cy="1325.4" r="0.4"/><circle cx="200.3" cy="1099.3" r="0.9"/><circle cx="1155.5" cy="201.1" r="0.9"/><circle cx="1361.7" cy="1298.6" r="1.2"/><circle cx="1115.2" cy="1306.9" r="0.9"/><circle cx="758.3" cy="967.4" r="1.1"/><circle cx="297.7" cy="438.5" r="1.1"/><circle cx="377.9" cy="191.9" r="1.1"/><circle cx="1567.7" cy="205.9" r="0.4"/><circle cx="814.3" cy="916.2" r="1"/><circle cx="982.2" cy="776.2" r="0.5"/><circle cx="576.3" cy="758.3" r="1.3"/><circle cx="793.7" cy="1036.8" r="1"/><circle cx="991.3" cy="1074.8" r="0.5"/><circle cx="358.4" cy="323.1" r="0.8"/><circle cx="483.2" cy="1427.1" r="0.5"/><circle cx="95.3" cy="1188.1" r="0.5"/><circle cx="79.7" cy="416.5" r="0.8"/><circle cx="800.7" cy="942.5" r="1.1"/><circle cx="1479.8" cy="414" r="0.8"/><circle cx="615.1" cy="298.1" r="0.9"/><circle cx="1360.6" cy="354.3" r="0.5"/><circle cx="134.4" cy="642.4" r="1.3"/><circle cx="1021.2" cy="186" r="1.3"/><circle cx="343.1" cy="717" r="0.9"/><circle cx="1555.8" cy="1395.2" r="0.7"/><circle cx="1535" cy="949.6" r="1.1"/><circle cx="495.4" cy="1008.1" r="1.1"/><circle cx="1589.9" cy="1354.1" r="0.9"/><circle cx="128.2" cy="1154.1" r="0.5"/><circle cx="1492.7" cy="1523.9" r="1.2"/><circle cx="168.2" cy="962.9" r="1"/><circle cx="1250.6" cy="1378.4" r="0.5"/><circle cx="317" cy="6.9" r="1.3"/><circle cx="773.7" cy="954" r="1.2"/><circle cx="301.3" cy="522.8" r="1"/><circle cx="547.9" cy="1186.9" r="0.8"/><circle cx="932.3" cy="878.7" r="0.7"/><circle cx="1557.8" cy="1318.1" r="0.7"/><circle cx="884.6" cy="967.4" r="0.6"/><circle cx="255.9" cy="673.4" r="0.9"/><circle cx="1337.7" cy="879.7" r="0.8"/><circle cx="739.2" cy="62.7" r="0.7"/><circle cx="1231.8" cy="1029.3" r="0.5"/><circle cx="1420.8" cy="1405.1" r="1.2"/><circle cx="1208.5" cy="525.4" r="0.6"/><circle cx="596.8" cy="667.7" r="0.4"/><circle cx="311.6" cy="1099.6" r="1.2"/><circle cx="108.4" cy="278.8" r="0.6"/><circle cx="1322.5" cy="760.1" r="0.7"/><circle cx="980.5" cy="1169.9" r="0.9"/><circle cx="949" cy="1276.6" r="0.9"/><circle cx="1022.6" cy="680.3" r="1.2"/><circle cx="1489.6" cy="898.1" r="1"/><circle cx="1412.9" cy="186" r="0.7"/><circle cx="538.1" cy="939.8" r="1.1"/><circle cx="943.6" cy="899.9" r="1.1"/><circle cx="574.7" cy="1068.8" r="1.1"/><circle cx="748.3" cy="1209.6" r="0.4"/><circle cx="986.4" cy="1163.5" r="1"/><circle cx="170.3" cy="829.1" r="1"/><circle cx="1137.8" cy="1519.1" r="0.5"/><circle cx="344.1" cy="1066.6" r="0.4"/><circle cx="704.3" cy="79.9" r="1"/><circle cx="1010.5" cy="170.9" r="0.5"/><circle cx="544" cy="495.6" r="0.8"/><circle cx="940.9" cy="524.3" r="0.4"/><circle cx="97" cy="1368.6" r="0.6"/><circle cx="1507.6" cy="681.5" r="0.6"/><circle cx="912.2" cy="122.3" r="0.6"/><circle cx="944.7" cy="588" r="0.5"/><circle cx="1044.4" cy="402.8" r="1.3"/><circle cx="308.4" cy="268.3" r="0.7"/><circle cx="1289.4" cy="1402.3" r="1.1"/><circle cx="360" cy="638.8" r="0.9"/><circle cx="843.3" cy="1493.3" r="1.1"/><circle cx="807.4" cy="227.8" r="1.3"/><circle cx="1586.9" cy="1314" r="1.1"/><circle cx="1198.2" cy="1502.8" r="1.1"/><circle cx="929.9" cy="869.1" r="0.9"/><circle cx="84.4" cy="987.3" r="0.5"/><circle cx="1390.7" cy="171.7" r="0.7"/></g><rect width="1600" height="1600" fill="url(#h20)" opacity="0.14400000000000002" transform="rotate(90 800.0 800.0)"/><rect width="100%" height="100%" filter="url(#grain)" opacity=".13"/></svg>